<?xml version="1.0" encoding="utf-8"?>
<!-- Generator: Adobe Illustrator 26.3.1, SVG Export Plug-In . SVG Version: 6.00 Build 0)  -->
<svg version="1.1" xmlns="http://www.w3.org/2000/svg" xmlns:xlink="http://www.w3.org/1999/xlink" x="0px" y="0px"
	 viewBox="0 0 177.2 43" style="enable-background:new 0 0 177.2 43;" xml:space="preserve">
<style type="text/css">
	.st0{display:none;}
	.st1{display:inline;}
	.st2{fill:none;stroke:#000000;stroke-width:4;stroke-linecap:round;stroke-miterlimit:10;}
	.st3{font-family:'Calibri-BoldItalic';}
	.st4{font-size:23.1021px;}
	.st5{fill:#FFFFFF;}
</style>
<g id="Layer_2" class="st0">
	<rect class="st1" width="177.2" height="43"/>
</g>
<g id="Layer_1">
	<g id="Layer_1_00000002370550951705838650000013783887673718127017_" class="st0">
		<g class="st1">
			<path d="M86.7,15.1c-1.9,0-1.9-0.9-1.9-0.9c0-0.2,0.2-0.3,0.3-0.3c2.4,0,5.5-4,5.5-6.4c0-1-0.5-1.7-1.9-1.7c-4,0-7.6,5.4-7.6,8.9
				c0,3.7,7.8,3.4,7.8,7.8c0,3.9-6.6,6.1-10.1,6.1c-2.4,0-4.9-0.4-4.9-2.8c0-0.7,0.9-1.9,1.4-1.9c1,0,0.2,1,2.5,1
				c1.4,0,6.1-0.6,6.1-2.7c0-2.3-7.4-3.6-7.4-7.6c0-6.4,7.3-11.1,12.5-11.1c4.1,0,5.6,1.4,5.6,3.3C94.7,10.2,89.6,15.1,86.7,15.1z"
				/>
			<path d="M93.6,26.6c-1.6,0-3.1-0.8-3.1-2.9c0-1.4,0.5-4.5,1.3-5.7c0.5-0.3,2.2-0.7,2.7-0.7c0.4,0,0.6,0.2,0.6,0.5
				c0,0.4-1.1,2.8-1.1,3.9c0,1,0.5,1.9,1.5,1.9s0.9-0.6,1.7-0.6c0.3,0,0.7,0.1,0.9,0.6C98.1,25.3,95.7,26.6,93.6,26.6z M93.4,14.7
				c0,0-1,0-1-0.6c0.1-0.5,0.5-1.9,0.9-2.7c0.3-0.5,0.8-0.7,1.4-0.7s1.7,0.1,1.7,0.8C96.5,12.2,96.1,14.6,93.4,14.7z"/>
			<path d="M113,27.4c-0.2,1.1-1.1,1.1-2.1,1.4c-0.7,0.2-1.4,0.3-2.1,0.5c-2.8,7-7.7,10.2-11,10.2c-1.9,0-3.3-1.1-3.3-3.3
				c0-4.1,6.3-7.3,11.6-9c0.1-0.6,0.1-1.2,0.1-1.8c0,0-2.7,1.2-4.9,1.2c-1.7,0-3.1-0.6-3.1-2.8c0-2.7,4.6-6.8,10.1-6.8
				c0.7,0.2,0.7,0.4,0.7,0.6c0,0.6-0.5,1.5-0.6,1.8c-0.2,0.3-0.6,0.6-1.1,0.6c-1.3,0-5.7,1.9-5.7,3.3c0,0.3,0.4,0.4,0.9,0.4
				c1.5,0,4.2-1,5-2.5c0.1-0.2,0-0.4,1.4-1c0.5-0.2,0.8-0.2,1.1-0.2c0.6,0,0.8,0.3,0.8,0.7V21c-0.2,1.9-0.5,3.6-0.9,5.2
				c1.1-0.2,2-0.4,2.6-0.4c0.4,0,0.6,0.2,0.6,0.7C113.2,26.7,113.1,27,113,27.4z M97.3,35.7c0,0.9,0.6,1.4,1.5,1.4
				c1.9,0,5.2-2.2,6.7-6.7C101.2,31.8,97.3,33.7,97.3,35.7z"/>
			<path d="M121.9,26.2c-1.7,0-1.7-1-1.7-3c0-0.4-0.1-0.6-0.6-0.6c-0.6,0-3.8,3-4.2,3.3c-0.2,0.1-0.5,0.4-1,0.4s-1.3-0.3-1.3-0.9
				c0-0.8,1.2-3,1.2-4.2c0-0.6-0.3-1-1.1-1c-0.6,0-1.2,0.4-1.7,0.4s-0.7-0.5-0.7-1c0,0,0-2.3,3.8-2.3c1.7,0,2.1,0.7,2.1,1.4
				c0,0.9-0.5,1.9-0.6,2.3c0,0.1,0.1,0.2,0.2,0.2c0.4,0,3.5-2.5,5.5-2.5c0.9,0,1.8,0.2,1.8,1.3c0,1-0.5,1.5-0.5,2.4
				c0,0.3,0.1,0.9,0.7,0.9c1.1,0,2.8-1.1,3.4-1.1c0.3,0,0.5,0.3,0.5,0.7C127.9,24.3,124.4,26.2,121.9,26.2z"/>
			<path d="M145.3,26.3c-2.4,0-2.5-1.3-2.5-1.6c0-0.9,0-0.9-0.1-0.9c-0.2,0-3,2.2-5.9,2.2c-2.1,0-2.5-1-2.5-2.5
				c0-0.9,0.9-3.2,0.9-3.5s-0.3-0.4-0.7-0.4c-0.8,0-2.1,0.4-2.2,0.4c-0.7,0-0.7-0.7-0.7-0.7c0-1.6,3-2.9,4.2-2.9
				c0.8,0,1.9,0.3,1.9,1.5c0,1.3-0.5,2.5-0.5,3.2c0,0.6,0.2,0.9,1.1,0.9c3.8,0,6.3-4.1,7.6-4.1c0.5,0,0.9,0.4,0.9,0.8
				c0,0.9-0.9,1.8-0.9,3.5c0,0.7,0.4,1.1,1.1,1.1s1-0.3,1.5-0.3c0.4,0,0.6,0.2,0.6,0.5C149.2,24.6,147.6,26.3,145.3,26.3z"/>
			<path d="M157.1,26.3c-1.2,0-3.1-0.7-3.1-2c0-0.3,0.1-0.5,0.4-0.6c0.5,0,1.1,0.1,1.8,0.1c2,0,3.5-1.3,3.5-2.3c0-0.5-0.5-1-1.7-1
				c-1.6,0-3,0.6-4.3,1.6c-0.3,3.4-2.3,16.6-8,16.6c-1.5,0-2.1-1.2-2.1-2.5c0-2.3,2.7-8.6,6.5-13.3c0-0.9,0-1.7,0-2.5
				c0-2-0.3-1.7-0.3-2.7c0-0.6,1.6-1.4,3-1.4c0.6,0,1.1,0.2,1.1,1.1c0,0.3,0,1,0,1.6c1.6-1.3,3.4-2,5.2-2c2.6,0,3.7,1.6,3.7,3.4
				C162.7,23.1,160.5,26.3,157.1,26.3z M146.9,35.1c0,0.3,0.1,0.7,0.3,0.7c0.1,0,0.3-0.2,0.5-0.5c1.2-2.6,1.8-5.6,2.1-8.5
				C148.2,29.6,147.2,32.9,146.9,35.1z"/>
		</g>
		<g class="st1">
			<polyline class="st2" points="21.2,11 32.2,22 21.2,32.9 			"/>
			<polyline class="st2" points="30.2,11 41.2,22 30.2,32.9 			"/>
		</g>
		<g class="st1">
			<text transform="matrix(1 0 0 1 72.8064 28.2258)" class="st3 st4">Sign up</text>
		</g>
	</g>
	<g id="Layer_3" class="st0">
	</g>
	<g>
		<path class="st5" d="M63,23.4c0,0.2,0,0.5-0.1,0.8c-0.1,0.4-0.2,0.6-0.3,0.9c-0.1,0.2-0.2,0.3-0.4,0.3c-0.1,0-0.2-0.1-0.3-0.2
			s-0.3-0.3-0.5-0.4c-0.2-0.1-0.5-0.3-0.8-0.4c-0.3-0.1-0.8-0.2-1.3-0.2c-0.6,0-1.1,0.1-1.5,0.3c-0.5,0.2-0.9,0.5-1.2,0.9
			c-0.4,0.4-0.7,0.8-0.9,1.3c-0.3,0.5-0.5,1-0.7,1.5s-0.3,1-0.4,1.5c-0.1,0.5-0.1,1-0.1,1.4c0,0.5,0.1,1,0.2,1.4
			c0.1,0.4,0.3,0.7,0.6,1s0.6,0.5,0.9,0.6c0.4,0.1,0.8,0.2,1.2,0.2c0.5,0,1-0.1,1.4-0.2c0.4-0.1,0.7-0.2,1-0.4
			c0.3-0.1,0.5-0.3,0.7-0.4c0.2-0.1,0.3-0.2,0.5-0.2c0.1,0,0.2,0,0.2,0.1c0,0.1,0.1,0.2,0.1,0.3c0,0.1,0,0.1,0,0.2
			c0,0.1,0,0.2-0.1,0.4s0,0.3-0.1,0.4c0,0.2-0.1,0.3-0.1,0.4c0,0.1-0.1,0.3-0.1,0.4c0,0.1-0.1,0.2-0.2,0.3c-0.1,0.1-0.2,0.2-0.5,0.3
			s-0.5,0.3-0.9,0.4c-0.3,0.1-0.7,0.2-1.2,0.3c-0.4,0.1-0.9,0.1-1.4,0.1c-0.8,0-1.6-0.1-2.2-0.3c-0.7-0.2-1.2-0.5-1.7-1
			c-0.5-0.4-0.8-1-1.1-1.7c-0.2-0.7-0.4-1.5-0.4-2.3c0-0.7,0.1-1.4,0.2-2.2c0.1-0.8,0.4-1.5,0.6-2.2s0.7-1.4,1.1-2.1
			c0.4-0.6,1-1.2,1.6-1.7s1.3-0.9,2.1-1.2c0.8-0.3,1.6-0.4,2.6-0.4c0.5,0,1,0.1,1.5,0.2c0.5,0.1,0.9,0.3,1.2,0.4
			c0.3,0.2,0.6,0.3,0.7,0.5S63,23.2,63,23.4z"/>
		<path class="st5" d="M73.6,29.5c0,0.5-0.1,1.1-0.2,1.7c-0.1,0.6-0.3,1.1-0.5,1.7c-0.2,0.5-0.5,1.1-0.8,1.5
			c-0.3,0.5-0.8,0.9-1.2,1.3c-0.5,0.4-1,0.7-1.6,0.9c-0.6,0.2-1.3,0.3-2.1,0.3c-0.8,0-1.4-0.1-2-0.3s-1-0.4-1.4-0.8
			c-0.4-0.3-0.6-0.8-0.8-1.3c-0.2-0.5-0.3-1.1-0.3-1.7c0-0.5,0.1-1.1,0.2-1.7s0.3-1.1,0.5-1.7c0.2-0.5,0.5-1.1,0.8-1.5
			c0.3-0.5,0.8-0.9,1.2-1.3c0.5-0.4,1-0.6,1.6-0.9c0.6-0.2,1.3-0.3,2.1-0.3c0.8,0,1.4,0.1,2,0.3s1,0.4,1.4,0.8
			c0.4,0.3,0.6,0.8,0.8,1.3S73.6,28.9,73.6,29.5z M70.7,29.7c0-0.3,0-0.6-0.1-0.8c-0.1-0.2-0.2-0.5-0.3-0.6
			c-0.1-0.2-0.3-0.3-0.6-0.4c-0.2-0.1-0.5-0.1-0.8-0.1c-0.4,0-0.7,0.1-1,0.2c-0.3,0.1-0.6,0.3-0.8,0.6c-0.2,0.2-0.4,0.5-0.6,0.9
			c-0.2,0.3-0.3,0.7-0.4,1c-0.1,0.4-0.2,0.7-0.2,1.1c-0.1,0.4-0.1,0.7-0.1,1.1c0,0.3,0,0.6,0.1,0.8c0.1,0.2,0.2,0.5,0.3,0.6
			c0.1,0.2,0.3,0.3,0.6,0.4c0.2,0.1,0.5,0.1,0.8,0.1c0.4,0,0.7-0.1,1-0.2c0.3-0.1,0.6-0.3,0.8-0.6s0.4-0.5,0.6-0.9s0.3-0.7,0.4-1
			c0.1-0.4,0.2-0.7,0.2-1.1S70.7,30,70.7,29.7z"/>
		<path class="st5" d="M90.2,21.5c0,0,0,0.1,0,0.2s0,0.2-0.1,0.3c0,0.1,0,0.3-0.1,0.4c0,0.1-0.1,0.3-0.1,0.4c0,0.1-0.1,0.2-0.1,0.3
			s-0.1,0.1-0.2,0.1c0,0-0.1,0-0.2,0c-0.1,0-0.2,0-0.2-0.1c-0.1,0-0.2,0-0.3-0.1s-0.2,0-0.4,0c-0.2,0-0.4,0-0.6,0.1
			c-0.2,0.1-0.3,0.2-0.5,0.3c-0.1,0.1-0.2,0.3-0.3,0.6c-0.1,0.2-0.2,0.5-0.2,0.8l-0.2,0.9h1.8c0.1,0,0.2,0,0.2,0.1
			c0,0.1,0.1,0.2,0.1,0.3c0,0.1,0,0.2,0,0.3s0,0.2-0.1,0.4c0,0.1-0.1,0.3-0.1,0.4c0,0.1-0.1,0.3-0.1,0.4c-0.1,0.1-0.1,0.2-0.2,0.3
			C88.3,28,88.2,28,88.1,28h-1.9l-1.7,8.5c-0.1,0.6-0.3,1.2-0.5,1.7c-0.2,0.5-0.5,0.9-0.9,1.2c-0.3,0.3-0.7,0.6-1.2,0.8
			s-1,0.3-1.6,0.3c-0.4,0-0.8,0-1.1-0.1c-0.3-0.1-0.5-0.1-0.6-0.2c-0.1-0.1-0.1-0.2-0.1-0.3c0-0.1,0-0.1,0-0.2c0-0.1,0-0.2,0.1-0.4
			c0-0.1,0-0.3,0.1-0.4c0-0.1,0.1-0.3,0.1-0.4c0-0.1,0.1-0.2,0.1-0.3c0.1-0.1,0.1-0.1,0.2-0.1c0.1,0,0.1,0,0.2,0
			c0.1,0,0.1,0,0.2,0.1s0.2,0,0.3,0.1c0.1,0,0.2,0,0.3,0c0.2,0,0.4,0,0.6-0.1s0.3-0.2,0.5-0.3s0.2-0.3,0.3-0.6
			c0.1-0.2,0.2-0.5,0.2-0.8l1.7-8.4h-3.7L78,36.7c-0.1,0.7-0.3,1.2-0.5,1.7c-0.2,0.5-0.5,0.9-0.9,1.2s-0.7,0.6-1.2,0.7
			c-0.5,0.2-1,0.2-1.6,0.2c-0.4,0-0.8,0-1.1-0.1c-0.3-0.1-0.5-0.1-0.6-0.2c0,0-0.1-0.1-0.1-0.1c0-0.1,0-0.1,0-0.2c0,0,0-0.1,0-0.2
			s0-0.2,0.1-0.3s0-0.3,0.1-0.4c0-0.1,0.1-0.3,0.1-0.4c0-0.1,0.1-0.2,0.1-0.3c0.1-0.1,0.1-0.1,0.2-0.1c0.1,0,0.2,0,0.4,0.1
			c0.1,0,0.3,0.1,0.6,0.1c0.2,0,0.4,0,0.6-0.1c0.2-0.1,0.3-0.2,0.5-0.3c0.1-0.1,0.2-0.3,0.3-0.6c0.1-0.2,0.2-0.5,0.2-0.8l1.7-8.5
			h-1.3c-0.1,0-0.2,0-0.2-0.1c0-0.1-0.1-0.2-0.1-0.4c0-0.1,0-0.2,0-0.3c0-0.1,0-0.2,0.1-0.4c0-0.1,0.1-0.3,0.1-0.4s0.1-0.3,0.1-0.4
			c0.1-0.1,0.1-0.2,0.2-0.3c0.1-0.1,0.2-0.1,0.3-0.1h1.2l0.2-1c0.1-0.6,0.3-1.2,0.5-1.7c0.2-0.5,0.5-0.9,0.9-1.2
			c0.3-0.3,0.7-0.6,1.2-0.7c0.5-0.2,1-0.2,1.6-0.2c0.2,0,0.4,0,0.6,0c0.2,0,0.4,0,0.5,0.1c0.2,0,0.3,0.1,0.4,0.1
			c0.1,0,0.2,0.1,0.2,0.1c0,0,0.1,0.1,0.1,0.2c0,0.1,0,0.2,0,0.2c0,0,0,0.1,0,0.2s0,0.2,0,0.3c0,0.1,0,0.3-0.1,0.4
			c0,0.1-0.1,0.3-0.1,0.4c0,0.1-0.1,0.2-0.1,0.3c-0.1,0.1-0.1,0.1-0.2,0.1c0,0-0.1,0-0.2,0c-0.1,0-0.2,0-0.2-0.1
			c-0.1,0-0.2-0.1-0.3-0.1c-0.1,0-0.2,0-0.4,0c-0.2,0-0.4,0-0.6,0.1c-0.2,0.1-0.3,0.2-0.5,0.3s-0.2,0.3-0.3,0.6
			c-0.1,0.2-0.2,0.5-0.2,0.8l-0.1,0.7h3.7l0.2-1.1c0.1-0.6,0.3-1.2,0.5-1.7c0.2-0.5,0.5-0.9,0.9-1.2c0.3-0.3,0.7-0.6,1.2-0.7
			c0.5-0.2,1-0.2,1.6-0.2c0.2,0,0.4,0,0.6,0c0.2,0,0.4,0,0.5,0.1c0.2,0,0.3,0.1,0.4,0.1c0.1,0,0.2,0.1,0.2,0.1c0,0,0.1,0.1,0.1,0.2
			S90.2,21.4,90.2,21.5z"/>
		<path class="st5" d="M98.8,28.3c0,0.5-0.1,1-0.4,1.5c-0.2,0.4-0.6,0.8-1.1,1.1c-0.5,0.3-1.2,0.6-2,0.7c-0.8,0.2-1.7,0.2-2.8,0.2
			h-1c0,0.2-0.1,0.3-0.1,0.5s0,0.3,0,0.5c0,0.6,0.2,1.1,0.5,1.4s0.8,0.5,1.5,0.5c0.5,0,0.9,0,1.3-0.1c0.4-0.1,0.7-0.2,1-0.2
			c0.3-0.1,0.5-0.2,0.7-0.2c0.2-0.1,0.3-0.1,0.4-0.1c0.1,0,0.2,0,0.2,0.1c0,0.1,0.1,0.1,0.1,0.2c0,0.1,0,0.3,0,0.4
			c0,0.2-0.1,0.3-0.1,0.5c0,0.2-0.1,0.3-0.2,0.5c-0.1,0.1-0.1,0.3-0.2,0.3c-0.1,0.1-0.3,0.2-0.5,0.3c-0.2,0.1-0.5,0.2-0.9,0.2
			c-0.3,0.1-0.7,0.1-1.1,0.2s-0.8,0.1-1.3,0.1c-0.7,0-1.4-0.1-1.9-0.2c-0.5-0.2-1-0.4-1.3-0.7s-0.6-0.7-0.8-1.2
			c-0.2-0.5-0.3-1-0.3-1.7c0-0.5,0-1,0.1-1.6c0.1-0.6,0.2-1.1,0.5-1.7c0.2-0.6,0.5-1.1,0.8-1.6c0.3-0.5,0.7-1,1.2-1.3
			c0.5-0.4,1-0.7,1.6-0.9c0.6-0.2,1.3-0.3,2.1-0.3c0.7,0,1.3,0.1,1.8,0.2c0.5,0.2,0.9,0.4,1.2,0.6s0.6,0.6,0.7,0.9
			C98.7,27.6,98.8,28,98.8,28.3z M96,28.5c0-0.3-0.1-0.6-0.4-0.8c-0.2-0.2-0.6-0.3-1-0.3c-0.4,0-0.7,0.1-1,0.2
			c-0.3,0.1-0.6,0.3-0.8,0.5s-0.4,0.5-0.6,0.8c-0.2,0.3-0.3,0.6-0.4,1h0.9c0.6,0,1.1,0,1.5-0.1c0.4-0.1,0.7-0.2,1-0.3
			c0.2-0.1,0.4-0.3,0.5-0.5C96,29,96,28.8,96,28.5z"/>
		<path class="st5" d="M110.1,28.3c0,0.5-0.1,1-0.4,1.5c-0.2,0.4-0.6,0.8-1.1,1.1c-0.5,0.3-1.2,0.6-2,0.7c-0.8,0.2-1.7,0.2-2.8,0.2
			h-1c0,0.2-0.1,0.3-0.1,0.5c0,0.2,0,0.3,0,0.5c0,0.6,0.2,1.1,0.5,1.4c0.3,0.3,0.8,0.5,1.5,0.5c0.5,0,0.9,0,1.3-0.1
			c0.4-0.1,0.7-0.2,1-0.2c0.3-0.1,0.5-0.2,0.7-0.2c0.2-0.1,0.3-0.1,0.4-0.1c0.1,0,0.2,0,0.2,0.1c0,0.1,0.1,0.1,0.1,0.2
			c0,0.1,0,0.3,0,0.4c0,0.2-0.1,0.3-0.1,0.5c0,0.2-0.1,0.3-0.2,0.5c-0.1,0.1-0.1,0.3-0.2,0.3c-0.1,0.1-0.3,0.2-0.5,0.3
			c-0.2,0.1-0.5,0.2-0.9,0.2c-0.3,0.1-0.7,0.1-1.1,0.2s-0.8,0.1-1.3,0.1c-0.7,0-1.4-0.1-1.9-0.2c-0.5-0.2-1-0.4-1.3-0.7
			c-0.4-0.3-0.6-0.7-0.8-1.2c-0.2-0.5-0.3-1-0.3-1.7c0-0.5,0-1,0.1-1.6c0.1-0.6,0.2-1.1,0.5-1.7c0.2-0.6,0.5-1.1,0.8-1.6
			c0.3-0.5,0.7-1,1.2-1.3c0.5-0.4,1-0.7,1.6-0.9c0.6-0.2,1.3-0.3,2.1-0.3c0.7,0,1.3,0.1,1.8,0.2c0.5,0.2,0.9,0.4,1.2,0.6
			s0.6,0.6,0.7,0.9C110.1,27.6,110.1,28,110.1,28.3z M107.4,28.5c0-0.3-0.1-0.6-0.4-0.8c-0.2-0.2-0.6-0.3-1-0.3
			c-0.4,0-0.7,0.1-1,0.2c-0.3,0.1-0.6,0.3-0.8,0.5s-0.4,0.5-0.6,0.8c-0.2,0.3-0.3,0.6-0.4,1h0.9c0.6,0,1.1,0,1.5-0.1
			c0.4-0.1,0.7-0.2,1-0.3c0.2-0.1,0.4-0.3,0.5-0.5C107.3,29,107.4,28.8,107.4,28.5z"/>
		<path class="st5" d="M128.3,25c0,0.4-0.1,0.9-0.2,1.3c-0.1,0.4-0.3,0.8-0.5,1.1c-0.2,0.3-0.5,0.6-0.9,0.9
			c-0.3,0.3-0.7,0.5-1.1,0.6c0.3,0.1,0.6,0.2,0.9,0.3c0.3,0.2,0.5,0.3,0.7,0.6s0.4,0.5,0.5,0.8c0.1,0.3,0.2,0.7,0.2,1.1
			c0,0.4,0,0.7-0.1,1.1c-0.1,0.4-0.3,0.8-0.5,1.1c-0.2,0.4-0.5,0.7-0.8,1.1c-0.3,0.3-0.7,0.6-1.2,0.9s-1,0.5-1.7,0.6
			c-0.6,0.1-1.4,0.2-2.2,0.2h-4c-0.3,0-0.5-0.1-0.7-0.2c-0.1-0.2-0.2-0.4-0.1-0.7l2.5-12.7c0.1-0.3,0.2-0.6,0.4-0.7s0.4-0.2,0.7-0.2
			h3.5c0.8,0,1.4,0.1,2,0.2c0.6,0.1,1,0.3,1.4,0.5c0.4,0.2,0.7,0.6,0.9,0.9C128.2,24,128.3,24.4,128.3,25z M124.7,31.7
			c0-0.5-0.2-0.9-0.5-1.1s-0.9-0.4-1.7-0.4h-2l-0.8,4.2h2.1c0.5,0,1-0.1,1.3-0.2c0.4-0.2,0.7-0.3,0.9-0.6c0.2-0.2,0.4-0.5,0.5-0.8
			C124.7,32.3,124.7,32,124.7,31.7z M125.2,25.5c0-0.2,0-0.4-0.1-0.6s-0.2-0.3-0.3-0.4c-0.2-0.1-0.3-0.2-0.6-0.3
			c-0.2-0.1-0.5-0.1-0.9-0.1h-1.6l-0.8,3.8h1.7c0.5,0,0.9-0.1,1.2-0.2s0.6-0.4,0.8-0.6c0.2-0.2,0.4-0.5,0.5-0.8
			C125.2,26.1,125.2,25.8,125.2,25.5z"/>
		<path class="st5" d="M139.7,28.3c0,0.5-0.1,1-0.4,1.5c-0.2,0.4-0.6,0.8-1.1,1.1c-0.5,0.3-1.2,0.6-2,0.7c-0.8,0.2-1.7,0.2-2.8,0.2
			h-1c0,0.2-0.1,0.3-0.1,0.5c0,0.2,0,0.3,0,0.5c0,0.6,0.2,1.1,0.5,1.4c0.3,0.3,0.8,0.5,1.5,0.5c0.5,0,0.9,0,1.3-0.1
			c0.4-0.1,0.7-0.2,1-0.2c0.3-0.1,0.5-0.2,0.7-0.2c0.2-0.1,0.3-0.1,0.4-0.1c0.1,0,0.2,0,0.2,0.1c0,0.1,0.1,0.1,0.1,0.2
			c0,0.1,0,0.3,0,0.4c0,0.2-0.1,0.3-0.1,0.5c0,0.2-0.1,0.3-0.2,0.5c-0.1,0.1-0.1,0.3-0.2,0.3c-0.1,0.1-0.3,0.2-0.5,0.3
			c-0.2,0.1-0.5,0.2-0.9,0.2c-0.3,0.1-0.7,0.1-1.1,0.2s-0.8,0.1-1.3,0.1c-0.7,0-1.4-0.1-1.9-0.2c-0.5-0.2-1-0.4-1.3-0.7
			c-0.4-0.3-0.6-0.7-0.8-1.2c-0.2-0.5-0.3-1-0.3-1.7c0-0.5,0-1,0.1-1.6c0.1-0.6,0.2-1.1,0.5-1.7c0.2-0.6,0.5-1.1,0.8-1.6
			c0.3-0.5,0.7-1,1.2-1.3c0.5-0.4,1-0.7,1.6-0.9c0.6-0.2,1.3-0.3,2.1-0.3c0.7,0,1.3,0.1,1.8,0.2c0.5,0.2,0.9,0.4,1.2,0.6
			s0.6,0.6,0.7,0.9C139.6,27.6,139.7,28,139.7,28.3z M136.9,28.5c0-0.3-0.1-0.6-0.4-0.8c-0.2-0.2-0.6-0.3-1-0.3
			c-0.4,0-0.7,0.1-1,0.2c-0.3,0.1-0.6,0.3-0.8,0.5s-0.4,0.5-0.6,0.8c-0.2,0.3-0.3,0.6-0.4,1h0.9c0.6,0,1.1,0,1.5-0.1
			c0.4-0.1,0.7-0.2,1-0.3c0.2-0.1,0.4-0.3,0.5-0.5C136.8,29,136.9,28.8,136.9,28.5z"/>
		<path class="st5" d="M149.9,36.2c0,0.2-0.1,0.3-0.4,0.3c-0.2,0.1-0.5,0.1-1,0.1c-0.2,0-0.4,0-0.6,0c-0.1,0-0.3,0-0.4-0.1
			c-0.1,0-0.1-0.1-0.2-0.1c0-0.1,0-0.1,0-0.2l0.3-1.6c-0.1,0.2-0.3,0.5-0.5,0.8c-0.2,0.3-0.5,0.5-0.9,0.7c-0.3,0.2-0.7,0.4-1.1,0.5
			c-0.4,0.1-0.8,0.2-1.3,0.2c-0.6,0-1.1-0.1-1.5-0.3c-0.4-0.2-0.7-0.5-1-0.9c-0.2-0.4-0.4-0.8-0.5-1.2c-0.1-0.5-0.2-0.9-0.2-1.4
			c0-0.5,0-1,0.1-1.6s0.2-1.1,0.4-1.7c0.2-0.6,0.4-1.1,0.7-1.6c0.3-0.5,0.6-1,1.1-1.4c0.4-0.4,0.9-0.7,1.4-1
			c0.5-0.2,1.1-0.4,1.8-0.4c0.6,0,1.2,0.1,1.7,0.4c0.5,0.3,0.9,0.6,1.3,1.1l0.2-0.9c0-0.2,0.1-0.3,0.4-0.3c0.2-0.1,0.5-0.1,1-0.1
			c0.2,0,0.4,0,0.6,0c0.2,0,0.3,0,0.4,0.1c0.1,0,0.1,0.1,0.2,0.1s0,0.1,0,0.2L149.9,36.2z M148.5,29.1c-0.3-0.4-0.6-0.7-0.9-0.9
			s-0.7-0.3-1.1-0.3c-0.3,0-0.6,0.1-0.9,0.2c-0.3,0.2-0.5,0.4-0.7,0.6s-0.4,0.5-0.5,0.9s-0.3,0.7-0.4,1s-0.2,0.7-0.2,1.1
			c0,0.4-0.1,0.7-0.1,1c0,0.2,0,0.4,0.1,0.6s0.1,0.4,0.2,0.5c0.1,0.2,0.2,0.3,0.4,0.4c0.2,0.1,0.3,0.1,0.6,0.1c0.3,0,0.7-0.1,1-0.3
			s0.7-0.5,1-0.8c0.3-0.3,0.6-0.7,0.8-1.2s0.4-0.9,0.5-1.5L148.5,29.1z"/>
		<path class="st5" d="M163.5,28.4c0,0.3,0,0.5-0.1,0.8c0,0.3-0.1,0.5-0.1,0.8l-1.3,6.2c0,0.1-0.1,0.1-0.1,0.2
			c-0.1,0.1-0.1,0.1-0.3,0.1c-0.1,0-0.3,0.1-0.5,0.1c-0.2,0-0.4,0-0.7,0s-0.5,0-0.7,0c-0.2,0-0.3,0-0.4-0.1c-0.1,0-0.2-0.1-0.2-0.1
			c0-0.1,0-0.1,0-0.2l1.2-6c0-0.2,0.1-0.4,0.1-0.6c0-0.2,0-0.4,0-0.5c0-0.3-0.1-0.6-0.2-0.8c-0.1-0.2-0.4-0.3-0.7-0.3
			c-0.3,0-0.6,0.1-1,0.3c-0.3,0.2-0.7,0.5-0.9,0.8s-0.6,0.7-0.8,1.2s-0.4,0.9-0.5,1.4l-0.9,4.6c0,0.1-0.1,0.1-0.1,0.2
			c-0.1,0.1-0.1,0.1-0.3,0.1c-0.1,0-0.3,0.1-0.5,0.1c-0.2,0-0.4,0-0.7,0c-0.3,0-0.5,0-0.7,0s-0.3,0-0.4-0.1c-0.1,0-0.2-0.1-0.2-0.1
			s0-0.1,0-0.2l2-10.1c0-0.1,0-0.1,0.1-0.2c0-0.1,0.1-0.1,0.2-0.1c0.1,0,0.2-0.1,0.4-0.1c0.2,0,0.4,0,0.6,0c0.2,0,0.4,0,0.6,0
			c0.1,0,0.3,0,0.3,0.1c0.1,0,0.1,0.1,0.2,0.1s0,0.1,0,0.2l-0.3,1.7c0.2-0.3,0.4-0.5,0.6-0.8s0.6-0.5,0.9-0.7
			c0.3-0.2,0.7-0.4,1.1-0.5c0.4-0.1,0.8-0.2,1.3-0.2c0.5,0,1,0.1,1.3,0.2c0.4,0.2,0.6,0.4,0.9,0.6c0.2,0.3,0.4,0.6,0.5,0.9
			S163.5,28,163.5,28.4z"/>
		<path class="st5" d="M173.2,26.6c0,0.1,0,0.2,0,0.4s-0.1,0.4-0.1,0.5c-0.1,0.2-0.1,0.3-0.2,0.5s-0.2,0.2-0.2,0.2
			c-0.1,0-0.2,0-0.3-0.1c-0.1-0.1-0.3-0.1-0.5-0.2c-0.2-0.1-0.4-0.2-0.7-0.2s-0.5-0.1-0.9-0.1c-0.3,0-0.5,0-0.7,0.1
			s-0.4,0.2-0.5,0.3c-0.1,0.1-0.2,0.3-0.3,0.4c-0.1,0.2-0.1,0.3-0.1,0.5c0,0.2,0.1,0.4,0.3,0.6c0.2,0.2,0.4,0.3,0.7,0.4
			c0.3,0.1,0.6,0.3,0.9,0.4s0.6,0.3,0.9,0.6c0.3,0.2,0.5,0.5,0.7,0.8c0.2,0.3,0.3,0.7,0.3,1.2c0,0.6-0.1,1.1-0.3,1.6
			c-0.2,0.5-0.5,0.9-1,1.3s-0.9,0.6-1.5,0.8c-0.6,0.2-1.3,0.3-2,0.3c-0.4,0-0.7,0-1-0.1c-0.3-0.1-0.6-0.1-0.9-0.2
			c-0.3-0.1-0.5-0.2-0.7-0.3c-0.2-0.1-0.3-0.2-0.4-0.3c-0.1-0.1-0.1-0.1-0.1-0.2s0-0.2,0-0.3c0-0.1,0-0.2,0-0.3c0-0.1,0-0.2,0.1-0.3
			s0.1-0.3,0.1-0.4c0-0.1,0.1-0.2,0.1-0.3s0.1-0.2,0.1-0.3c0.1-0.1,0.1-0.1,0.2-0.1c0.1,0,0.2,0,0.3,0.1c0.1,0.1,0.3,0.2,0.5,0.3
			c0.2,0.1,0.5,0.2,0.8,0.3c0.3,0.1,0.7,0.1,1.1,0.1c0.3,0,0.6,0,0.8-0.1s0.4-0.2,0.6-0.3s0.3-0.3,0.3-0.4c0.1-0.2,0.1-0.3,0.1-0.5
			c0-0.3-0.1-0.5-0.3-0.6c-0.2-0.2-0.4-0.3-0.7-0.5c-0.3-0.1-0.6-0.3-0.9-0.4s-0.6-0.3-0.9-0.6s-0.5-0.5-0.7-0.8s-0.3-0.7-0.3-1.2
			c0-0.5,0.1-1,0.3-1.5s0.5-0.9,0.9-1.2c0.4-0.3,0.9-0.6,1.4-0.8c0.6-0.2,1.2-0.3,1.9-0.3c0.3,0,0.6,0,0.9,0.1
			c0.3,0,0.6,0.1,0.8,0.2s0.4,0.1,0.6,0.2s0.3,0.2,0.4,0.2C173.2,26.3,173.2,26.4,173.2,26.6z"/>
	</g>
	<g>
		<path class="st5" d="M64,11.5c0,0.4,0,0.9-0.1,1.4c-0.1,0.5-0.2,1-0.4,1.4c-0.2,0.5-0.4,0.9-0.7,1.4c-0.3,0.4-0.6,0.8-1,1.1
			s-0.9,0.6-1.4,0.8c-0.5,0.2-1.2,0.3-1.8,0.3c-0.6,0-1.1-0.1-1.5-0.2c-0.4-0.1-0.8-0.3-1.1-0.6s-0.5-0.6-0.7-1
			C55,15.6,55,15.2,55,14.6c0-0.5,0-0.9,0.1-1.4s0.2-1,0.4-1.4c0.2-0.5,0.4-0.9,0.7-1.4s0.6-0.8,1-1.1c0.4-0.3,0.9-0.6,1.4-0.8
			c0.5-0.2,1.1-0.3,1.8-0.3c0.6,0,1.1,0.1,1.5,0.2c0.4,0.1,0.8,0.3,1.1,0.6s0.5,0.6,0.7,1C63.9,10.4,64,10.9,64,11.5z M62,11.7
			c0-0.3,0-0.6-0.1-0.8s-0.2-0.4-0.3-0.6c-0.1-0.2-0.3-0.3-0.6-0.4s-0.5-0.1-0.9-0.1c-0.4,0-0.8,0.1-1.1,0.2
			c-0.3,0.2-0.6,0.4-0.8,0.6c-0.2,0.3-0.4,0.6-0.6,0.9s-0.3,0.7-0.4,1c-0.1,0.3-0.2,0.7-0.2,1c0,0.3-0.1,0.6-0.1,0.9
			c0,0.3,0,0.6,0.1,0.8c0.1,0.2,0.2,0.4,0.3,0.6s0.3,0.3,0.6,0.4c0.2,0.1,0.5,0.1,0.9,0.1c0.4,0,0.8-0.1,1.1-0.2
			c0.3-0.2,0.6-0.4,0.8-0.6c0.2-0.3,0.4-0.6,0.6-0.9c0.2-0.3,0.3-0.7,0.4-1s0.2-0.7,0.2-1S62,11.9,62,11.7z"/>
		<path class="st5" d="M69.8,10.9c0,0,0,0.1,0,0.2s0,0.2,0,0.3c0,0.1,0,0.2-0.1,0.4s-0.1,0.2-0.1,0.3c0,0.1-0.1,0.2-0.1,0.3
			c0,0.1-0.1,0.1-0.1,0.1c0,0-0.1,0-0.1,0c0,0-0.1,0-0.1-0.1c-0.1,0-0.1,0-0.2-0.1c-0.1,0-0.1,0-0.2,0c-0.2,0-0.3,0.1-0.5,0.2
			c-0.2,0.1-0.4,0.3-0.5,0.5c-0.2,0.2-0.3,0.4-0.5,0.7s-0.2,0.6-0.3,0.9l-0.6,2.9c0,0,0,0.1-0.1,0.1c0,0-0.1,0.1-0.2,0.1
			s-0.2,0-0.3,0.1c-0.1,0-0.3,0-0.4,0c-0.2,0-0.3,0-0.4,0c-0.1,0-0.2,0-0.3-0.1c-0.1,0-0.1-0.1-0.1-0.1c0,0,0-0.1,0-0.1l1.3-6.4
			c0,0,0-0.1,0.1-0.1s0.1-0.1,0.1-0.1c0.1,0,0.1,0,0.3-0.1c0.1,0,0.2,0,0.4,0c0.1,0,0.3,0,0.4,0c0.1,0,0.2,0,0.2,0.1
			c0.1,0,0.1,0.1,0.1,0.1c0,0,0,0.1,0,0.1l-0.2,1c0.1-0.2,0.2-0.4,0.4-0.6c0.2-0.2,0.3-0.3,0.5-0.5c0.2-0.1,0.3-0.2,0.5-0.3
			s0.4-0.1,0.5-0.1c0.1,0,0.1,0,0.2,0s0.1,0,0.2,0c0.1,0,0.1,0,0.2,0.1c0.1,0,0.1,0,0.1,0.1C69.8,10.8,69.8,10.9,69.8,10.9z"/>
		<path class="st5" d="M75.6,17.5c0,0.1-0.1,0.2-0.2,0.2c-0.1,0-0.3,0.1-0.6,0.1c-0.1,0-0.3,0-0.4,0s-0.2,0-0.2,0
			c-0.1,0-0.1-0.1-0.1-0.1c0,0,0-0.1,0-0.1l0.2-1c-0.1,0.2-0.2,0.3-0.3,0.5c-0.2,0.2-0.3,0.3-0.6,0.5s-0.5,0.3-0.7,0.3
			c-0.3,0.1-0.5,0.1-0.8,0.1c-0.3,0-0.5,0-0.7-0.1c-0.2-0.1-0.4-0.2-0.5-0.3s-0.3-0.3-0.4-0.4c-0.1-0.2-0.2-0.3-0.2-0.5
			c-0.1-0.2-0.1-0.4-0.1-0.6c0-0.2,0-0.4,0-0.6c0-0.3,0-0.6,0.1-1c0.1-0.4,0.1-0.7,0.3-1.1c0.1-0.4,0.3-0.7,0.5-1s0.4-0.6,0.7-0.9
			c0.3-0.2,0.6-0.4,0.9-0.6s0.7-0.2,1.1-0.2c0.2,0,0.4,0,0.5,0.1c0.2,0,0.3,0.1,0.5,0.2c0.1,0.1,0.3,0.2,0.4,0.2s0.2,0.2,0.3,0.3
			L75.7,8c0,0,0-0.1,0.1-0.1s0.1-0.1,0.2-0.1c0.1,0,0.2,0,0.3-0.1c0.1,0,0.3,0,0.4,0s0.3,0,0.4,0c0.1,0,0.2,0,0.3,0.1
			s0.1,0.1,0.1,0.1c0,0,0,0.1,0,0.1L75.6,17.5z M74.7,12.9c-0.2-0.3-0.4-0.5-0.6-0.6c-0.2-0.1-0.4-0.2-0.7-0.2c-0.2,0-0.4,0-0.5,0.1
			c-0.2,0.1-0.3,0.2-0.4,0.4s-0.2,0.3-0.3,0.5c-0.1,0.2-0.2,0.4-0.2,0.7c-0.1,0.2-0.1,0.5-0.1,0.7s-0.1,0.4-0.1,0.7
			c0,0.4,0.1,0.6,0.2,0.8s0.3,0.3,0.6,0.3c0.2,0,0.4-0.1,0.6-0.2c0.2-0.1,0.4-0.3,0.6-0.5c0.2-0.2,0.4-0.5,0.5-0.8
			c0.1-0.3,0.3-0.6,0.3-0.9L74.7,12.9z"/>
		<path class="st5" d="M84.1,12.4c0,0.3-0.1,0.7-0.2,0.9s-0.4,0.5-0.7,0.7c-0.3,0.2-0.7,0.4-1.3,0.5c-0.5,0.1-1.1,0.2-1.8,0.2h-0.7
			c0,0.1,0,0.2,0,0.3c0,0.1,0,0.2,0,0.3c0,0.4,0.1,0.7,0.3,0.9c0.2,0.2,0.5,0.3,1,0.3c0.3,0,0.6,0,0.9-0.1c0.3,0,0.5-0.1,0.7-0.2
			c0.2-0.1,0.3-0.1,0.5-0.2c0.1,0,0.2-0.1,0.3-0.1s0.1,0,0.1,0.1c0,0,0,0.1,0,0.2c0,0.1,0,0.2,0,0.3c0,0.1,0,0.2-0.1,0.3
			s-0.1,0.2-0.1,0.3s-0.1,0.2-0.1,0.2c-0.1,0.1-0.2,0.1-0.3,0.2s-0.3,0.1-0.6,0.2s-0.5,0.1-0.7,0.1c-0.3,0-0.5,0-0.8,0
			c-0.5,0-0.9,0-1.2-0.1c-0.3-0.1-0.6-0.2-0.9-0.4c-0.2-0.2-0.4-0.4-0.5-0.8s-0.2-0.7-0.2-1.1c0-0.3,0-0.7,0.1-1
			c0.1-0.4,0.2-0.7,0.3-1.1c0.1-0.4,0.3-0.7,0.5-1c0.2-0.3,0.5-0.6,0.8-0.9s0.6-0.4,1-0.6s0.8-0.2,1.3-0.2c0.4,0,0.8,0.1,1.1,0.2
			c0.3,0.1,0.6,0.2,0.8,0.4c0.2,0.2,0.4,0.4,0.5,0.6S84.1,12.2,84.1,12.4z M82.3,12.6c0-0.2-0.1-0.4-0.2-0.5
			c-0.2-0.1-0.4-0.2-0.7-0.2c-0.2,0-0.5,0-0.6,0.1c-0.2,0.1-0.4,0.2-0.5,0.3c-0.1,0.1-0.3,0.3-0.4,0.5c-0.1,0.2-0.2,0.4-0.2,0.6h0.6
			c0.4,0,0.7,0,1-0.1c0.3-0.1,0.5-0.1,0.6-0.2c0.2-0.1,0.3-0.2,0.3-0.3S82.3,12.7,82.3,12.6z"/>
		<path class="st5" d="M90,10.9c0,0,0,0.1,0,0.2s0,0.2,0,0.3c0,0.1,0,0.2-0.1,0.4s-0.1,0.2-0.1,0.3c0,0.1-0.1,0.2-0.1,0.3
			c0,0.1-0.1,0.1-0.1,0.1c0,0-0.1,0-0.1,0c0,0-0.1,0-0.1-0.1c-0.1,0-0.1,0-0.2-0.1c-0.1,0-0.1,0-0.2,0c-0.2,0-0.3,0.1-0.5,0.2
			c-0.2,0.1-0.4,0.3-0.5,0.5c-0.2,0.2-0.3,0.4-0.5,0.7s-0.2,0.6-0.3,0.9l-0.6,2.9c0,0,0,0.1-0.1,0.1c0,0-0.1,0.1-0.2,0.1
			s-0.2,0-0.3,0.1c-0.1,0-0.3,0-0.4,0c-0.2,0-0.3,0-0.4,0c-0.1,0-0.2,0-0.3-0.1c-0.1,0-0.1-0.1-0.1-0.1c0,0,0-0.1,0-0.1L86,11
			c0,0,0-0.1,0.1-0.1s0.1-0.1,0.1-0.1c0.1,0,0.1,0,0.3-0.1c0.1,0,0.2,0,0.4,0c0.1,0,0.3,0,0.4,0c0.1,0,0.2,0,0.2,0.1
			c0.1,0,0.1,0.1,0.1,0.1c0,0,0,0.1,0,0.1l-0.2,1c0.1-0.2,0.2-0.4,0.4-0.6c0.2-0.2,0.3-0.3,0.5-0.5c0.2-0.1,0.3-0.2,0.5-0.3
			s0.4-0.1,0.5-0.1c0.1,0,0.1,0,0.2,0s0.1,0,0.2,0c0.1,0,0.1,0,0.2,0.1c0.1,0,0.1,0,0.1,0.1C90,10.8,90,10.9,90,10.9z"/>
		<path class="st5" d="M100.3,13.2c0,0.3,0,0.7-0.1,1.1c-0.1,0.4-0.2,0.7-0.3,1.1c-0.1,0.3-0.3,0.7-0.5,1c-0.2,0.3-0.5,0.6-0.8,0.8
			c-0.3,0.2-0.7,0.4-1,0.6c-0.4,0.1-0.8,0.2-1.3,0.2c-0.5,0-0.9-0.1-1.3-0.2c-0.4-0.1-0.6-0.3-0.9-0.5c-0.2-0.2-0.4-0.5-0.5-0.8
			c-0.1-0.3-0.2-0.7-0.2-1.1c0-0.3,0-0.7,0.1-1.1c0.1-0.4,0.2-0.7,0.3-1.1c0.1-0.3,0.3-0.7,0.5-1c0.2-0.3,0.5-0.6,0.8-0.8
			c0.3-0.2,0.7-0.4,1-0.5c0.4-0.1,0.8-0.2,1.3-0.2c0.5,0,0.9,0.1,1.3,0.2c0.4,0.1,0.6,0.3,0.9,0.5s0.4,0.5,0.5,0.8
			C100.2,12.4,100.3,12.8,100.3,13.2z M98.4,13.3c0-0.2,0-0.4-0.1-0.5s-0.1-0.3-0.2-0.4c-0.1-0.1-0.2-0.2-0.4-0.2
			c-0.1-0.1-0.3-0.1-0.5-0.1c-0.2,0-0.5,0-0.6,0.1s-0.4,0.2-0.5,0.4c-0.2,0.2-0.3,0.3-0.4,0.6s-0.2,0.4-0.3,0.7
			c-0.1,0.2-0.1,0.5-0.2,0.7c0,0.2,0,0.5,0,0.7c0,0.2,0,0.4,0.1,0.5c0,0.2,0.1,0.3,0.2,0.4c0.1,0.1,0.2,0.2,0.4,0.2s0.3,0.1,0.5,0.1
			c0.2,0,0.5,0,0.6-0.1c0.2-0.1,0.4-0.2,0.5-0.4c0.2-0.2,0.3-0.3,0.4-0.6c0.1-0.2,0.2-0.4,0.3-0.7c0.1-0.2,0.1-0.5,0.2-0.7
			C98.4,13.7,98.4,13.5,98.4,13.3z"/>
		<path class="st5" d="M107,17.5c0,0,0,0.1-0.1,0.1s-0.1,0.1-0.1,0.1c-0.1,0-0.1,0-0.2,0.1c-0.1,0-0.2,0-0.4,0c-0.1,0-0.3,0-0.4,0
			c-0.1,0-0.2,0-0.2-0.1c-0.1,0-0.1-0.1-0.1-0.1s0-0.1,0-0.1l0.2-1c-0.1,0.2-0.2,0.3-0.4,0.5c-0.2,0.2-0.4,0.3-0.6,0.5
			c-0.2,0.1-0.5,0.3-0.7,0.3c-0.3,0.1-0.5,0.1-0.8,0.1c-0.3,0-0.6,0-0.9-0.1s-0.4-0.2-0.6-0.4c-0.1-0.2-0.2-0.4-0.3-0.6
			s-0.1-0.5-0.1-0.7c0-0.2,0-0.3,0-0.5c0-0.2,0-0.3,0.1-0.5l0.8-4c0,0,0-0.1,0.1-0.1c0,0,0.1-0.1,0.2-0.1c0.1,0,0.2,0,0.3-0.1
			c0.1,0,0.3,0,0.4,0c0.2,0,0.3,0,0.4,0c0.1,0,0.2,0,0.3,0.1c0.1,0,0.1,0.1,0.1,0.1s0,0.1,0,0.1l-0.8,3.9c0,0.1,0,0.2-0.1,0.3
			c0,0.1,0,0.2,0,0.3c0,0.1,0,0.2,0,0.3s0.1,0.2,0.1,0.2s0.1,0.1,0.2,0.2c0.1,0,0.2,0.1,0.3,0.1c0.2,0,0.4-0.1,0.6-0.2
			s0.4-0.3,0.6-0.5c0.2-0.2,0.4-0.5,0.5-0.8s0.3-0.6,0.3-1l0.5-2.8c0,0,0-0.1,0.1-0.1c0,0,0.1-0.1,0.2-0.1c0.1,0,0.2,0,0.3-0.1
			c0.1,0,0.3,0,0.4,0c0.2,0,0.3,0,0.4,0c0.1,0,0.2,0,0.3,0.1c0.1,0,0.1,0.1,0.1,0.1c0,0,0,0.1,0,0.1L107,17.5z"/>
		<path class="st5" d="M114.1,10.9c0,0,0,0.1,0,0.2s0,0.2,0,0.3c0,0.1,0,0.2-0.1,0.4c0,0.1-0.1,0.2-0.1,0.3c0,0.1-0.1,0.2-0.1,0.3
			s-0.1,0.1-0.1,0.1c0,0-0.1,0-0.1,0c0,0-0.1,0-0.1-0.1c-0.1,0-0.1,0-0.2-0.1c-0.1,0-0.1,0-0.2,0c-0.2,0-0.3,0.1-0.5,0.2
			c-0.2,0.1-0.4,0.3-0.5,0.5c-0.2,0.2-0.3,0.4-0.5,0.7c-0.1,0.3-0.2,0.6-0.3,0.9l-0.6,2.9c0,0,0,0.1-0.1,0.1c0,0-0.1,0.1-0.2,0.1
			c-0.1,0-0.2,0-0.3,0.1c-0.1,0-0.3,0-0.4,0c-0.2,0-0.3,0-0.4,0c-0.1,0-0.2,0-0.3-0.1s-0.1-0.1-0.1-0.1c0,0,0-0.1,0-0.1l1.3-6.4
			c0,0,0-0.1,0.1-0.1c0,0,0.1-0.1,0.1-0.1c0.1,0,0.1,0,0.3-0.1c0.1,0,0.2,0,0.4,0c0.1,0,0.3,0,0.4,0c0.1,0,0.2,0,0.2,0.1
			c0.1,0,0.1,0.1,0.1,0.1s0,0.1,0,0.1l-0.2,1c0.1-0.2,0.2-0.4,0.4-0.6c0.2-0.2,0.3-0.3,0.5-0.5c0.2-0.1,0.3-0.2,0.5-0.3
			s0.4-0.1,0.5-0.1c0.1,0,0.1,0,0.2,0c0.1,0,0.1,0,0.2,0c0.1,0,0.1,0,0.2,0.1c0.1,0,0.1,0,0.1,0.1C114.1,10.8,114.1,10.9,114.1,10.9
			z"/>
		<path class="st5" d="M124.4,13.1c0,0.3,0,0.6-0.1,1c-0.1,0.4-0.1,0.7-0.3,1.1c-0.1,0.4-0.3,0.7-0.5,1c-0.2,0.3-0.4,0.6-0.7,0.9
			c-0.3,0.2-0.6,0.4-0.9,0.6s-0.7,0.2-1.1,0.2c-0.2,0-0.4,0-0.5-0.1c-0.2,0-0.3-0.1-0.5-0.2c-0.1-0.1-0.3-0.2-0.4-0.2
			s-0.2-0.2-0.3-0.3l-0.6,2.9c0,0,0,0.1-0.1,0.1c0,0-0.1,0.1-0.2,0.1s-0.2,0-0.3,0.1c-0.1,0-0.3,0-0.4,0s-0.3,0-0.4,0
			c-0.1,0-0.2,0-0.3-0.1c-0.1,0-0.1-0.1-0.1-0.1c0,0,0-0.1,0-0.1l1.8-9c0-0.1,0.1-0.2,0.2-0.2c0.1,0,0.3-0.1,0.6-0.1
			c0.1,0,0.3,0,0.4,0c0.1,0,0.2,0,0.2,0.1c0.1,0,0.1,0.1,0.1,0.1c0,0,0,0.1,0,0.1l-0.2,1c0.1-0.2,0.2-0.3,0.3-0.5
			c0.2-0.2,0.3-0.3,0.6-0.5s0.5-0.3,0.7-0.3s0.5-0.1,0.8-0.1c0.4,0,0.7,0.1,0.9,0.2c0.3,0.1,0.5,0.3,0.6,0.5s0.3,0.5,0.3,0.8
			C124.4,12.4,124.4,12.7,124.4,13.1z M122.5,13.2c0-0.2,0-0.3,0-0.4c0-0.1-0.1-0.2-0.1-0.3c-0.1-0.1-0.1-0.2-0.2-0.2
			c-0.1,0-0.2-0.1-0.3-0.1c-0.2,0-0.4,0.1-0.7,0.2c-0.2,0.1-0.4,0.3-0.6,0.5c-0.2,0.2-0.4,0.5-0.5,0.8c-0.1,0.3-0.3,0.6-0.3,0.9
			l-0.2,1c0.2,0.3,0.4,0.5,0.6,0.6c0.2,0.1,0.4,0.2,0.7,0.2c0.2,0,0.4,0,0.5-0.1c0.2-0.1,0.3-0.2,0.4-0.4s0.2-0.3,0.3-0.6
			s0.2-0.4,0.2-0.7c0.1-0.2,0.1-0.5,0.1-0.7C122.5,13.6,122.5,13.4,122.5,13.2z"/>
		<path class="st5" d="M130.4,10.9c0,0,0,0.1,0,0.2s0,0.2,0,0.3c0,0.1,0,0.2-0.1,0.4c0,0.1-0.1,0.2-0.1,0.3c0,0.1-0.1,0.2-0.1,0.3
			c0,0.1-0.1,0.1-0.1,0.1c0,0-0.1,0-0.1,0c0,0-0.1,0-0.1-0.1c-0.1,0-0.1,0-0.2-0.1c-0.1,0-0.1,0-0.2,0c-0.2,0-0.3,0.1-0.5,0.2
			s-0.4,0.3-0.5,0.5c-0.2,0.2-0.3,0.4-0.5,0.7c-0.1,0.3-0.2,0.6-0.3,0.9l-0.6,2.9c0,0,0,0.1-0.1,0.1c0,0-0.1,0.1-0.2,0.1
			c-0.1,0-0.2,0-0.3,0.1c-0.1,0-0.3,0-0.4,0c-0.2,0-0.3,0-0.4,0c-0.1,0-0.2,0-0.3-0.1c-0.1,0-0.1-0.1-0.1-0.1c0,0,0-0.1,0-0.1
			l1.3-6.4c0,0,0-0.1,0.1-0.1c0,0,0.1-0.1,0.1-0.1c0.1,0,0.1,0,0.3-0.1c0.1,0,0.2,0,0.4,0c0.1,0,0.3,0,0.4,0c0.1,0,0.2,0,0.2,0.1
			c0.1,0,0.1,0.1,0.1,0.1c0,0,0,0.1,0,0.1l-0.2,1c0.1-0.2,0.2-0.4,0.4-0.6c0.2-0.2,0.3-0.3,0.5-0.5c0.2-0.1,0.3-0.2,0.5-0.3
			s0.4-0.1,0.5-0.1c0.1,0,0.1,0,0.2,0c0.1,0,0.1,0,0.2,0c0.1,0,0.1,0,0.2,0.1c0,0,0.1,0,0.1,0.1C130.4,10.8,130.4,10.9,130.4,10.9z"
			/>
		<path class="st5" d="M137,12.4c0,0.3-0.1,0.7-0.2,0.9s-0.4,0.5-0.7,0.7c-0.3,0.2-0.7,0.4-1.3,0.5c-0.5,0.1-1.1,0.2-1.8,0.2h-0.7
			c0,0.1,0,0.2,0,0.3c0,0.1,0,0.2,0,0.3c0,0.4,0.1,0.7,0.3,0.9c0.2,0.2,0.5,0.3,1,0.3c0.3,0,0.6,0,0.9-0.1c0.3,0,0.5-0.1,0.7-0.2
			c0.2-0.1,0.3-0.1,0.5-0.2c0.1,0,0.2-0.1,0.3-0.1s0.1,0,0.1,0.1c0,0,0,0.1,0,0.2c0,0.1,0,0.2,0,0.3c0,0.1,0,0.2-0.1,0.3
			s-0.1,0.2-0.1,0.3s-0.1,0.2-0.1,0.2c-0.1,0.1-0.2,0.1-0.3,0.2c-0.2,0.1-0.3,0.1-0.6,0.2c-0.2,0-0.5,0.1-0.7,0.1
			c-0.3,0-0.5,0-0.8,0c-0.5,0-0.9,0-1.2-0.1c-0.3-0.1-0.6-0.2-0.9-0.4c-0.2-0.2-0.4-0.4-0.5-0.8s-0.2-0.7-0.2-1.1c0-0.3,0-0.7,0.1-1
			c0.1-0.4,0.2-0.7,0.3-1.1s0.3-0.7,0.5-1c0.2-0.3,0.5-0.6,0.8-0.9c0.3-0.2,0.6-0.4,1-0.6c0.4-0.1,0.8-0.2,1.3-0.2
			c0.4,0,0.8,0.1,1.1,0.2c0.3,0.1,0.6,0.2,0.8,0.4c0.2,0.2,0.4,0.4,0.5,0.6S137,12.2,137,12.4z M135.2,12.6c0-0.2-0.1-0.4-0.2-0.5
			c-0.2-0.1-0.4-0.2-0.7-0.2c-0.2,0-0.5,0-0.6,0.1s-0.4,0.2-0.5,0.3s-0.3,0.3-0.4,0.5c-0.1,0.2-0.2,0.4-0.2,0.6h0.6
			c0.4,0,0.7,0,1-0.1c0.3-0.1,0.5-0.1,0.6-0.2c0.2-0.1,0.3-0.2,0.3-0.3S135.2,12.7,135.2,12.6z"/>
		<path class="st5" d="M147.6,17.4c0,0,0,0.1-0.1,0.1c0,0-0.1,0.1-0.2,0.1c-0.1,0-0.2,0-0.3,0.1c-0.1,0-0.3,0-0.4,0
			c-0.2,0-0.3,0-0.4,0c-0.1,0-0.2,0-0.3-0.1s-0.1-0.1-0.1-0.1c0,0,0-0.1,0-0.1l0.8-3.9c0-0.1,0-0.2,0.1-0.3c0-0.1,0-0.2,0-0.3
			c0-0.2,0-0.4-0.1-0.5c-0.1-0.1-0.2-0.2-0.5-0.2c-0.2,0-0.4,0.1-0.6,0.2s-0.4,0.3-0.6,0.5c-0.2,0.2-0.4,0.5-0.5,0.8
			c-0.1,0.3-0.3,0.6-0.3,0.9l-0.6,2.9c0,0,0,0.1-0.1,0.1c0,0-0.1,0.1-0.2,0.1s-0.2,0-0.3,0.1c-0.1,0-0.3,0-0.4,0c-0.2,0-0.3,0-0.4,0
			c-0.1,0-0.2,0-0.3-0.1s-0.1-0.1-0.1-0.1c0,0,0-0.1,0-0.1l0.8-3.9c0-0.1,0-0.2,0.1-0.3s0-0.2,0-0.3c0-0.2,0-0.4-0.1-0.5
			c-0.1-0.1-0.2-0.2-0.4-0.2c-0.2,0-0.4,0.1-0.6,0.2c-0.2,0.1-0.4,0.3-0.6,0.5c-0.2,0.2-0.4,0.5-0.5,0.8c-0.1,0.3-0.3,0.6-0.3,0.9
			l-0.6,2.9c0,0,0,0.1-0.1,0.1c0,0-0.1,0.1-0.2,0.1c-0.1,0-0.2,0-0.3,0.1c-0.1,0-0.3,0-0.4,0c-0.2,0-0.3,0-0.4,0
			c-0.1,0-0.2,0-0.3-0.1s-0.1-0.1-0.1-0.1c0,0,0-0.1,0-0.1l1.3-6.4c0,0,0-0.1,0.1-0.1s0.1-0.1,0.1-0.1c0.1,0,0.1,0,0.3-0.1
			c0.1,0,0.2,0,0.4,0c0.1,0,0.3,0,0.4,0c0.1,0,0.2,0,0.2,0.1c0.1,0,0.1,0.1,0.1,0.1s0,0.1,0,0.1l-0.2,1.1c0.1-0.2,0.2-0.3,0.4-0.5
			c0.2-0.2,0.4-0.3,0.6-0.5c0.2-0.1,0.4-0.3,0.7-0.3s0.5-0.1,0.8-0.1c0.3,0,0.5,0,0.7,0.1c0.2,0.1,0.4,0.2,0.5,0.3
			c0.1,0.1,0.2,0.3,0.3,0.5c0.1,0.2,0.1,0.4,0.1,0.6c0.1-0.2,0.3-0.3,0.4-0.5c0.2-0.2,0.4-0.3,0.6-0.5c0.2-0.1,0.4-0.3,0.7-0.3
			c0.2-0.1,0.5-0.1,0.8-0.1c0.3,0,0.6,0,0.8,0.1c0.2,0.1,0.4,0.2,0.6,0.4c0.1,0.2,0.2,0.4,0.3,0.6c0.1,0.2,0.1,0.5,0.1,0.7
			c0,0.2,0,0.3,0,0.5c0,0.2,0,0.3-0.1,0.5L147.6,17.4z"/>
		<path class="st5" d="M151.2,17.4c0,0,0,0.1-0.1,0.1c0,0-0.1,0.1-0.2,0.1c-0.1,0-0.2,0-0.3,0.1c-0.1,0-0.3,0-0.4,0
			c-0.2,0-0.3,0-0.4,0c-0.1,0-0.2,0-0.3-0.1c-0.1,0-0.1-0.1-0.1-0.1c0,0,0-0.1,0-0.1l1.3-6.4c0,0,0-0.1,0.1-0.1s0.1-0.1,0.2-0.1
			s0.2,0,0.3-0.1c0.1,0,0.3,0,0.4,0s0.3,0,0.4,0c0.1,0,0.2,0,0.3,0.1c0.1,0,0.1,0.1,0.1,0.1s0,0.1,0,0.1L151.2,17.4z M153.1,8.9
			c0,0.2-0.1,0.3-0.1,0.5s-0.1,0.2-0.2,0.3c-0.1,0.1-0.2,0.1-0.4,0.2c-0.1,0-0.3,0-0.5,0c-0.2,0-0.4,0-0.5,0c-0.1,0-0.2-0.1-0.3-0.2
			C151,9.5,151,9.4,151,9.3s0-0.3,0-0.5c0-0.2,0.1-0.3,0.1-0.4s0.1-0.2,0.2-0.3c0.1-0.1,0.2-0.1,0.4-0.2s0.3-0.1,0.5-0.1
			c0.2,0,0.4,0,0.5,0.1c0.1,0,0.2,0.1,0.3,0.2c0.1,0.1,0.1,0.2,0.1,0.3C153.1,8.5,153.1,8.7,153.1,8.9z"/>
		<path class="st5" d="M159,17.5c0,0,0,0.1-0.1,0.1s-0.1,0.1-0.1,0.1c-0.1,0-0.1,0-0.2,0.1c-0.1,0-0.2,0-0.4,0c-0.1,0-0.3,0-0.4,0
			c-0.1,0-0.2,0-0.2-0.1c-0.1,0-0.1-0.1-0.1-0.1s0-0.1,0-0.1l0.2-1c-0.1,0.2-0.2,0.3-0.4,0.5c-0.2,0.2-0.4,0.3-0.6,0.5
			c-0.2,0.1-0.5,0.3-0.7,0.3c-0.3,0.1-0.5,0.1-0.8,0.1c-0.3,0-0.6,0-0.9-0.1s-0.4-0.2-0.6-0.4c-0.1-0.2-0.2-0.4-0.3-0.6
			s-0.1-0.5-0.1-0.7c0-0.2,0-0.3,0-0.5c0-0.2,0-0.3,0.1-0.5l0.8-4c0,0,0-0.1,0.1-0.1c0,0,0.1-0.1,0.2-0.1c0.1,0,0.2,0,0.3-0.1
			c0.1,0,0.3,0,0.4,0c0.2,0,0.3,0,0.4,0c0.1,0,0.2,0,0.3,0.1c0.1,0,0.1,0.1,0.1,0.1s0,0.1,0,0.1l-0.8,3.9c0,0.1,0,0.2-0.1,0.3
			c0,0.1,0,0.2,0,0.3c0,0.1,0,0.2,0,0.3s0.1,0.2,0.1,0.2s0.1,0.1,0.2,0.2c0.1,0,0.2,0.1,0.3,0.1c0.2,0,0.4-0.1,0.6-0.2
			s0.4-0.3,0.6-0.5c0.2-0.2,0.4-0.5,0.5-0.8s0.3-0.6,0.3-1l0.5-2.8c0,0,0-0.1,0.1-0.1c0,0,0.1-0.1,0.2-0.1c0.1,0,0.2,0,0.3-0.1
			c0.1,0,0.3,0,0.4,0c0.2,0,0.3,0,0.4,0c0.1,0,0.2,0,0.3,0.1c0.1,0,0.1,0.1,0.1,0.1c0,0,0,0.1,0,0.1L159,17.5z"/>
		<path class="st5" d="M170.9,17.4c0,0,0,0.1-0.1,0.1c0,0-0.1,0.1-0.2,0.1c-0.1,0-0.2,0-0.3,0.1c-0.1,0-0.3,0-0.4,0
			c-0.2,0-0.3,0-0.4,0c-0.1,0-0.2,0-0.3-0.1s-0.1-0.1-0.1-0.1c0,0,0-0.1,0-0.1l0.8-3.9c0-0.1,0-0.2,0.1-0.3c0-0.1,0-0.2,0-0.3
			c0-0.2,0-0.4-0.1-0.5c-0.1-0.1-0.2-0.2-0.5-0.2c-0.2,0-0.4,0.1-0.6,0.2s-0.4,0.3-0.6,0.5c-0.2,0.2-0.4,0.5-0.5,0.8
			c-0.1,0.3-0.3,0.6-0.3,0.9l-0.6,2.9c0,0,0,0.1-0.1,0.1c0,0-0.1,0.1-0.2,0.1s-0.2,0-0.3,0.1c-0.1,0-0.3,0-0.4,0c-0.2,0-0.3,0-0.4,0
			c-0.1,0-0.2,0-0.3-0.1s-0.1-0.1-0.1-0.1c0,0,0-0.1,0-0.1l0.8-3.9c0-0.1,0-0.2,0.1-0.3s0-0.2,0-0.3c0-0.2,0-0.4-0.1-0.5
			c-0.1-0.1-0.2-0.2-0.4-0.2c-0.2,0-0.4,0.1-0.6,0.2c-0.2,0.1-0.4,0.3-0.6,0.5c-0.2,0.2-0.4,0.5-0.5,0.8c-0.1,0.3-0.3,0.6-0.3,0.9
			l-0.6,2.9c0,0,0,0.1-0.1,0.1c0,0-0.1,0.1-0.2,0.1c-0.1,0-0.2,0-0.3,0.1c-0.1,0-0.3,0-0.4,0c-0.2,0-0.3,0-0.4,0
			c-0.1,0-0.2,0-0.3-0.1s-0.1-0.1-0.1-0.1c0,0,0-0.1,0-0.1l1.3-6.4c0,0,0-0.1,0.1-0.1s0.1-0.1,0.1-0.1c0.1,0,0.1,0,0.3-0.1
			c0.1,0,0.2,0,0.4,0c0.1,0,0.3,0,0.4,0c0.1,0,0.2,0,0.2,0.1c0.1,0,0.1,0.1,0.1,0.1s0,0.1,0,0.1l-0.2,1.1c0.1-0.2,0.2-0.3,0.4-0.5
			c0.2-0.2,0.4-0.3,0.6-0.5c0.2-0.1,0.4-0.3,0.7-0.3s0.5-0.1,0.8-0.1c0.3,0,0.5,0,0.7,0.1c0.2,0.1,0.4,0.2,0.5,0.3
			c0.1,0.1,0.2,0.3,0.3,0.5c0.1,0.2,0.1,0.4,0.1,0.6c0.1-0.2,0.3-0.3,0.4-0.5c0.2-0.2,0.4-0.3,0.6-0.5c0.2-0.1,0.4-0.3,0.7-0.3
			c0.2-0.1,0.5-0.1,0.8-0.1c0.3,0,0.6,0,0.8,0.1c0.2,0.1,0.4,0.2,0.6,0.4c0.1,0.2,0.2,0.4,0.3,0.6c0.1,0.2,0.1,0.5,0.1,0.7
			c0,0.2,0,0.3,0,0.5c0,0.2,0,0.3-0.1,0.5L170.9,17.4z"/>
	</g>
	<g>
		<path class="st5" d="M40.1,36.7h-8.9V12.5h8.9V36.7z M32.7,35.2h5.9V14h-5.9V35.2z"/>
	</g>
	<g>
		<path class="st5" d="M32.7,36.7H18.4c-0.4,0-0.8-0.3-0.8-0.8s0.3-0.8,0.8-0.8h12.8V14h-12v0.7c0,0.4-0.3,0.8-0.8,0.8
			s-0.8-0.3-0.8-0.8v-2.2h15V36.7z"/>
	</g>
	<g>
		<path class="st5" d="M40.1,13.3l-1.5-0.1l0.7,0l-0.7,0c0-0.2,0.2-4-3.5-7.1l1-1.1C40.3,8.6,40.1,13.1,40.1,13.3z"/>
	</g>
	<g>
		<path class="st5" d="M31.2,13.3c0-0.2-0.2-4.7,4-8.4l1,1.1c-3.6,3.1-3.5,7-3.5,7.1L31.2,13.3z"/>
	</g>
	<g>
		<path class="st5" d="M17.7,13.3c0-0.2-0.2-4.7,4-8.4l1,1.1c-3.6,3.1-3.5,7.1-3.5,7.1L17.7,13.3z"/>
	</g>
	<g>
		<rect x="22.1" y="3.9" class="st5" width="13.5" height="1.6"/>
		<path class="st5" d="M36.4,6.2h-15V3.1h15V6.2z M22.9,4.7h12V4.6h-12V4.7z"/>
	</g>
	<g>
		<g>
			<path class="st5" d="M11.7,27.4c1.7-2.3,3.5-5,6.4-7.2c1.2-0.9,3-1.6,4.4-2.1c-3.1-2.2-8.2-1.8-12.4,1.4c-4.9,3.7-6.7,9.6-4,13.2
				c0.1,0.2,0.3,0.3,0.4,0.4C8.7,31.7,10.1,29.7,11.7,27.4z"/>
		</g>
		<g>
			<path class="st5" d="M24.2,19.9c-1.5,0.5-3.6,1.2-4.8,2.1c-2.6,2-4.3,4.4-6,6.7c-1.5,2.2-3,4.3-5.2,5.9c3.1,1.6,7.7,1,11.6-1.9
				C24.7,29.2,26.5,23.6,24.2,19.9z"/>
		</g>
	</g>
</g>
<g id="Layer_3_00000112600111943275624440000013071690692453770130_" class="st0">
	<g class="st1">
		<path class="st5" d="M52.7,22.2c0,0.1,0,0.1,0,0.3c0,0.1,0,0.2-0.1,0.4c0,0.1-0.1,0.3-0.1,0.4c0,0.2-0.1,0.3-0.1,0.4
			s-0.1,0.2-0.2,0.3s-0.2,0.1-0.3,0.1h-3.7l-2.3,11.8c0,0.1-0.1,0.1-0.1,0.2c-0.1,0.1-0.2,0.1-0.3,0.1c-0.1,0-0.3,0.1-0.5,0.1
			c-0.2,0-0.4,0-0.7,0c-0.3,0-0.5,0-0.7,0c-0.2,0-0.3-0.1-0.4-0.1c-0.1,0-0.2-0.1-0.2-0.1s0-0.1,0-0.2l2.3-11.8h-3.6
			c-0.1,0-0.2,0-0.2-0.1c0-0.1-0.1-0.2-0.1-0.3c0-0.1,0-0.1,0-0.3c0-0.1,0-0.2,0.1-0.4s0.1-0.3,0.1-0.5s0.1-0.3,0.2-0.4
			s0.1-0.2,0.2-0.3c0.1-0.1,0.2-0.1,0.2-0.1h10.3c0.1,0,0.2,0,0.2,0.1C52.7,21.9,52.7,22,52.7,22.2z"/>
		<path class="st5" d="M59.2,35.9c0,0.2-0.1,0.3-0.4,0.3c-0.2,0.1-0.5,0.1-1,0.1c-0.2,0-0.4,0-0.6,0c-0.1,0-0.3,0-0.4-0.1
			s-0.1-0.1-0.2-0.1c0-0.1,0-0.1,0-0.2l0.3-1.6c-0.1,0.2-0.3,0.5-0.5,0.8c-0.2,0.3-0.5,0.5-0.9,0.7c-0.3,0.2-0.7,0.4-1.1,0.5
			s-0.8,0.2-1.3,0.2c-0.6,0-1.1-0.1-1.5-0.3c-0.4-0.2-0.7-0.5-1-0.9c-0.2-0.4-0.4-0.8-0.5-1.2c-0.1-0.5-0.2-0.9-0.2-1.4
			c0-0.5,0-1,0.1-1.6c0.1-0.6,0.2-1.1,0.4-1.7c0.2-0.6,0.4-1.1,0.7-1.6c0.3-0.5,0.6-1,1.1-1.4c0.4-0.4,0.9-0.7,1.4-1
			s1.1-0.4,1.8-0.4c0.6,0,1.2,0.1,1.7,0.4c0.5,0.3,0.9,0.6,1.3,1.1l0.2-0.9c0-0.2,0.1-0.3,0.4-0.3c0.2-0.1,0.5-0.1,1-0.1
			c0.2,0,0.4,0,0.6,0c0.2,0,0.3,0,0.4,0.1c0.1,0,0.1,0.1,0.2,0.1s0,0.1,0,0.2L59.2,35.9z M57.8,28.9c-0.3-0.4-0.6-0.7-0.9-0.9
			c-0.3-0.2-0.7-0.3-1.1-0.3c-0.3,0-0.6,0.1-0.9,0.2c-0.3,0.2-0.5,0.4-0.7,0.6s-0.4,0.5-0.5,0.9c-0.2,0.3-0.3,0.7-0.4,1
			s-0.2,0.7-0.2,1.1c0,0.4-0.1,0.7-0.1,1c0,0.2,0,0.4,0.1,0.6s0.1,0.4,0.2,0.5c0.1,0.2,0.2,0.3,0.4,0.4c0.2,0.1,0.3,0.1,0.6,0.1
			c0.3,0,0.7-0.1,1-0.3c0.3-0.2,0.7-0.5,1-0.8c0.3-0.3,0.6-0.7,0.8-1.2c0.2-0.5,0.4-0.9,0.5-1.5L57.8,28.9z"/>
		<path class="st5" d="M70.3,26.3c0,0.1,0,0.2,0,0.4s-0.1,0.4-0.1,0.5s-0.1,0.3-0.2,0.5c-0.1,0.1-0.2,0.2-0.2,0.2
			c-0.1,0-0.2,0-0.3-0.1c-0.1-0.1-0.3-0.1-0.5-0.2c-0.2-0.1-0.4-0.2-0.7-0.2s-0.5-0.1-0.9-0.1c-0.3,0-0.5,0-0.7,0.1
			c-0.2,0.1-0.4,0.2-0.5,0.3c-0.1,0.1-0.2,0.3-0.3,0.4c-0.1,0.2-0.1,0.3-0.1,0.5c0,0.2,0.1,0.4,0.3,0.6c0.2,0.2,0.4,0.3,0.7,0.4
			c0.3,0.1,0.6,0.3,0.9,0.4s0.6,0.3,0.9,0.6s0.5,0.5,0.7,0.8c0.2,0.3,0.3,0.7,0.3,1.2c0,0.6-0.1,1.1-0.3,1.6c-0.2,0.5-0.5,0.9-1,1.3
			c-0.4,0.4-0.9,0.6-1.5,0.8s-1.3,0.3-2,0.3c-0.4,0-0.7,0-1-0.1c-0.3-0.1-0.6-0.1-0.9-0.2s-0.5-0.2-0.7-0.3s-0.3-0.2-0.4-0.3
			c-0.1-0.1-0.1-0.1-0.1-0.2c0-0.1,0-0.2,0-0.3c0-0.1,0-0.2,0-0.3c0-0.1,0-0.2,0.1-0.3s0.1-0.3,0.1-0.4c0-0.1,0.1-0.2,0.1-0.3
			s0.1-0.2,0.1-0.3c0.1-0.1,0.1-0.1,0.2-0.1c0.1,0,0.2,0,0.3,0.1c0.1,0.1,0.3,0.2,0.5,0.3c0.2,0.1,0.5,0.2,0.8,0.3
			c0.3,0.1,0.7,0.1,1.1,0.1c0.3,0,0.6,0,0.8-0.1s0.4-0.2,0.6-0.3s0.3-0.3,0.3-0.4c0.1-0.2,0.1-0.3,0.1-0.5c0-0.3-0.1-0.5-0.3-0.6
			S66,32.2,65.8,32c-0.3-0.1-0.6-0.3-0.9-0.4s-0.6-0.3-0.9-0.6c-0.3-0.2-0.5-0.5-0.7-0.8C63.1,29.9,63,29.5,63,29
			c0-0.5,0.1-1,0.3-1.5s0.5-0.9,0.9-1.2c0.4-0.3,0.9-0.6,1.4-0.8c0.6-0.2,1.2-0.3,1.9-0.3c0.3,0,0.6,0,0.9,0.1
			c0.3,0,0.6,0.1,0.8,0.2c0.2,0.1,0.4,0.1,0.6,0.2s0.3,0.2,0.4,0.2C70.3,26,70.3,26.1,70.3,26.3z"/>
		<path class="st5" d="M81.5,35.9c0,0.1-0.1,0.1-0.1,0.2c-0.1,0.1-0.1,0.1-0.3,0.1c-0.1,0-0.3,0.1-0.5,0.1c-0.2,0-0.4,0-0.7,0
			c-0.3,0-0.5,0-0.7,0c-0.2,0-0.3,0-0.4-0.1c-0.1,0-0.2-0.1-0.2-0.1c0-0.1,0-0.1,0-0.2l1.6-8.1h-4.5l-0.9,4.7c0,0.1,0,0.2-0.1,0.4
			c0,0.2,0,0.3,0,0.4c0,0.3,0.1,0.5,0.2,0.7c0.1,0.1,0.4,0.2,0.7,0.2c0.2,0,0.3,0,0.5,0s0.2-0.1,0.3-0.1c0.1,0,0.2-0.1,0.2-0.1
			s0.1,0,0.2,0c0.1,0,0.1,0,0.2,0.1c0,0.1,0.1,0.1,0.1,0.3c0,0.1,0,0.3,0,0.5c0,0.2-0.1,0.4-0.1,0.5c0,0.2-0.1,0.3-0.2,0.5
			c-0.1,0.1-0.1,0.2-0.2,0.3c-0.1,0.1-0.2,0.1-0.3,0.2c-0.1,0.1-0.3,0.1-0.5,0.2c-0.2,0-0.4,0.1-0.6,0.1c-0.2,0-0.4,0-0.6,0
			c-0.5,0-0.8,0-1.2-0.1c-0.3-0.1-0.6-0.2-0.9-0.4s-0.4-0.5-0.5-0.8c-0.1-0.3-0.2-0.7-0.2-1.2c0-0.1,0-0.2,0-0.3c0-0.1,0-0.2,0-0.3
			s0-0.2,0.1-0.4c0-0.1,0-0.2,0.1-0.3l1-4.9h-1.2c-0.1,0-0.2,0-0.2-0.1c0-0.1-0.1-0.2-0.1-0.4c0-0.1,0-0.3,0-0.5
			c0-0.2,0.1-0.4,0.1-0.6s0.1-0.4,0.2-0.5c0.1-0.1,0.2-0.2,0.3-0.2h1.2l0.5-2.2c0-0.1,0.1-0.1,0.1-0.2c0.1-0.1,0.1-0.1,0.3-0.2
			c0.1,0,0.3-0.1,0.5-0.1s0.4,0,0.7,0c0.3,0,0.5,0,0.7,0c0.2,0,0.3,0,0.4,0.1c0.1,0,0.2,0.1,0.2,0.2c0,0.1,0,0.1,0,0.2l-0.5,2.2h6.5
			c0.3,0,0.5,0.1,0.6,0.2c0.1,0.1,0.1,0.3,0.1,0.6L81.5,35.9z M84.4,22.5c-0.1,0.3-0.1,0.5-0.2,0.7c-0.1,0.2-0.2,0.3-0.4,0.5
			c-0.1,0.1-0.3,0.2-0.6,0.2c-0.2,0-0.5,0.1-0.8,0.1c-0.3,0-0.6,0-0.8-0.1s-0.3-0.1-0.5-0.2c-0.1-0.1-0.2-0.3-0.2-0.5
			c0-0.2,0-0.4,0.1-0.7c0.1-0.3,0.1-0.5,0.2-0.7c0.1-0.2,0.2-0.3,0.4-0.5c0.2-0.1,0.3-0.2,0.6-0.3c0.2-0.1,0.5-0.1,0.8-0.1
			c0.3,0,0.6,0,0.8,0.1c0.2,0.1,0.3,0.1,0.5,0.3c0.1,0.1,0.2,0.3,0.2,0.5C84.5,22,84.5,22.2,84.4,22.5z"/>
		<path class="st5" d="M95.2,28.1c0,0.3,0,0.5-0.1,0.8c0,0.3-0.1,0.5-0.1,0.8l-1.3,6.2c0,0.1,0,0.1-0.1,0.2s-0.1,0.1-0.3,0.1
			c-0.1,0-0.3,0.1-0.5,0.1s-0.4,0-0.7,0c-0.3,0-0.5,0-0.7,0s-0.3,0-0.4-0.1c-0.1,0-0.2-0.1-0.2-0.1s0-0.1,0-0.2l1.2-6
			c0-0.2,0.1-0.4,0.1-0.6c0-0.2,0-0.4,0-0.5c0-0.3-0.1-0.6-0.2-0.8c-0.1-0.2-0.4-0.3-0.7-0.3c-0.3,0-0.6,0.1-1,0.3
			c-0.3,0.2-0.7,0.5-0.9,0.8c-0.3,0.3-0.6,0.7-0.8,1.2s-0.4,0.9-0.5,1.4l-0.9,4.6c0,0.1-0.1,0.1-0.1,0.2c-0.1,0.1-0.1,0.1-0.3,0.1
			c-0.1,0-0.3,0.1-0.5,0.1c-0.2,0-0.4,0-0.7,0c-0.3,0-0.5,0-0.7,0s-0.3,0-0.4-0.1c-0.1,0-0.2-0.1-0.2-0.1s0-0.1,0-0.2l2-10.1
			c0-0.1,0-0.1,0.1-0.2s0.1-0.1,0.2-0.1c0.1,0,0.2-0.1,0.4-0.1c0.2,0,0.4,0,0.6,0c0.2,0,0.4,0,0.6,0c0.1,0,0.3,0,0.3,0.1
			c0.1,0,0.1,0.1,0.2,0.1s0,0.1,0,0.2l-0.3,1.7c0.2-0.3,0.4-0.5,0.6-0.8c0.3-0.3,0.6-0.5,0.9-0.7c0.3-0.2,0.7-0.4,1.1-0.5
			c0.4-0.1,0.8-0.2,1.3-0.2c0.5,0,1,0.1,1.3,0.2s0.6,0.4,0.9,0.6c0.2,0.3,0.4,0.6,0.5,0.9S95.2,27.7,95.2,28.1z"/>
		<path class="st5" d="M105.8,36.3c-0.1,0.7-0.3,1.3-0.6,1.8c-0.3,0.5-0.7,0.9-1.1,1.3c-0.5,0.3-1,0.6-1.7,0.8
			c-0.7,0.2-1.4,0.3-2.3,0.3c-0.6,0-1.2-0.1-1.7-0.2c-0.5-0.1-0.9-0.2-1.3-0.4c-0.1-0.1-0.2-0.1-0.2-0.2c0-0.1-0.1-0.2-0.1-0.3
			c0,0,0-0.1,0-0.2c0-0.1,0-0.2,0.1-0.3s0.1-0.3,0.1-0.4c0-0.1,0.1-0.3,0.1-0.4c0.1-0.1,0.1-0.2,0.2-0.3c0.1-0.1,0.1-0.1,0.2-0.1
			s0.2,0,0.3,0.1c0.1,0.1,0.3,0.1,0.5,0.2c0.2,0.1,0.5,0.1,0.8,0.2c0.3,0.1,0.7,0.1,1.2,0.1c0.4,0,0.7,0,1-0.1s0.6-0.2,0.8-0.3
			c0.2-0.1,0.4-0.3,0.5-0.5c0.1-0.2,0.2-0.5,0.3-0.8c0.1-0.5,0.2-0.9,0.3-1.2c0.1-0.3,0.2-0.6,0.3-0.8c-0.1,0.2-0.3,0.5-0.6,0.7
			c-0.3,0.2-0.5,0.5-0.9,0.7c-0.3,0.2-0.7,0.4-1,0.5c-0.4,0.1-0.7,0.2-1.1,0.2c-0.6,0-1.1-0.1-1.5-0.3s-0.7-0.5-1-0.8
			c-0.2-0.3-0.4-0.8-0.5-1.2c-0.1-0.5-0.2-1-0.2-1.5c0-0.5,0-1,0.1-1.6c0.1-0.6,0.2-1.1,0.4-1.7s0.4-1.1,0.7-1.6
			c0.3-0.5,0.6-1,1.1-1.4c0.4-0.4,0.9-0.7,1.4-0.9c0.5-0.2,1.1-0.3,1.8-0.3c0.6,0,1.2,0.1,1.7,0.4c0.5,0.3,0.9,0.6,1.3,1.1l0.2-0.9
			c0-0.2,0.1-0.3,0.4-0.3c0.2-0.1,0.5-0.1,1-0.1c0.2,0,0.4,0,0.6,0c0.2,0,0.3,0,0.4,0.1c0.1,0,0.1,0.1,0.2,0.1s0,0.1,0,0.2
			L105.8,36.3z M104.5,28.9c-0.3-0.4-0.6-0.7-0.9-0.9c-0.3-0.2-0.7-0.3-1.1-0.3c-0.3,0-0.6,0.1-0.9,0.2c-0.3,0.2-0.5,0.4-0.7,0.6
			c-0.2,0.3-0.4,0.5-0.5,0.9c-0.2,0.3-0.3,0.7-0.4,1c-0.1,0.4-0.2,0.7-0.2,1.1c0,0.4-0.1,0.7-0.1,1c0,0.3,0,0.5,0.1,0.7
			c0,0.2,0.1,0.4,0.2,0.5s0.2,0.3,0.4,0.3c0.1,0.1,0.3,0.1,0.5,0.1c0.3,0,0.7-0.1,1-0.3c0.3-0.2,0.7-0.5,1-0.8
			c0.3-0.3,0.6-0.7,0.8-1.2c0.2-0.5,0.4-0.9,0.5-1.5L104.5,28.9z"/>
		<path class="st5" d="M126.5,23.1c0,0.2,0,0.5-0.1,0.8s-0.2,0.6-0.3,0.9s-0.2,0.3-0.4,0.3c-0.1,0-0.2-0.1-0.4-0.2
			c-0.1-0.1-0.3-0.3-0.5-0.4c-0.2-0.1-0.5-0.3-0.8-0.4c-0.3-0.1-0.8-0.2-1.3-0.2c-0.6,0-1.1,0.1-1.5,0.3c-0.5,0.2-0.9,0.5-1.2,0.9
			c-0.4,0.4-0.7,0.8-0.9,1.3c-0.3,0.5-0.5,1-0.7,1.5s-0.3,1-0.4,1.5c-0.1,0.5-0.1,1-0.1,1.4c0,0.5,0.1,1,0.2,1.4
			c0.1,0.4,0.3,0.7,0.6,1c0.2,0.3,0.6,0.5,0.9,0.6c0.4,0.1,0.8,0.2,1.2,0.2c0.5,0,1-0.1,1.4-0.2c0.4-0.1,0.7-0.2,1-0.4
			c0.3-0.1,0.5-0.3,0.7-0.4c0.2-0.1,0.3-0.2,0.5-0.2c0.1,0,0.2,0,0.2,0.1c0,0.1,0.1,0.2,0.1,0.3c0,0.1,0,0.1,0,0.2
			c0,0.1,0,0.2-0.1,0.4s0,0.3-0.1,0.4s-0.1,0.3-0.1,0.4c0,0.1-0.1,0.3-0.1,0.4c0,0.1-0.1,0.2-0.2,0.3s-0.2,0.2-0.5,0.3
			c-0.2,0.1-0.5,0.3-0.9,0.4c-0.3,0.1-0.7,0.2-1.2,0.3c-0.4,0.1-0.9,0.1-1.4,0.1c-0.8,0-1.6-0.1-2.2-0.3c-0.7-0.2-1.2-0.5-1.7-1
			s-0.8-1-1.1-1.7c-0.2-0.7-0.4-1.5-0.4-2.3c0-0.7,0.1-1.4,0.2-2.2c0.1-0.8,0.4-1.5,0.6-2.2c0.3-0.7,0.7-1.4,1.1-2.1
			c0.4-0.6,1-1.2,1.6-1.7s1.3-0.9,2.1-1.2s1.6-0.4,2.6-0.4c0.5,0,1,0.1,1.5,0.2c0.5,0.1,0.9,0.3,1.2,0.4c0.4,0.2,0.6,0.3,0.7,0.5
			C126.4,22.7,126.5,22.9,126.5,23.1z"/>
		<path class="st5" d="M137.1,29.2c0,0.5-0.1,1.1-0.2,1.7c-0.1,0.6-0.3,1.1-0.5,1.7c-0.2,0.5-0.5,1.1-0.8,1.5
			c-0.3,0.5-0.8,0.9-1.2,1.3c-0.5,0.4-1,0.7-1.6,0.9c-0.6,0.2-1.3,0.3-2.1,0.3c-0.8,0-1.4-0.1-2-0.3s-1-0.4-1.4-0.8
			c-0.4-0.3-0.6-0.8-0.8-1.3s-0.3-1.1-0.3-1.7c0-0.5,0.1-1.1,0.2-1.7s0.3-1.1,0.5-1.7c0.2-0.5,0.5-1.1,0.8-1.5
			c0.3-0.5,0.8-0.9,1.2-1.3c0.5-0.4,1-0.6,1.6-0.9c0.6-0.2,1.3-0.3,2.1-0.3c0.8,0,1.4,0.1,2,0.3s1,0.4,1.4,0.8
			c0.4,0.3,0.6,0.8,0.8,1.3S137.1,28.6,137.1,29.2z M134.1,29.4c0-0.3,0-0.6-0.1-0.8c-0.1-0.2-0.2-0.5-0.3-0.6
			c-0.1-0.2-0.3-0.3-0.6-0.4c-0.2-0.1-0.5-0.1-0.8-0.1c-0.4,0-0.7,0.1-1,0.2c-0.3,0.1-0.6,0.3-0.8,0.6c-0.2,0.2-0.4,0.5-0.6,0.9
			c-0.2,0.3-0.3,0.7-0.4,1c-0.1,0.4-0.2,0.7-0.2,1.1c-0.1,0.4-0.1,0.7-0.1,1.1c0,0.3,0,0.6,0.1,0.8c0.1,0.2,0.2,0.5,0.3,0.6
			c0.1,0.2,0.3,0.3,0.6,0.4c0.2,0.1,0.5,0.1,0.8,0.1c0.4,0,0.7-0.1,1-0.2c0.3-0.1,0.6-0.3,0.8-0.6c0.2-0.3,0.4-0.5,0.6-0.9
			s0.3-0.7,0.4-1c0.1-0.4,0.2-0.7,0.2-1.1S134.1,29.8,134.1,29.4z"/>
		<path class="st5" d="M153.7,21.2c0,0,0,0.1,0,0.2c0,0.1,0,0.2-0.1,0.3c0,0.1,0,0.3-0.1,0.4c0,0.1-0.1,0.3-0.1,0.4
			c0,0.1-0.1,0.2-0.1,0.3s-0.1,0.1-0.2,0.1c0,0-0.1,0-0.2,0c-0.1,0-0.2,0-0.2-0.1c-0.1,0-0.2,0-0.3-0.1c-0.1,0-0.2,0-0.4,0
			c-0.2,0-0.4,0-0.6,0.1c-0.2,0.1-0.3,0.2-0.5,0.3s-0.2,0.3-0.3,0.6c-0.1,0.2-0.2,0.5-0.2,0.8l-0.2,0.9h1.8c0.1,0,0.2,0,0.2,0.1
			c0,0.1,0.1,0.2,0.1,0.3c0,0.1,0,0.2,0,0.3c0,0.1,0,0.2-0.1,0.4c0,0.1-0.1,0.3-0.1,0.4c0,0.1-0.1,0.3-0.1,0.4
			c-0.1,0.1-0.1,0.2-0.2,0.3c-0.1,0.1-0.1,0.1-0.2,0.1h-1.9l-1.7,8.5c-0.1,0.6-0.3,1.2-0.5,1.7c-0.2,0.5-0.5,0.9-0.9,1.2
			c-0.3,0.3-0.7,0.6-1.2,0.8c-0.5,0.2-1,0.3-1.6,0.3c-0.4,0-0.8,0-1.1-0.1c-0.3-0.1-0.5-0.1-0.6-0.2c-0.1-0.1-0.1-0.2-0.1-0.3
			c0-0.1,0-0.1,0-0.2c0-0.1,0-0.2,0.1-0.4c0-0.1,0-0.3,0.1-0.4c0-0.1,0.1-0.3,0.1-0.4c0-0.1,0.1-0.2,0.1-0.3s0.1-0.1,0.2-0.1
			c0.1,0,0.1,0,0.2,0c0.1,0,0.1,0,0.2,0.1s0.2,0,0.3,0.1c0.1,0,0.2,0,0.3,0c0.2,0,0.4,0,0.6-0.1s0.3-0.2,0.5-0.3s0.2-0.3,0.3-0.6
			c0.1-0.2,0.2-0.5,0.2-0.8l1.7-8.4h-3.7l-1.7,8.7c-0.1,0.7-0.3,1.2-0.5,1.7c-0.2,0.5-0.5,0.9-0.9,1.2c-0.3,0.3-0.7,0.6-1.2,0.7
			c-0.5,0.2-1,0.2-1.6,0.2c-0.4,0-0.8,0-1.1-0.1c-0.3-0.1-0.5-0.1-0.6-0.2c0,0-0.1-0.1-0.1-0.1c0-0.1,0-0.1,0-0.2c0,0,0-0.1,0-0.2
			c0-0.1,0-0.2,0.1-0.3s0-0.3,0.1-0.4c0-0.1,0.1-0.3,0.1-0.4c0-0.1,0.1-0.2,0.1-0.3S136,38,136,38c0.1,0,0.2,0,0.4,0.1
			s0.3,0.1,0.6,0.1c0.2,0,0.4,0,0.6-0.1c0.2-0.1,0.3-0.2,0.5-0.3c0.1-0.1,0.2-0.3,0.3-0.6c0.1-0.2,0.2-0.5,0.2-0.8l1.7-8.5h-1.3
			c-0.1,0-0.2,0-0.2-0.1c0-0.1-0.1-0.2-0.1-0.4c0-0.1,0-0.2,0-0.3c0-0.1,0-0.2,0.1-0.4c0-0.1,0.1-0.3,0.1-0.4c0-0.1,0.1-0.3,0.1-0.4
			c0.1-0.1,0.1-0.2,0.2-0.3c0.1-0.1,0.2-0.1,0.3-0.1h1.2l0.2-1c0.1-0.6,0.3-1.2,0.5-1.7c0.2-0.5,0.5-0.9,0.9-1.2
			c0.3-0.3,0.7-0.6,1.2-0.7c0.5-0.2,1-0.2,1.6-0.2c0.2,0,0.4,0,0.6,0c0.2,0,0.4,0,0.5,0.1c0.2,0,0.3,0.1,0.4,0.1
			c0.1,0,0.2,0.1,0.2,0.1c0,0,0.1,0.1,0.1,0.2c0,0.1,0,0.2,0,0.2c0,0,0,0.1,0,0.2s0,0.2,0,0.3s0,0.3-0.1,0.4c0,0.1-0.1,0.3-0.1,0.4
			c0,0.1-0.1,0.2-0.1,0.3c-0.1,0.1-0.1,0.1-0.2,0.1c0,0-0.1,0-0.2,0c-0.1,0-0.2,0-0.2-0.1c-0.1,0-0.2-0.1-0.3-0.1
			c-0.1,0-0.2,0-0.4,0c-0.2,0-0.4,0-0.6,0.1c-0.2,0.1-0.3,0.2-0.5,0.3s-0.2,0.3-0.3,0.6c-0.1,0.2-0.2,0.5-0.2,0.8l-0.1,0.7h3.7
			l0.2-1.1c0.1-0.6,0.3-1.2,0.5-1.7c0.2-0.5,0.5-0.9,0.9-1.2c0.3-0.3,0.7-0.6,1.2-0.7c0.5-0.2,1-0.2,1.6-0.2c0.2,0,0.4,0,0.6,0
			c0.2,0,0.4,0,0.5,0.1c0.2,0,0.3,0.1,0.4,0.1c0.1,0,0.2,0.1,0.2,0.1c0,0,0.1,0.1,0.1,0.2S153.7,21.1,153.7,21.2z"/>
		<path class="st5" d="M162.2,28.1c0,0.5-0.1,1-0.4,1.5c-0.2,0.4-0.6,0.8-1.1,1.1c-0.5,0.3-1.2,0.6-2,0.7c-0.8,0.2-1.7,0.2-2.8,0.2
			h-1c0,0.2-0.1,0.3-0.1,0.5c0,0.2,0,0.3,0,0.5c0,0.6,0.2,1.1,0.5,1.4s0.8,0.5,1.5,0.5c0.5,0,0.9,0,1.3-0.1c0.4-0.1,0.7-0.2,1-0.2
			c0.3-0.1,0.5-0.2,0.7-0.2c0.2-0.1,0.3-0.1,0.4-0.1c0.1,0,0.2,0,0.2,0.1c0,0.1,0.1,0.1,0.1,0.2c0,0.1,0,0.3,0,0.4
			c0,0.2-0.1,0.3-0.1,0.5c0,0.2-0.1,0.3-0.2,0.5c-0.1,0.1-0.1,0.3-0.2,0.3c-0.1,0.1-0.3,0.2-0.5,0.3c-0.2,0.1-0.5,0.2-0.9,0.2
			s-0.7,0.1-1.1,0.2c-0.4,0-0.8,0.1-1.3,0.1c-0.7,0-1.4-0.1-1.9-0.2c-0.5-0.2-1-0.4-1.3-0.7c-0.4-0.3-0.6-0.7-0.8-1.2
			s-0.3-1-0.3-1.7c0-0.5,0-1,0.1-1.6s0.2-1.1,0.5-1.7c0.2-0.6,0.5-1.1,0.8-1.6c0.3-0.5,0.7-1,1.2-1.3c0.5-0.4,1-0.7,1.6-0.9
			c0.6-0.2,1.3-0.3,2.1-0.3c0.7,0,1.3,0.1,1.8,0.2c0.5,0.2,0.9,0.4,1.2,0.6c0.3,0.3,0.6,0.6,0.7,0.9
			C162.2,27.4,162.2,27.7,162.2,28.1z M159.5,28.3c0-0.3-0.1-0.6-0.4-0.8s-0.6-0.3-1-0.3c-0.4,0-0.7,0.1-1,0.2
			c-0.3,0.1-0.6,0.3-0.8,0.5s-0.4,0.5-0.6,0.8c-0.2,0.3-0.3,0.6-0.4,1h0.9c0.6,0,1.1,0,1.5-0.1c0.4-0.1,0.7-0.2,1-0.3
			c0.2-0.1,0.4-0.3,0.5-0.5C159.4,28.7,159.5,28.5,159.5,28.3z"/>
		<path class="st5" d="M173.6,28.1c0,0.5-0.1,1-0.4,1.5c-0.2,0.4-0.6,0.8-1.1,1.1c-0.5,0.3-1.2,0.6-2,0.7c-0.8,0.2-1.7,0.2-2.8,0.2
			h-1c0,0.2-0.1,0.3-0.1,0.5c0,0.2,0,0.3,0,0.5c0,0.6,0.2,1.1,0.5,1.4s0.8,0.5,1.5,0.5c0.5,0,0.9,0,1.3-0.1c0.4-0.1,0.7-0.2,1-0.2
			c0.3-0.1,0.5-0.2,0.7-0.2c0.2-0.1,0.3-0.1,0.4-0.1c0.1,0,0.2,0,0.2,0.1c0,0.1,0.1,0.1,0.1,0.2c0,0.1,0,0.3,0,0.4
			c0,0.2-0.1,0.3-0.1,0.5c0,0.2-0.1,0.3-0.2,0.5c-0.1,0.1-0.1,0.3-0.2,0.3c-0.1,0.1-0.3,0.2-0.5,0.3c-0.2,0.1-0.5,0.2-0.9,0.2
			s-0.7,0.1-1.1,0.2c-0.4,0-0.8,0.1-1.3,0.1c-0.7,0-1.4-0.1-1.9-0.2c-0.5-0.2-1-0.4-1.3-0.7c-0.4-0.3-0.6-0.7-0.8-1.2
			s-0.3-1-0.3-1.7c0-0.5,0-1,0.1-1.6s0.2-1.1,0.5-1.7c0.2-0.6,0.5-1.1,0.8-1.6c0.3-0.5,0.7-1,1.2-1.3c0.5-0.4,1-0.7,1.6-0.9
			c0.6-0.2,1.3-0.3,2.1-0.3c0.7,0,1.3,0.1,1.8,0.2c0.5,0.2,0.9,0.4,1.2,0.6c0.3,0.3,0.6,0.6,0.7,0.9
			C173.5,27.4,173.6,27.7,173.6,28.1z M170.8,28.3c0-0.3-0.1-0.6-0.4-0.8s-0.6-0.3-1-0.3c-0.4,0-0.7,0.1-1,0.2
			c-0.3,0.1-0.6,0.3-0.8,0.5s-0.4,0.5-0.6,0.8c-0.2,0.3-0.3,0.6-0.4,1h0.9c0.6,0,1.1,0,1.5-0.1c0.4-0.1,0.7-0.2,1-0.3
			c0.2-0.1,0.4-0.3,0.5-0.5C170.7,28.7,170.8,28.5,170.8,28.3z"/>
	</g>
	<g class="st1">
		<path class="st5" d="M56.4,8.4c0,0,0,0.1,0,0.2c0,0.1,0,0.2,0,0.2c0,0.1,0,0.2-0.1,0.3s-0.1,0.2-0.1,0.3c0,0.1-0.1,0.1-0.1,0.2
			s-0.1,0.1-0.2,0.1h-2.3L52,17.2c0,0,0,0.1-0.1,0.1c0,0-0.1,0.1-0.2,0.1c-0.1,0-0.2,0-0.3,0.1c-0.1,0-0.3,0-0.5,0
			c-0.2,0-0.3,0-0.5,0c-0.1,0-0.2,0-0.3-0.1c-0.1,0-0.1-0.1-0.1-0.1c0,0,0-0.1,0-0.1l1.5-7.5h-2.3c-0.1,0-0.1,0-0.1-0.1s0-0.1,0-0.2
			c0,0,0-0.1,0-0.2c0-0.1,0-0.2,0-0.3c0-0.1,0-0.2,0.1-0.3s0.1-0.2,0.1-0.3c0-0.1,0.1-0.1,0.1-0.2c0-0.1,0.1-0.1,0.2-0.1h6.6
			c0.1,0,0.1,0,0.1,0.1S56.4,8.3,56.4,8.4z"/>
		<path class="st5" d="M61.7,17.2c0,0,0,0.1-0.1,0.1c0,0-0.1,0.1-0.2,0.1s-0.2,0-0.3,0.1c-0.1,0-0.3,0-0.5,0c-0.2,0-0.3,0-0.4,0
			c-0.1,0-0.2,0-0.3-0.1s-0.1-0.1-0.1-0.1c0,0,0-0.1,0-0.1l0.8-3.9c0-0.1,0-0.2,0.1-0.3c0-0.1,0-0.2,0-0.3c0-0.1,0-0.2,0-0.3
			c0-0.1-0.1-0.2-0.1-0.2c0-0.1-0.1-0.1-0.2-0.2c-0.1,0-0.2-0.1-0.3-0.1c-0.2,0-0.4,0.1-0.6,0.2s-0.4,0.3-0.6,0.5s-0.4,0.5-0.5,0.8
			c-0.1,0.3-0.3,0.6-0.3,0.9l-0.6,2.9c0,0,0,0.1-0.1,0.1c0,0-0.1,0.1-0.2,0.1s-0.2,0-0.3,0.1c-0.1,0-0.3,0-0.4,0c-0.2,0-0.3,0-0.4,0
			c-0.1,0-0.2,0-0.3-0.1c-0.1,0-0.1-0.1-0.1-0.1c0,0,0-0.1,0-0.1l1.9-9.5c0,0,0-0.1,0.1-0.1c0,0,0.1-0.1,0.2-0.1
			c0.1,0,0.2,0,0.3-0.1c0.1,0,0.3,0,0.4,0c0.2,0,0.3,0,0.4,0c0.1,0,0.2,0,0.3,0.1c0.1,0,0.1,0.1,0.1,0.1s0,0.1,0,0.1l-0.5,2.6
			c0,0.1-0.1,0.2-0.1,0.3c0,0.1-0.1,0.2-0.1,0.4s-0.1,0.2-0.1,0.3c0,0.1-0.1,0.2-0.1,0.3c0.1-0.2,0.2-0.3,0.4-0.5s0.3-0.3,0.5-0.4
			c0.2-0.1,0.4-0.2,0.7-0.3c0.2-0.1,0.5-0.1,0.7-0.1c0.3,0,0.6,0,0.8,0.1c0.2,0.1,0.4,0.2,0.6,0.4c0.1,0.2,0.2,0.4,0.3,0.6
			c0.1,0.2,0.1,0.5,0.1,0.7c0,0.2,0,0.3,0,0.5c0,0.2,0,0.3-0.1,0.5L61.7,17.2z"/>
		<path class="st5" d="M70.1,12.1c0,0.3-0.1,0.7-0.2,0.9c-0.2,0.3-0.4,0.5-0.7,0.7c-0.3,0.2-0.7,0.4-1.3,0.5
			c-0.5,0.1-1.1,0.2-1.8,0.2h-0.7c0,0.1,0,0.2,0,0.3c0,0.1,0,0.2,0,0.3c0,0.4,0.1,0.7,0.3,0.9c0.2,0.2,0.5,0.3,1,0.3
			c0.3,0,0.6,0,0.9-0.1c0.3,0,0.5-0.1,0.7-0.2c0.2-0.1,0.3-0.1,0.5-0.2c0.1,0,0.2-0.1,0.3-0.1s0.1,0,0.1,0.1c0,0,0,0.1,0,0.2
			c0,0.1,0,0.2,0,0.3c0,0.1,0,0.2-0.1,0.3s-0.1,0.2-0.1,0.3c0,0.1-0.1,0.2-0.1,0.2c-0.1,0.1-0.2,0.1-0.3,0.2
			c-0.2,0.1-0.3,0.1-0.6,0.2c-0.2,0-0.5,0.1-0.7,0.1c-0.3,0-0.5,0-0.8,0c-0.5,0-0.9,0-1.2-0.1c-0.3-0.1-0.6-0.2-0.9-0.4
			c-0.2-0.2-0.4-0.4-0.5-0.8s-0.2-0.7-0.2-1.1c0-0.3,0-0.7,0.1-1c0.1-0.4,0.2-0.7,0.3-1.1c0.1-0.4,0.3-0.7,0.5-1
			c0.2-0.3,0.5-0.6,0.8-0.9c0.3-0.2,0.6-0.4,1-0.6c0.4-0.1,0.8-0.2,1.3-0.2c0.4,0,0.8,0.1,1.1,0.2c0.3,0.1,0.6,0.2,0.8,0.4
			c0.2,0.2,0.4,0.4,0.5,0.6S70.1,11.9,70.1,12.1z M68.4,12.3c0-0.2-0.1-0.4-0.2-0.5c-0.2-0.1-0.4-0.2-0.7-0.2c-0.2,0-0.5,0-0.6,0.1
			c-0.2,0.1-0.4,0.2-0.5,0.3c-0.1,0.1-0.3,0.3-0.4,0.5c-0.1,0.2-0.2,0.4-0.2,0.6h0.6c0.4,0,0.7,0,1-0.1s0.5-0.1,0.6-0.2
			c0.2-0.1,0.3-0.2,0.3-0.3C68.3,12.5,68.4,12.4,68.4,12.3z"/>
		<path class="st5" d="M79.3,11c0,0.1,0,0.1,0,0.3c0,0.1,0,0.2-0.1,0.3s-0.1,0.2-0.1,0.3C79.1,12,79,12,79,12c-0.1,0-0.1,0-0.2-0.1
			c-0.1,0-0.2-0.1-0.3-0.2s-0.3-0.1-0.4-0.1s-0.3-0.1-0.6-0.1c-0.2,0-0.3,0-0.5,0.1c-0.1,0-0.2,0.1-0.3,0.2
			c-0.1,0.1-0.2,0.2-0.2,0.3c0,0.1-0.1,0.2-0.1,0.3c0,0.1,0.1,0.3,0.2,0.4c0.1,0.1,0.3,0.2,0.5,0.3s0.4,0.2,0.6,0.3
			c0.2,0.1,0.4,0.2,0.6,0.4s0.3,0.3,0.5,0.5s0.2,0.5,0.2,0.8c0,0.4-0.1,0.7-0.2,1s-0.3,0.6-0.6,0.8c-0.3,0.2-0.6,0.4-1,0.5
			c-0.4,0.1-0.8,0.2-1.3,0.2c-0.2,0-0.5,0-0.7-0.1s-0.4-0.1-0.6-0.1c-0.2,0-0.3-0.1-0.4-0.2s-0.2-0.1-0.3-0.2c0,0-0.1-0.1-0.1-0.1
			c0,0,0-0.1,0-0.2c0,0,0-0.1,0-0.2c0-0.1,0-0.1,0-0.2c0-0.1,0-0.2,0.1-0.2s0-0.2,0.1-0.2c0-0.1,0.1-0.1,0.1-0.2
			c0,0,0.1-0.1,0.1-0.1c0.1,0,0.1,0,0.2,0.1c0.1,0.1,0.2,0.1,0.3,0.2c0.1,0.1,0.3,0.1,0.5,0.2c0.2,0.1,0.4,0.1,0.7,0.1
			c0.2,0,0.4,0,0.5-0.1c0.1,0,0.3-0.1,0.4-0.2c0.1-0.1,0.2-0.2,0.2-0.3c0-0.1,0.1-0.2,0.1-0.3c0-0.2-0.1-0.3-0.2-0.4
			c-0.1-0.1-0.3-0.2-0.4-0.3s-0.4-0.2-0.6-0.3s-0.4-0.2-0.6-0.4c-0.2-0.1-0.3-0.3-0.4-0.5c-0.1-0.2-0.2-0.5-0.2-0.8
			c0-0.3,0.1-0.7,0.2-1c0.1-0.3,0.3-0.5,0.6-0.8s0.6-0.4,0.9-0.5s0.8-0.2,1.2-0.2c0.2,0,0.4,0,0.6,0s0.4,0.1,0.5,0.1
			c0.2,0,0.3,0.1,0.4,0.1s0.2,0.1,0.2,0.2C79.3,10.8,79.3,10.9,79.3,11z"/>
		<path class="st5" d="M86.5,12.1c0,0.3-0.1,0.7-0.2,0.9c-0.2,0.3-0.4,0.5-0.7,0.7c-0.3,0.2-0.7,0.4-1.3,0.5
			c-0.5,0.1-1.1,0.2-1.8,0.2h-0.7c0,0.1,0,0.2,0,0.3c0,0.1,0,0.2,0,0.3c0,0.4,0.1,0.7,0.3,0.9c0.2,0.2,0.5,0.3,1,0.3
			c0.3,0,0.6,0,0.9-0.1c0.3,0,0.5-0.1,0.7-0.2c0.2-0.1,0.3-0.1,0.5-0.2c0.1,0,0.2-0.1,0.3-0.1s0.1,0,0.1,0.1c0,0,0,0.1,0,0.2
			c0,0.1,0,0.2,0,0.3c0,0.1,0,0.2-0.1,0.3s-0.1,0.2-0.1,0.3c0,0.1-0.1,0.2-0.1,0.2c-0.1,0.1-0.2,0.1-0.3,0.2
			c-0.2,0.1-0.3,0.1-0.6,0.2c-0.2,0-0.5,0.1-0.7,0.1c-0.3,0-0.5,0-0.8,0c-0.5,0-0.9,0-1.2-0.1c-0.3-0.1-0.6-0.2-0.9-0.4
			c-0.2-0.2-0.4-0.4-0.5-0.8S80,15.6,80,15.2c0-0.3,0-0.7,0.1-1c0.1-0.4,0.2-0.7,0.3-1.1c0.1-0.4,0.3-0.7,0.5-1
			c0.2-0.3,0.5-0.6,0.8-0.9c0.3-0.2,0.6-0.4,1-0.6c0.4-0.1,0.8-0.2,1.3-0.2c0.4,0,0.8,0.1,1.1,0.2c0.3,0.1,0.6,0.2,0.8,0.4
			c0.2,0.2,0.4,0.4,0.5,0.6S86.5,11.9,86.5,12.1z M84.8,12.3c0-0.2-0.1-0.4-0.2-0.5c-0.2-0.1-0.4-0.2-0.7-0.2c-0.2,0-0.5,0-0.6,0.1
			c-0.2,0.1-0.4,0.2-0.5,0.3c-0.1,0.1-0.3,0.3-0.4,0.5c-0.1,0.2-0.2,0.4-0.2,0.6h0.6c0.4,0,0.7,0,1-0.1s0.5-0.1,0.6-0.2
			c0.2-0.1,0.3-0.2,0.3-0.3C84.7,12.5,84.8,12.4,84.8,12.3z"/>
		<path class="st5" d="M93,11.2c0,0.1,0,0.2,0,0.4c0,0.1-0.1,0.3-0.1,0.4c0,0.1-0.1,0.2-0.2,0.3c-0.1,0.1-0.1,0.1-0.2,0.1
			c-0.1,0-0.1,0-0.2-0.1c-0.1-0.1-0.2-0.1-0.2-0.2c-0.1-0.1-0.2-0.1-0.4-0.2c-0.1-0.1-0.3-0.1-0.6-0.1c-0.2,0-0.5,0.1-0.7,0.2
			c-0.2,0.1-0.4,0.3-0.5,0.4s-0.3,0.4-0.4,0.6c-0.1,0.2-0.2,0.4-0.2,0.7c-0.1,0.2-0.1,0.4-0.1,0.7s0,0.4,0,0.5
			c0,0.4,0.1,0.7,0.3,0.9c0.2,0.2,0.4,0.3,0.8,0.3c0.3,0,0.5,0,0.7-0.1c0.2-0.1,0.4-0.1,0.5-0.2s0.3-0.2,0.4-0.2
			c0.1-0.1,0.2-0.1,0.3-0.1c0,0,0.1,0,0.1,0.1c0,0,0,0.1,0,0.2s0,0.2,0,0.3s0,0.2-0.1,0.4s-0.1,0.2-0.1,0.3c0,0.1-0.1,0.2-0.2,0.3
			c-0.1,0.1-0.2,0.1-0.3,0.2c-0.1,0.1-0.3,0.2-0.5,0.2c-0.2,0.1-0.4,0.1-0.6,0.2c-0.2,0-0.4,0.1-0.7,0.1c-0.8,0-1.4-0.2-1.8-0.6
			s-0.6-1-0.6-1.8c0-0.3,0-0.6,0.1-1c0.1-0.4,0.1-0.7,0.3-1.1s0.3-0.7,0.5-1c0.2-0.3,0.4-0.6,0.7-0.9c0.3-0.3,0.6-0.5,1-0.6
			c0.4-0.2,0.8-0.2,1.3-0.2c0.2,0,0.4,0,0.6,0s0.4,0.1,0.5,0.1c0.2,0.1,0.3,0.1,0.4,0.2c0.1,0.1,0.2,0.1,0.3,0.2S93,11,93,11
			C93,11,93,11.1,93,11.2z"/>
		<path class="st5" d="M98.5,10.6c0,0,0,0.1,0,0.2c0,0.1,0,0.2,0,0.3c0,0.1,0,0.2-0.1,0.4c0,0.1-0.1,0.2-0.1,0.3
			c0,0.1-0.1,0.2-0.1,0.3c0,0.1-0.1,0.1-0.1,0.1c0,0-0.1,0-0.1,0c0,0-0.1,0-0.1-0.1c-0.1,0-0.1,0-0.2-0.1c-0.1,0-0.1,0-0.2,0
			c-0.2,0-0.3,0.1-0.5,0.2c-0.2,0.1-0.4,0.3-0.5,0.5c-0.2,0.2-0.3,0.4-0.5,0.7s-0.2,0.6-0.3,0.9L95,17.2c0,0,0,0.1-0.1,0.1
			c0,0-0.1,0.1-0.2,0.1s-0.2,0-0.3,0.1c-0.1,0-0.3,0-0.4,0c-0.2,0-0.3,0-0.4,0c-0.1,0-0.2,0-0.3-0.1c-0.1,0-0.1-0.1-0.1-0.1
			c0,0,0-0.1,0-0.1l1.3-6.4c0,0,0-0.1,0.1-0.1c0,0,0.1-0.1,0.1-0.1c0.1,0,0.1,0,0.3-0.1c0.1,0,0.2,0,0.4,0c0.1,0,0.3,0,0.4,0
			c0.1,0,0.2,0,0.2,0.1c0.1,0,0.1,0.1,0.1,0.1s0,0.1,0,0.1l-0.2,1c0.1-0.2,0.2-0.4,0.4-0.6c0.2-0.2,0.3-0.3,0.5-0.5
			c0.2-0.1,0.3-0.2,0.5-0.3s0.4-0.1,0.5-0.1c0.1,0,0.1,0,0.2,0s0.1,0,0.2,0c0.1,0,0.1,0,0.2,0.1c0.1,0,0.1,0,0.1,0.1
			C98.5,10.5,98.5,10.6,98.5,10.6z"/>
		<path class="st5" d="M105.1,12.1c0,0.3-0.1,0.7-0.2,0.9c-0.2,0.3-0.4,0.5-0.7,0.7c-0.3,0.2-0.7,0.4-1.3,0.5
			c-0.5,0.1-1.1,0.2-1.8,0.2h-0.7c0,0.1,0,0.2,0,0.3c0,0.1,0,0.2,0,0.3c0,0.4,0.1,0.7,0.3,0.9c0.2,0.2,0.5,0.3,1,0.3
			c0.3,0,0.6,0,0.9-0.1c0.3,0,0.5-0.1,0.7-0.2c0.2-0.1,0.3-0.1,0.5-0.2c0.1,0,0.2-0.1,0.3-0.1s0.1,0,0.1,0.1c0,0,0,0.1,0,0.2
			c0,0.1,0,0.2,0,0.3c0,0.1,0,0.2-0.1,0.3s-0.1,0.2-0.1,0.3c0,0.1-0.1,0.2-0.1,0.2c-0.1,0.1-0.2,0.1-0.3,0.2
			c-0.2,0.1-0.3,0.1-0.6,0.2c-0.2,0-0.5,0.1-0.7,0.1c-0.3,0-0.5,0-0.8,0c-0.5,0-0.9,0-1.2-0.1c-0.3-0.1-0.6-0.2-0.9-0.4
			c-0.2-0.2-0.4-0.4-0.5-0.8s-0.2-0.7-0.2-1.1c0-0.3,0-0.7,0.1-1c0.1-0.4,0.2-0.7,0.3-1.1c0.1-0.4,0.3-0.7,0.5-1
			c0.2-0.3,0.5-0.6,0.8-0.9c0.3-0.2,0.6-0.4,1-0.6c0.4-0.1,0.8-0.2,1.3-0.2c0.4,0,0.8,0.1,1.1,0.2c0.3,0.1,0.6,0.2,0.8,0.4
			c0.2,0.2,0.4,0.4,0.5,0.6S105.1,11.9,105.1,12.1z M103.3,12.3c0-0.2-0.1-0.4-0.2-0.5c-0.2-0.1-0.4-0.2-0.7-0.2
			c-0.2,0-0.5,0-0.6,0.1c-0.2,0.1-0.4,0.2-0.5,0.3c-0.1,0.1-0.3,0.3-0.4,0.5c-0.1,0.2-0.2,0.4-0.2,0.6h0.6c0.4,0,0.7,0,1-0.1
			s0.5-0.1,0.6-0.2c0.2-0.1,0.3-0.2,0.3-0.3C103.3,12.5,103.3,12.4,103.3,12.3z"/>
		<path class="st5" d="M110.6,10.8c0,0,0,0.1,0,0.2c0,0.1,0,0.2,0,0.2s0,0.2-0.1,0.3s-0.1,0.2-0.1,0.2s-0.1,0.1-0.1,0.2
			c0,0-0.1,0.1-0.1,0.1h-1.4l-0.6,3c0,0.1,0,0.2,0,0.3c0,0.1,0,0.2,0,0.2c0,0.2,0,0.3,0.1,0.4c0.1,0.1,0.2,0.1,0.4,0.1
			c0.1,0,0.2,0,0.3,0c0.1,0,0.2,0,0.2-0.1c0.1,0,0.1,0,0.2-0.1c0,0,0.1,0,0.1,0c0,0,0.1,0,0.1,0.1c0,0,0,0.1,0,0.2
			c0,0.1,0,0.2,0,0.3c0,0.1,0,0.2-0.1,0.3c0,0.1-0.1,0.2-0.1,0.3s-0.1,0.2-0.1,0.2c0,0-0.1,0.1-0.2,0.1c-0.1,0-0.2,0.1-0.3,0.1
			c-0.1,0-0.2,0.1-0.4,0.1c-0.1,0-0.3,0-0.4,0c-0.3,0-0.5,0-0.8-0.1s-0.4-0.2-0.6-0.3c-0.1-0.1-0.3-0.3-0.3-0.5s-0.1-0.4-0.1-0.7
			c0-0.1,0-0.1,0-0.2s0-0.1,0-0.2c0-0.1,0-0.2,0-0.2c0-0.1,0-0.2,0-0.2l0.6-3.1h-0.8c-0.1,0-0.1,0-0.1-0.1c0,0,0-0.1,0-0.2
			c0-0.1,0-0.2,0-0.3c0-0.1,0-0.3,0.1-0.4c0-0.1,0.1-0.2,0.2-0.3c0.1-0.1,0.1-0.1,0.2-0.1h0.8l0.3-1.4c0,0,0-0.1,0.1-0.1
			c0,0,0.1-0.1,0.2-0.1c0.1,0,0.2,0,0.3-0.1c0.1,0,0.3,0,0.4,0c0.2,0,0.3,0,0.4,0c0.1,0,0.2,0,0.3,0.1s0.1,0.1,0.1,0.1
			c0,0,0,0.1,0,0.1l-0.3,1.4h1.4c0.1,0,0.1,0,0.2,0.1C110.6,10.6,110.6,10.7,110.6,10.8z"/>
		<path class="st5" d="M119,10.8c0,0,0,0.1,0,0.2c0,0.1,0,0.2,0,0.2s0,0.2-0.1,0.3s-0.1,0.2-0.1,0.2s-0.1,0.1-0.1,0.2
			c0,0-0.1,0.1-0.1,0.1h-1.4l-0.6,3c0,0.1,0,0.2,0,0.3c0,0.1,0,0.2,0,0.2c0,0.2,0,0.3,0.1,0.4c0.1,0.1,0.2,0.1,0.4,0.1
			c0.1,0,0.2,0,0.3,0c0.1,0,0.2,0,0.2-0.1c0.1,0,0.1,0,0.2-0.1c0,0,0.1,0,0.1,0c0,0,0.1,0,0.1,0.1c0,0,0,0.1,0,0.2
			c0,0.1,0,0.2,0,0.3c0,0.1,0,0.2-0.1,0.3c0,0.1-0.1,0.2-0.1,0.3s-0.1,0.2-0.1,0.2c0,0-0.1,0.1-0.2,0.1c-0.1,0-0.2,0.1-0.3,0.1
			c-0.1,0-0.2,0.1-0.4,0.1c-0.1,0-0.3,0-0.4,0c-0.3,0-0.5,0-0.8-0.1s-0.4-0.2-0.6-0.3c-0.1-0.1-0.3-0.3-0.3-0.5s-0.1-0.4-0.1-0.7
			c0-0.1,0-0.1,0-0.2s0-0.1,0-0.2c0-0.1,0-0.2,0-0.2c0-0.1,0-0.2,0-0.2l0.6-3.1h-0.8c-0.1,0-0.1,0-0.1-0.1c0,0,0-0.1,0-0.2
			c0-0.1,0-0.2,0-0.3c0-0.1,0-0.3,0.1-0.4c0-0.1,0.1-0.2,0.2-0.3c0.1-0.1,0.1-0.1,0.2-0.1h0.8l0.3-1.4c0,0,0-0.1,0.1-0.1
			c0,0,0.1-0.1,0.2-0.1c0.1,0,0.2,0,0.3-0.1c0.1,0,0.3,0,0.4,0c0.2,0,0.3,0,0.4,0c0.1,0,0.2,0,0.3,0.1s0.1,0.1,0.1,0.1
			c0,0,0,0.1,0,0.1l-0.3,1.4h1.4c0.1,0,0.1,0,0.2,0.1C119,10.6,119,10.7,119,10.8z"/>
		<path class="st5" d="M126,12.9c0,0.3,0,0.7-0.1,1.1c-0.1,0.4-0.2,0.7-0.3,1.1c-0.1,0.3-0.3,0.7-0.5,1c-0.2,0.3-0.5,0.6-0.8,0.8
			c-0.3,0.2-0.7,0.4-1,0.6c-0.4,0.1-0.8,0.2-1.3,0.2c-0.5,0-0.9-0.1-1.3-0.2c-0.4-0.1-0.6-0.3-0.9-0.5s-0.4-0.5-0.5-0.8
			c-0.1-0.3-0.2-0.7-0.2-1.1c0-0.3,0-0.7,0.1-1.1c0.1-0.4,0.2-0.7,0.3-1.1c0.1-0.3,0.3-0.7,0.5-1c0.2-0.3,0.5-0.6,0.8-0.8
			c0.3-0.2,0.7-0.4,1-0.5c0.4-0.1,0.8-0.2,1.3-0.2c0.5,0,0.9,0.1,1.3,0.2c0.4,0.1,0.6,0.3,0.9,0.5s0.4,0.5,0.5,0.8
			C126,12.1,126,12.5,126,12.9z M124.2,13c0-0.2,0-0.4-0.1-0.5c0-0.2-0.1-0.3-0.2-0.4c-0.1-0.1-0.2-0.2-0.4-0.2s-0.3-0.1-0.5-0.1
			c-0.2,0-0.5,0-0.6,0.1c-0.2,0.1-0.4,0.2-0.5,0.4c-0.2,0.2-0.3,0.3-0.4,0.6c-0.1,0.2-0.2,0.4-0.3,0.7c-0.1,0.2-0.1,0.5-0.2,0.7
			c0,0.2-0.1,0.5-0.1,0.7c0,0.2,0,0.4,0.1,0.5c0,0.2,0.1,0.3,0.2,0.4c0.1,0.1,0.2,0.2,0.4,0.2c0.1,0.1,0.3,0.1,0.5,0.1
			c0.2,0,0.5,0,0.6-0.1c0.2-0.1,0.4-0.2,0.5-0.4c0.2-0.2,0.3-0.3,0.4-0.6c0.1-0.2,0.2-0.4,0.3-0.7c0.1-0.2,0.1-0.5,0.2-0.7
			C124.1,13.5,124.2,13.2,124.2,13z"/>
		<path class="st5" d="M136,17.4c-0.1,0.4-0.2,0.8-0.4,1.1c-0.2,0.3-0.4,0.6-0.7,0.8c-0.3,0.2-0.7,0.4-1.1,0.5
			c-0.4,0.1-0.9,0.2-1.5,0.2c-0.4,0-0.8,0-1.1-0.1c-0.3-0.1-0.6-0.1-0.8-0.2c-0.1,0-0.1-0.1-0.2-0.1c0,0,0-0.1,0-0.2
			c0,0,0-0.1,0-0.1s0-0.1,0-0.2c0-0.1,0-0.2,0.1-0.3c0-0.1,0.1-0.2,0.1-0.2c0-0.1,0.1-0.1,0.1-0.2c0,0,0.1-0.1,0.2-0.1
			s0.1,0,0.2,0.1c0.1,0,0.2,0.1,0.3,0.1c0.1,0,0.3,0.1,0.5,0.1c0.2,0,0.5,0.1,0.8,0.1c0.2,0,0.5,0,0.7-0.1s0.4-0.1,0.5-0.2
			c0.1-0.1,0.3-0.2,0.3-0.3c0.1-0.1,0.2-0.3,0.2-0.5c0.1-0.3,0.1-0.6,0.2-0.8c0.1-0.2,0.1-0.4,0.2-0.5c-0.1,0.2-0.2,0.3-0.4,0.5
			c-0.2,0.2-0.3,0.3-0.6,0.4c-0.2,0.1-0.4,0.2-0.7,0.3c-0.2,0.1-0.5,0.1-0.7,0.1c-0.4,0-0.7-0.1-0.9-0.2c-0.3-0.1-0.5-0.3-0.6-0.5
			c-0.2-0.2-0.3-0.5-0.3-0.8c-0.1-0.3-0.1-0.6-0.1-1c0-0.3,0-0.6,0.1-1c0.1-0.4,0.1-0.7,0.3-1.1s0.3-0.7,0.5-1s0.4-0.6,0.7-0.9
			c0.3-0.3,0.6-0.5,0.9-0.6s0.7-0.2,1.1-0.2c0.4,0,0.8,0.1,1.1,0.2c0.3,0.2,0.6,0.4,0.8,0.7l0.1-0.6c0-0.1,0.1-0.2,0.2-0.2
			c0.1,0,0.3-0.1,0.6-0.1c0.1,0,0.3,0,0.4,0c0.1,0,0.2,0,0.2,0.1c0.1,0,0.1,0.1,0.1,0.1c0,0,0,0.1,0,0.1L136,17.4z M135.1,12.7
			c-0.2-0.3-0.4-0.5-0.6-0.6c-0.2-0.1-0.4-0.2-0.7-0.2c-0.2,0-0.4,0-0.6,0.1s-0.3,0.2-0.4,0.4c-0.1,0.2-0.2,0.3-0.3,0.6
			s-0.2,0.4-0.2,0.7c-0.1,0.2-0.1,0.5-0.1,0.7c0,0.2,0,0.4,0,0.7c0,0.2,0,0.3,0,0.4c0,0.1,0.1,0.2,0.1,0.3c0.1,0.1,0.1,0.2,0.2,0.2
			s0.2,0.1,0.3,0.1c0.2,0,0.4-0.1,0.6-0.2c0.2-0.1,0.4-0.3,0.6-0.5s0.4-0.5,0.5-0.8c0.1-0.3,0.3-0.6,0.3-0.9L135.1,12.7z"/>
		<path class="st5" d="M143.2,10.6c0,0,0,0.1,0,0.2c0,0.1,0,0.2,0,0.3c0,0.1,0,0.2-0.1,0.4c0,0.1-0.1,0.2-0.1,0.3
			c0,0.1-0.1,0.2-0.1,0.3c0,0.1-0.1,0.1-0.1,0.1c0,0-0.1,0-0.1,0c0,0-0.1,0-0.1-0.1c-0.1,0-0.1,0-0.2-0.1c-0.1,0-0.1,0-0.2,0
			c-0.2,0-0.3,0.1-0.5,0.2c-0.2,0.1-0.4,0.3-0.5,0.5c-0.2,0.2-0.3,0.4-0.5,0.7s-0.2,0.6-0.3,0.9l-0.6,2.9c0,0,0,0.1-0.1,0.1
			c0,0-0.1,0.1-0.2,0.1s-0.2,0-0.3,0.1c-0.1,0-0.3,0-0.4,0c-0.2,0-0.3,0-0.4,0c-0.1,0-0.2,0-0.3-0.1c-0.1,0-0.1-0.1-0.1-0.1
			c0,0,0-0.1,0-0.1l1.3-6.4c0,0,0-0.1,0.1-0.1c0,0,0.1-0.1,0.1-0.1c0.1,0,0.1,0,0.3-0.1c0.1,0,0.2,0,0.4,0c0.1,0,0.3,0,0.4,0
			c0.1,0,0.2,0,0.2,0.1c0.1,0,0.1,0.1,0.1,0.1s0,0.1,0,0.1l-0.2,1c0.1-0.2,0.2-0.4,0.4-0.6c0.2-0.2,0.3-0.3,0.5-0.5
			c0.2-0.1,0.3-0.2,0.5-0.3s0.4-0.1,0.5-0.1c0.1,0,0.1,0,0.2,0s0.1,0,0.2,0c0.1,0,0.1,0,0.2,0.1c0.1,0,0.1,0,0.1,0.1
			C143.2,10.5,143.2,10.6,143.2,10.6z"/>
		<path class="st5" d="M149.7,12.1c0,0.3-0.1,0.7-0.2,0.9c-0.2,0.3-0.4,0.5-0.7,0.7c-0.3,0.2-0.7,0.4-1.3,0.5
			c-0.5,0.1-1.1,0.2-1.8,0.2h-0.7c0,0.1,0,0.2,0,0.3c0,0.1,0,0.2,0,0.3c0,0.4,0.1,0.7,0.3,0.9c0.2,0.2,0.5,0.3,1,0.3
			c0.3,0,0.6,0,0.9-0.1c0.3,0,0.5-0.1,0.7-0.2c0.2-0.1,0.3-0.1,0.5-0.2c0.1,0,0.2-0.1,0.3-0.1s0.1,0,0.1,0.1c0,0,0,0.1,0,0.2
			c0,0.1,0,0.2,0,0.3c0,0.1,0,0.2-0.1,0.3s-0.1,0.2-0.1,0.3c0,0.1-0.1,0.2-0.1,0.2c-0.1,0.1-0.2,0.1-0.3,0.2
			c-0.2,0.1-0.3,0.1-0.6,0.2c-0.2,0-0.5,0.1-0.7,0.1c-0.3,0-0.5,0-0.8,0c-0.5,0-0.9,0-1.2-0.1c-0.3-0.1-0.6-0.2-0.9-0.4
			c-0.2-0.2-0.4-0.4-0.5-0.8s-0.2-0.7-0.2-1.1c0-0.3,0-0.7,0.1-1c0.1-0.4,0.2-0.7,0.3-1.1c0.1-0.4,0.3-0.7,0.5-1
			c0.2-0.3,0.5-0.6,0.8-0.9c0.3-0.2,0.6-0.4,1-0.6c0.4-0.1,0.8-0.2,1.3-0.2c0.4,0,0.8,0.1,1.1,0.2c0.3,0.1,0.6,0.2,0.8,0.4
			c0.2,0.2,0.4,0.4,0.5,0.6S149.7,11.9,149.7,12.1z M148,12.3c0-0.2-0.1-0.4-0.2-0.5c-0.2-0.1-0.4-0.2-0.7-0.2c-0.2,0-0.5,0-0.6,0.1
			c-0.2,0.1-0.4,0.2-0.5,0.3c-0.1,0.1-0.3,0.3-0.4,0.5c-0.1,0.2-0.2,0.4-0.2,0.6h0.6c0.4,0,0.7,0,1-0.1s0.5-0.1,0.6-0.2
			c0.2-0.1,0.3-0.2,0.3-0.3C147.9,12.5,148,12.4,148,12.3z"/>
		<path class="st5" d="M156.3,17.2c0,0.1-0.1,0.2-0.2,0.2c-0.1,0-0.3,0.1-0.6,0.1c-0.1,0-0.3,0-0.4,0s-0.2,0-0.2,0s-0.1-0.1-0.1-0.1
			c0,0,0-0.1,0-0.1l0.2-1c-0.1,0.2-0.2,0.3-0.3,0.5c-0.2,0.2-0.3,0.3-0.6,0.5c-0.2,0.1-0.5,0.3-0.7,0.3c-0.3,0.1-0.5,0.1-0.8,0.1
			c-0.4,0-0.7-0.1-1-0.2c-0.3-0.1-0.5-0.3-0.6-0.5c-0.2-0.2-0.3-0.5-0.3-0.8c-0.1-0.3-0.1-0.6-0.1-0.9c0-0.3,0-0.6,0.1-1
			c0.1-0.4,0.1-0.7,0.3-1.1c0.1-0.4,0.3-0.7,0.5-1s0.4-0.6,0.7-0.9s0.6-0.5,0.9-0.6c0.3-0.2,0.7-0.2,1.1-0.2c0.4,0,0.8,0.1,1.1,0.2
			c0.3,0.2,0.6,0.4,0.8,0.7l0.1-0.6c0-0.1,0.1-0.2,0.2-0.2c0.1,0,0.3-0.1,0.6-0.1c0.1,0,0.3,0,0.4,0c0.1,0,0.2,0,0.2,0.1
			c0.1,0,0.1,0.1,0.1,0.1c0,0,0,0.1,0,0.1L156.3,17.2z M155.4,12.7c-0.2-0.3-0.4-0.5-0.6-0.6c-0.2-0.1-0.4-0.2-0.7-0.2
			c-0.2,0-0.4,0-0.6,0.1s-0.3,0.2-0.4,0.4c-0.1,0.2-0.2,0.3-0.3,0.6s-0.2,0.4-0.2,0.7c-0.1,0.2-0.1,0.5-0.1,0.7s0,0.4,0,0.6
			c0,0.1,0,0.3,0,0.4c0,0.1,0.1,0.2,0.1,0.3s0.1,0.2,0.2,0.2c0.1,0.1,0.2,0.1,0.4,0.1c0.2,0,0.4-0.1,0.6-0.2
			c0.2-0.1,0.4-0.3,0.6-0.5s0.4-0.5,0.5-0.8c0.1-0.3,0.3-0.6,0.3-0.9L155.4,12.7z"/>
		<path class="st5" d="M163.1,10.8c0,0,0,0.1,0,0.2c0,0.1,0,0.2,0,0.2s0,0.2-0.1,0.3s-0.1,0.2-0.1,0.2s-0.1,0.1-0.1,0.2
			c0,0-0.1,0.1-0.1,0.1h-1.4l-0.6,3c0,0.1,0,0.2,0,0.3c0,0.1,0,0.2,0,0.2c0,0.2,0,0.3,0.1,0.4c0.1,0.1,0.2,0.1,0.4,0.1
			c0.1,0,0.2,0,0.3,0c0.1,0,0.2,0,0.2-0.1c0.1,0,0.1,0,0.2-0.1c0,0,0.1,0,0.1,0c0,0,0.1,0,0.1,0.1c0,0,0,0.1,0,0.2
			c0,0.1,0,0.2,0,0.3c0,0.1,0,0.2-0.1,0.3c0,0.1-0.1,0.2-0.1,0.3s-0.1,0.2-0.1,0.2c0,0-0.1,0.1-0.2,0.1c-0.1,0-0.2,0.1-0.3,0.1
			c-0.1,0-0.2,0.1-0.4,0.1c-0.1,0-0.3,0-0.4,0c-0.3,0-0.5,0-0.8-0.1s-0.4-0.2-0.6-0.3c-0.1-0.1-0.3-0.3-0.3-0.5s-0.1-0.4-0.1-0.7
			c0-0.1,0-0.1,0-0.2s0-0.1,0-0.2c0-0.1,0-0.2,0-0.2c0-0.1,0-0.2,0-0.2l0.6-3.1h-0.8c-0.1,0-0.1,0-0.1-0.1c0,0,0-0.1,0-0.2
			c0-0.1,0-0.2,0-0.3c0-0.1,0-0.3,0.1-0.4c0-0.1,0.1-0.2,0.2-0.3c0.1-0.1,0.1-0.1,0.2-0.1h0.8l0.3-1.4c0,0,0-0.1,0.1-0.1
			c0,0,0.1-0.1,0.2-0.1c0.1,0,0.2,0,0.3-0.1c0.1,0,0.3,0,0.4,0c0.2,0,0.3,0,0.4,0c0.1,0,0.2,0,0.3,0.1s0.1,0.1,0.1,0.1
			c0,0,0,0.1,0,0.1l-0.3,1.4h1.4c0.1,0,0.1,0,0.2,0.1C163.1,10.6,163.1,10.7,163.1,10.8z"/>
	</g>
	<g class="st1">
		<g>
			<path class="st5" d="M19.9,39.9c-8.1,0-14.7-5.8-14.7-12.8c0-7.1,6.6-12.8,14.7-12.8S34.7,20,34.7,27.1
				C34.7,34.2,28.1,39.9,19.9,39.9z M19.9,15.7c-7.3,0-13.2,5.1-13.2,11.3c0,6.3,5.9,11.3,13.2,11.3s13.2-5.1,13.2-11.3
				C33.2,20.8,27.2,15.7,19.9,15.7z"/>
		</g>
		<g>
			<rect x="12.6" y="11.5" class="st5" width="14.6" height="5.3"/>
		</g>
		<g>
			<path class="st5" d="M26.1,12.3H14.2L7.5,4.6L26.1,6V12.3z M14.9,10.8h9.8V7.4L11,6.4L14.9,10.8z"/>
		</g>
		<g>
			<path class="st5" d="M38.5,21.2c-0.3,0-0.6-0.2-0.8-0.5l-3.6-5.6h-6.8c-0.6,0-1-0.4-1-1s0.4-1,1-1h7.9l4.2,6.5
				c0.3,0.5,0.2,1.1-0.3,1.4C38.9,21.2,38.7,21.2,38.5,21.2z"/>
		</g>
		<g>
			<path class="st5" d="M5.2,20.5c-0.3,0-0.5-0.2-0.5-0.5v-3c0-0.3,0.2-0.5,0.5-0.5s0.5,0.2,0.5,0.5v3C5.7,20.2,5.5,20.5,5.2,20.5z"
				/>
		</g>
		<g>
			<path class="st5" d="M6.8,18.9h-3c-0.3,0-0.5-0.2-0.5-0.5s0.2-0.5,0.5-0.5h3c0.3,0,0.5,0.2,0.5,0.5S7,18.9,6.8,18.9z"/>
		</g>
		<g>
			<path class="st5" d="M14.8,23.8c-0.3,0-0.5-0.2-0.5-0.5v-2.2c0-0.3,0.2-0.5,0.5-0.5s0.5,0.2,0.5,0.5v2.2
				C15.3,23.6,15,23.8,14.8,23.8z"/>
		</g>
		<g>
			<path class="st5" d="M15.9,22.7h-2.2c-0.3,0-0.5-0.2-0.5-0.5s0.2-0.5,0.5-0.5h2.2c0.3,0,0.5,0.2,0.5,0.5S16.1,22.7,15.9,22.7z"/>
		</g>
		<g>
			<path class="st5" d="M10.8,31.3c-0.3,0-0.5-0.2-0.5-0.5v-3c0-0.3,0.2-0.5,0.5-0.5s0.5,0.2,0.5,0.5v3
				C11.3,31.1,11.1,31.3,10.8,31.3z"/>
		</g>
		<g>
			<path class="st5" d="M12.3,29.8h-3c-0.3,0-0.5-0.2-0.5-0.5s0.2-0.5,0.5-0.5h3c0.3,0,0.5,0.2,0.5,0.5S12.6,29.8,12.3,29.8z"/>
		</g>
	</g>
</g>
</svg>
