<?xml version="1.0" encoding="UTF-8"?><svg id="Layer_2" xmlns="http://www.w3.org/2000/svg" viewBox="0 0 35.48 36.59"><path d="M16.85,36.59c-3.79,0-7.57,0-11.36,0-.67,0-.67,0-.67-.66,0-7.03,0-14.05,0-21.08,0-2.51,.59-4.86,1.89-7.02,.16-.26,.28-.54,.47-.77,.43-.52,.52-1.12,.5-1.77-.03-.92,0-1.84,0-2.76,0-.67,0-.67,.7-.67,5.39,0,10.79,0,16.18,0,.3,0,.6,.02,.91,0,.38-.02,.54,.11,.53,.52-.02,1.11,0,2.22-.01,3.33,0,.37,.1,.68,.29,1,.56,.96,1.12,1.92,1.59,2.92,.62,1.32,.9,2.74,.91,4.19,.05,7.41,.07,14.81,.09,22.22,0,.51-.03,.54-.58,.54-3.81,0-7.63,0-11.44,0ZM24.16,7.22c-.12-.04-.17-.07-.22-.07-1.7,0-3.4,0-5.1,0-.12,0-.29,.11-.36,.22-1.37,1.98-2.26,4.13-2.37,6.56-.04,.9-.05,1.81-.06,2.71,0,.29-.08,.46-.42,.46-1.47,0-2.94,0-4.4,0-.28,0-.4-.12-.39-.4,.03-1.08,.02-2.17,.09-3.24,.12-1.92,.6-3.77,1.69-5.35,.95-1.38,1.24-2.81,1.08-4.41,0-.04,0-.08,0-.12,.03-.35-.12-.49-.48-.49-1.29,.01-2.58,.01-3.87,0-.33,0-.48,.11-.47,.45,.01,.63,.01,1.26,0,1.89,0,.33,.12,.47,.46,.47,.56-.02,1.13,0,1.69,0,.28,0,.41,.12,.39,.4,0,.11,0,.22,0,.33,.04,.37-.1,.52-.49,.51-.64-.02-1.29,0-1.93,0-.28,0-.46,.09-.61,.32-1.55,2.27-2.35,4.77-2.34,7.54,.02,6.57,0,13.15,0,19.72,0,.66,0,.66,.67,.66,4.86,0,9.72,0,14.57,0,.1,0,.19,0,.29,0,.24,0,.36-.11,.36-.34,0-.18,0-.36,0-.54,0-6.48,0-12.95,0-19.43,0-2.65,.59-5.13,2-7.4,.08-.13,.14-.26,.23-.44Zm1.26,.5c-.07,.05-.11,.07-.14,.1-.08,.11-.15,.23-.23,.34-1.33,2.07-1.91,4.36-1.92,6.8-.02,6.63,0,13.26,0,19.88,0,.49,.05,.53,.56,.53,1.07,0,2.14,0,3.21,0q.75,0,.75-.74c0-4.71,.01-9.41,0-14.12,0-2.34,0-4.69-.11-7.03-.09-2.03-.84-3.87-1.94-5.57-.04-.07-.11-.12-.18-.19Zm-7.73-2.7c0-.61-.01-1.02,0-1.43,.01-.35-.11-.5-.47-.49-.62,.02-1.24,.02-1.85,0-.37-.01-.48,.15-.48,.49,.01,.81-.02,1.62,.01,2.43,.02,.49-.1,.9-.4,1.3-1.74,2.4-2.49,5.12-2.52,8.06,0,.42,.15,.56,.55,.54,.56-.02,1.12,0,1.69,0,.6,0,.63-.04,.64-.63,0-.55-.02-1.1,.03-1.65,.21-2.2,.83-4.29,2.07-6.13,.56-.83,.92-1.67,.73-2.49Zm4.1,.89c.82,0,1.65-.01,2.47,0,.36,0,.53-.1,.52-.49-.02-.62-.01-1.24,0-1.85,0-.33-.11-.47-.45-.47-1.66,.01-3.32,0-4.98,0-.33,0-.43,.14-.43,.45,.01,.63,.02,1.26,0,1.89-.01,.37,.15,.47,.49,.47,.8-.01,1.59,0,2.39,0Z" fill="#fff"/><path d="M8.87,27.16c.06-2.55,2.02-5.86,4.96-6.75,2.6-.78,4.72,.5,5.1,3.14,.48,3.28-2.15,7.09-5.41,7.76-1.98,.41-3.82-.79-4.32-2.52-.15-.53-.23-1.09-.34-1.63Zm8.89-2.91c0-.09,0-.24,0-.39-.06-1.27-.9-2.31-2.1-2.43-.56-.06-1.2,.03-1.72,.25-1.99,.82-3.12,2.41-3.64,4.44-.23,.88-.21,1.79,.2,2.65,.48,1.01,1.56,1.54,2.6,1.38,2.61-.4,4.76-3.41,4.66-5.89Z" fill="#fff"/><path d="M16.11,23.71c0,1.27-.63,2.16-1.82,2.51-.75,.22-1.18,.77-1.22,1.56,0,.15,0,.31-.03,.45-.07,.32-.28,.5-.62,.48-.33-.02-.54-.2-.58-.53-.17-1.18,.6-2.67,1.72-2.99,.97-.28,1.38-.83,1.4-1.78,.01-.38,.28-.58,.63-.56,.37,.03,.53,.24,.52,.61,0,.08,0,.16,0,.25Z" fill="#fff"/></svg>