<?xml version="1.0" encoding="UTF-8"?><svg id="Layer_2" xmlns="http://www.w3.org/2000/svg" viewBox="0 0 35.48 36.59"><path d="M29.62,26.56c.98-.3,2.27-1.24,3.13-2.27,1.66-2,2.45-4.35,2.66-6.89,.37-4.45-.76-8.51-3.33-12.16-1.51-2.15-3.44-3.82-5.95-4.73-1.54-.56-3.11-.67-4.72-.28-.26,.06-.39,.15-.35,.45,.05,.38,.05,.77,.08,1.15,.33,4.11,1.79,7.75,4.45,10.93,2.65,3.18,4.04,6.87,4.15,11.02,.02,.92-.07,1.84-.12,2.78ZM2.94,34.75c.3-.22,.58-.43,.86-.63,2.88-2.14,5.08-4.83,6.42-8.18,.5-1.26,.84-2.59,1.4-3.82,1.77-3.93,4.55-6.93,8.48-8.78,.05-.02,.09-.05,.16-.1-.87-.61-1.79-1.01-2.79-1.23-2.21-.49-4.36-.21-6.44,.62-4.42,1.76-7.56,4.91-9.59,9.17C.21,24.38-.34,27.12,.21,29.99c.36,1.88,1.22,3.48,2.72,4.76Zm.46,.34c.63,.46,1.3,.79,2.03,1.02,2.37,.76,4.71,.51,7-.33,5.65-2.08,10.13-7.52,11.07-13.47,.32-2.04,.17-4.05-.69-5.97-.49-1.08-1.17-2-2.1-2.76-.26,.19-.5,.36-.74,.54-2.43,1.8-4.41,3.99-5.81,6.69-.63,1.21-1.03,2.5-1.47,3.79-1.65,4.74-4.69,8.27-9.27,10.5ZM14.59,11.01c.72,.04,1.4,.02,2.07,.12,3.54,.49,5.96,2.41,7.15,5.79,.84,2.38,.69,4.8,.05,7.21-.19,.73-.46,1.43-.7,2.18,1.84,.83,3.72,1.09,5.68,.54,.08-.02,.17-.22,.16-.33-.03-.68-.07-1.37-.15-2.05-.32-2.76-1.14-5.36-2.64-7.7-.74-1.15-1.65-2.19-2.44-3.3-2.52-3.56-3.72-7.5-3.37-11.88,.03-.34,.07-.68,.12-1.05-.85,.33-1.57,.78-2.22,1.34-1.68,1.47-2.65,3.36-3.22,5.48-.32,1.2-.46,2.42-.49,3.66Z" fill="#fff"/><path d="M29.62,26.56c.04-.93,.14-1.86,.12-2.78-.1-4.15-1.5-7.84-4.15-11.02-2.66-3.18-4.12-6.82-4.45-10.93-.03-.38-.03-.77-.08-1.15-.04-.3,.09-.39,.35-.45,1.6-.38,3.18-.27,4.72,.28,2.51,.91,4.43,2.58,5.95,4.73,2.57,3.64,3.7,7.71,3.33,12.16-.21,2.54-1,4.89-2.66,6.89-.86,1.04-2.15,1.97-3.13,2.27Z" fill="#fff"/><path d="M2.94,34.75c-1.5-1.28-2.36-2.88-2.72-4.76-.55-2.88,0-5.61,1.23-8.2,2.03-4.26,5.17-7.41,9.59-9.17,2.07-.83,4.23-1.11,6.44-.62,.99,.22,1.91,.62,2.79,1.23-.07,.04-.12,.08-.16,.1-3.94,1.86-6.71,4.86-8.48,8.78-.56,1.23-.9,2.56-1.4,3.82-1.33,3.35-3.53,6.04-6.42,8.18-.28,.21-.56,.41-.86,.63Z" fill="#fff"/><path d="M3.4,35.09c4.58-2.23,7.62-5.76,9.27-10.5,.45-1.28,.85-2.58,1.47-3.79,1.4-2.7,3.38-4.89,5.81-6.69,.24-.18,.48-.35,.74-.54,.93,.76,1.62,1.68,2.1,2.76,.86,1.91,1.01,3.93,.69,5.97-.94,5.95-5.42,11.39-11.07,13.47-2.29,.84-4.62,1.09-7,.33-.72-.23-1.4-.56-2.03-1.02Z" fill="#fff"/><path d="M14.59,11.01c.03-1.24,.17-2.47,.49-3.66,.57-2.12,1.54-4.01,3.22-5.48,.65-.56,1.37-1.01,2.22-1.34-.04,.38-.09,.71-.12,1.05-.35,4.38,.85,8.32,3.37,11.88,.79,1.12,1.7,2.16,2.44,3.3,1.5,2.34,2.33,4.94,2.64,7.7,.08,.68,.11,1.37,.15,2.05,0,.11-.08,.3-.16,.33-1.96,.55-3.85,.29-5.68-.54,.24-.74,.51-1.45,.7-2.18,.64-2.41,.79-4.83-.05-7.21-1.19-3.37-3.61-5.3-7.15-5.79-.66-.09-1.34-.08-2.07-.12Z" fill="#fff"/></svg>