<?xml version="1.0" encoding="UTF-8"?><svg id="Layer_1" xmlns="http://www.w3.org/2000/svg" viewBox="0 0 96.66 96.66"><circle cx="48.33" cy="48.33" r="48.33" fill="#f7f1eb"/><path d="M52.91,27.56c-18.17,0-36.63,3.75-40.13,10.98-4.36-.36-9,1.99-10.79,6.05-6.43,13.22,7.54,30.25,21.67,25.66,7.42,7.91,17.8,12.85,29.25,12.85,22.4,0,40.74-18.89,40.74-42.03,0-8.89-20.55-13.52-40.74-13.52ZM12.18,65.52c-6.67-3.33-10-12.41-6.85-19.07,1.25-2.81,3.96-4.16,6.88-4.07,.28,9.45,3.61,18.13,9.01,25.02-2.87,.62-6.16-.28-9.04-1.88Zm40.74,13.89c-18.33,0-33.51-13.89-36.48-32.03,7.04,4.81,21.85,7.22,36.48,7.22s29.44-2.41,36.48-7.22c-2.96,18.15-18.15,32.03-36.48,32.03Zm25.37-31.48c-4.63-3.52-14.26-6.11-25.37-6.11s-20.74,2.41-25.37,5.93c-7.41-2.04-11.67-4.63-11.67-6.85,0-3.89,14.07-9.63,37.03-9.63s37.03,5.74,37.03,9.81c0,2.22-4.26,5-11.67,6.85Z" fill="#010101"/></svg>