<?xml version="1.0" encoding="utf-8"?>
<!-- Generator: Adobe Illustrator 26.3.1, SVG Export Plug-In . SVG Version: 6.00 Build 0)  -->
<svg version="1.1" id="Layer_2_00000009559502086191856110000013637680753120594820_"
	 xmlns="http://www.w3.org/2000/svg" xmlns:xlink="http://www.w3.org/1999/xlink" x="0px" y="0px" viewBox="0 0 36.6 36.6"
	 style="enable-background:new 0 0 36.6 36.6;" xml:space="preserve">
<style type="text/css">
	.st0{fill:#CC9966;}
	.st1{fill:#231F20;}
</style>
<circle class="st0" cx="18.3" cy="18.3" r="18.3"/>
<path class="st1" d="M27.2,10h-0.9V9.4c0-0.8-0.7-1.5-1.5-1.5s-1.5,0.7-1.5,1.5V10v12.6c0,3.9-3.1,7-7,7c-3.9,0-7-3.1-7-7V9.4
	c0-0.8-0.7-1.5-1.5-1.5S6.3,8.6,6.3,9.4v13.2c0,5.5,4.5,10,10,10c4.9,0,9-3.5,9.8-8.2h1.1c3.9,0,7.2-3.3,7.2-7.2
	C34.4,13.3,31.1,10,27.2,10z M27.2,21.4h-0.9V13h0.9c2.3,0,4.2,1.9,4.2,4.2C31.4,19.5,29.5,21.4,27.2,21.4z"/>
</svg>
