<?xml version="1.0" encoding="UTF-8"?><svg id="Layer_1" xmlns="http://www.w3.org/2000/svg" viewBox="0 0 97.65 28.25"><path d="M73.64,20.4l2.44-2.65-.03-.05c-.12,.1-.25,.19-.36,.3-.69,.66-1.39,1.32-2.05,2-.75,.78-1.46,1.58-2.19,2.38l-.27,.24c-.58,.72-1.16,1.44-1.73,2.17-.65,.84-1.39,1.58-2.32,2.11-.15,.09-.32,.13-.49,.2-.11,0-.23-.03-.34,0-1.81,.49-3.44,.11-4.95-.96-.34-.24-.71-.47-1.09-.63-.54-.23-.74-.07-.76,.55l-.3-.26s.13,0,.14-.02c.37-.64,.66-.73,1.29-.3,.3,.21,.57,.24,.9,.13,1.28-.42,2.34-1.22,3.47-1.98-.48-.07-.91-.09-1.3-.21-.52-.15-.63-.49-.24-.86,.48-.44,1.05-.79,1.54-1.16-.73-.37-.73-.56,.03-1.13,1.04-.78,2.27-1.09,3.5-1.42,.17-.04,.33-.09,.59-.16-.15-.07-.22-.1-.29-.13-.54-.26-.6-.59-.19-1.02,.69-.72,1.56-1.1,2.5-1.33,.16-.04,.32-.07,.42-.1l-.3-.82c-.76,.29-.85-.45-1.13-.94l.18-.35,.04,.27c.14,.9,.54,1.08,1.3,.59,.11-.07,.21-.15,.31-.24,.31-.3,.62-.61,.93-.92l-.45,.75c2.08-1.01,4.2-1.47,6.5-1.29-.48-.68-.39-.96,.34-1.2,.11-.04,.22-.06,.33-.09,.93-.22,1.83-.03,2.73,.28-.04-.43,.13-.67,.54-.67,.32,0,.65,.04,1,.07-2.18-1.05-5.88-1.16-7.89,.76-.19,.18-.39,.35-.61,.49-.49,.32-.86,.19-1.05-.37-.02-.07-.1-.12-.15-.17l.23-.31c.03,.17,.03,.25,.05,.32,.11,.55,.4,.67,.86,.35,.16-.11,.3-.24,.45-.37,.72-.63,1.53-1.11,2.47-1.31,.76-.16,1.52-.25,2.31-.38l-.92-.05v-.1l2.23,.13,1.6,.46h.17l.29,.1,.2,.1,.19,.1,.2,.1v.12l.49,.27h.19l.1,.11h0v.09l.31,.19s.02-.03,.02-.03c0-.02-.02-.05-.04-.07v.02s0-.06,0-.09v-.33l.99,.67,.59,.52c.53,1.11,.83,1.55,1.2,1.66-.28-.86-.74-1.57-1.32-2.2-.05-.05-.18-.03-.27-.04l-.09-.1c-.1-.14-.17-.3-.3-.41-.37-.3-.76-.58-1.14-.86-.42-.26-.8-.59-1.25-.76-3.11-1.19-6.15-.85-9.13,.48-.15,.07-.3,.13-.45,.19,1.6-.98,3.36-1.4,5.2-1.61l-2.18,.21c.64-.46,1.38-.28,2.04-.53-.28-.13-.53-.34-.79-.35-.5-.01-.99,.1-1.49,.15-.79,.09-1.58,.17-2.37,.25l-.25,.04-1.44,.31c.15-.08,.3-.19,.46-.24,.62-.19,1.24-.36,1.86-.54-.87,.16-1.7,.42-2.54,.69-.03,0-.04,.08-.06,.13l-3.87,2.01c1.71-1.45,3.67-2.43,5.84-2.95,2.18-.52,4.39-.54,6.61-.27l-.91-.25h0l.43-.02v-.14h-4.57v-.12l.61-.03v-.12l-2.98,.4c2.43-.67,4.87-.73,7.35-.3-.16-.07-.31-.12-.47-.14-2.19-.39-4.37-.24-6.55,.13-.41,.07-.83,.05-1.24,.07l-.14-.24,1.54-.43-.03-.1-2.77,.71v-.04l.89-.35-.03-.08-1.33,.4c2.5-1.02,5.11-1.38,7.79-1.21,2.72,.17,5.2,1.04,7.37,2.74l.08-.14-1.04-.89,.28-.1,.26,.1h.14l.06-.17v-.13c.5,.41,1.07,.77,1.46,1.26,.74,.92,1.38,1.92,2,2.8,.48-.44-.15-.81-.27-1.29l.31-.04-.18-.42h.27l-.16-.94,.13-.02h.02l.13,.02c.2-.36-.1-.51-.31-.69h-.05l-.02-.02-.14-.06,.04-.14,.74,.49,1.14-.15c.04-.82,.49-1.08,1.3-.62,.32,.18,.58,.45,.89,.7,.04-.43,.05-.87,.14-1.31,.18-.93,.56-1.77,1.32-2.38,.46-.37,1.01-.74,1.6-.41,.62,.34,.59,1.03,.6,1.65,0,.14-.05,.28-.07,.39l.57,.29v.78c-.51,.83-.67,1.77-.66,2.71,.02,1.5,.14,2.99,.23,4.49,.12,1.97-.02,3.91-.66,5.78-1.14,3.33-3.52,5.33-6.81,6.38-2.14,.68-4.26,.66-6.36-.1-.36-.13-.87-.18-.85-.77l.15-.09h0c.17,.05,.34,.1,.5,.17,3.24,1.35,6.26,.77,8.95-1.29,2.51-1.92,3.44-4.69,3.65-7.75,.16-2.4-.49-4.72-.65-7.08-.13-1.92-.06-3.76,1.42-5.29-.27-.03-.52,0-.77,.03-.91,.1-1.23,.87-1.63,1.5-.23,.36-.31,.83-.39,1.26-.07,.36-.06,.74-.04,1.11,.01,.43,.07,.87,.11,1.34l-.77-.83v-.18l.11-.03h-.01l.12,.11,.03-.03s-.04-.04-.05-.06h0l-.1-.09h0c-.11-.39-.34-.65-.78-.68l-.2,.1-.2,.1h-.19v.09h0v.11l-.18,.15,.37,.53-.53-.16,.18,.27-.87-.4-.02,.05,.6,.45-1.1-.17,.51,.91-.23,.12c.09,.1,.43,.91,.53,1.05,.27,.4,.58,.78,.86,1.18,.11,.16,.19,.34,.28,.5h-.1l-.1-.09-.43-.29h-.45l.09,.3,.06,.1,.15,.24,.08,.22-.36,.05c.25,.51,.44,1.03,.73,1.49,.96,1.51,1.59,3.1,1.28,4.93-.11,.63-.37,1.24-.57,1.86,.08-.56,.21-1.12,.23-1.68,.02-.63-.05-1.26-.08-1.89h-.15c.18,1.21,.16,2.39-.32,3.54,.1-.87,.27-1.74,.28-2.61,0-.6-.22-1.21-.34-1.81l-.18,.03c.65,1.6,.55,3.16-.15,4.7,.12-.52,.24-1.04,.35-1.56,.18-.85,.07-2.05-.24-2.63,.03,.14,.05,.22,.06,.3,.22,1.16,.24,2.31-.26,3.42,.1-.77,.25-1.54,.27-2.31,.02-.73-.13-1.44-.58-2.08-.15,.13-.35,.22-.39,.35-.12,.4-.22,.82-.24,1.24-.02,.37,.11,.74,.13,1.11,.04,.64,.14,1.31-.46,1.78l.21-1.3h-.08l-.09,.32-.08-.66-.26,1.17c.03-.24,.11-.48,.09-.72-.02-.22-.15-.42-.23-.63l-.16,.05c-.07,.36-.1,.73-.21,1.08-.65,2.14-2.88,2.88-4.85,2.47-.59-.12-1.12-.56-1.67-.86l-.11-.04-.1-.1-.09-.19-.11-.08c-.43-.52-.49-1.1-.28-1.72l.09-.26h0l.09-.2h0l.48-.46v-.17s-.05-.05-.08-.06c.03,0,.06-.01,.09-.03l.12-.05c.29,.17,.49,.36,.54,.75,.05,.36,.56,.5,.93,.34,.55-.23,.7-.97,.26-1.44-.48-.53-1.08-.76-1.8-.58-1.89,.48-2.69,2.57-1.63,4.32,.8,1.31,2,2.02,3.55,2.07,.53,.02,1.06,0,1.59,0v.11h-3.08l-.5-.11-.17-.02s0-.03,0-.05l-.31-.22-.29-.2-.1-.1-.67-.73c-.07-.2-.11-.4-.21-.58-.38-.73-.48-1.51-.39-2.31,.1-.88,.59-1.52,1.36-2l-.3-.08-.09-.18s0-.05,0-.08v-.12s-.01-.06,0-.08l.1-.1,.32-.13-.18-.19-.43,.33-.2,.1-.1,.1c-.27,.25-.54,.5-.81,.76-.06,.1-.12,.2-.19,.3-.03,.07-.05,.14-.08,.21-.14,.13-.35,.23-.4,.38-.31,.92-.3,1.88-.09,2.8,.17,.73,.52,1.42,.78,2.13-.64-.7-.96-1.55-1.03-2.46-.06-.8-.09-1.64,.1-2.41,.55-2.32,2.96-3.52,5.19-2.67,.15,.06,.29,.11,.53,.21-1.28-1.1-3.27-1.18-4.84-.26-.31,.18-.61,.35-.92,.53,.06-.16,.07-.4,.18-.46,.77-.41,1.45-1.06,2.42-1.01,.21,.01,.42,0,.62,0v-.09h-1.57c1.08-.17,2.13-.08,3.14,.37,.32,.14,.71,.14,1.06,.2l.1,.02,.09,.1v.02h.09v-.12c.7,.43,.91,1.2,1.26,1.86,.06,.11,.03,.26,.05,.39h.08l-.07-1.5h.06l.14,1.51h.06v-1.41h.08v1.54c.34-.77,.19-1.54,.03-2.3h.13l.21,1.75c.19-1.37-.14-2.58-1.26-3.47-.33-.26-.76-.44-1.17-.56-.47-.14-.68,.13-.54,.6,.05,.16,.12,.31,.19,.46-.55-.26-1.06-.56-1.61-.75-1.03-.37-2.1-.46-3.15-.06-.2,.08-.35,.3-.52,.46,.18,.14,.35,.29,.53,.42,.06,.05,.14,.07,.24,.12-.07,.06-.11,.12-.16,.14-1.03,.43-1.68,1.26-2.27,2.15-.3,.44-.59,.89-.89,1.34l.02-.64-.04-.28h-.1l-.09,.07v.18l-2.07,2.38,.05,.06,.43-.95-.05-.03-.28,.32-.07-.04,.31-.58-.25,.12-.1-.08,1.81-2.17-.03-.03-2.58,2.52-.54,.2-.13-.04Zm1.34-2.69l-.1,.09s-.07,.05-.11,.07l-.02,.03v-.03s.08-.05,.12-.07c.03-.03,.07-.06,.1-.1l.1-.12,.16-.09-.04-.05s-.08,.1-.12,.15l-.1,.12Zm-.68,.57h-.02l-.04,.04v.04l-.1,.1h.01l-1.06,.98h-.28v-.46l-4.64,4.95-.09-.09c.79-.77,1.58-1.54,2.38-2.31,.14-.13,.3-.24,.45-.36-.63,.67-1.26,1.35-1.9,2.02-.26,.28-.53,.55-.8,.83l.13,.12c.93-.96,1.85-1.92,2.78-2.87,.11-.12,.28-.19,.42-.28l-.39,.82-.61,.55-.37,.32c-.16,.1-.34,.17-.46,.3-.6,.6-1.19,1.22-1.78,1.84l.2,.19c.66-.74,1.32-1.48,1.99-2.22-.09,.16-.17,.35-.29,.49-.65,.75-1.31,1.5-1.97,2.25,.49-.4,.93-.84,1.35-1.31,.47-.53,.93-1.08,1.39-1.62-.16,.26-.29,.54-.47,.78-.38,.52-.79,1.03-1.19,1.54l.12,.09c1.31-1.7,2.62-3.4,3.93-5.1l.02-.02c.4-.4,.81-.79,1.19-1.21,.09-.1,.1-.27,.15-.41l-.02-.03-.02,.03Zm11.42,2.94v-.12l.09-.09h.22l.03,.07,.06-.07,.1-.08-.07-.19c.19-.42,.41-.85,.11-1.33-.08,.13-.09,.28-.14,.41-.11,.28-.25,.54-.38,.81l-.02-.14v-.15h-.08c-.03,.09-.07,.19-.1,.29h-.1l-1.24,.27,.54,.05-.19,.41,.79-.05s.06,0,.1,0h.19l.1-.08Zm.09-3.13h-.01v0Zm9.22,4.78l.1-.19h0l.1-.2,.3-.4-.07-.06-.25,.18h0l-.19,.29v.15c0,.08,0,.16,.01,.25l-.09,.12-.21,.27-.1,.1-.39,.33c-.09,.02-.2,0-.25,.05-.32,.33-.62,.68-.92,1.02-.44,.03-.66,.35-.87,.72l.35-.09s.06-.02,.09-.03l.43-.49c.18-.1,.39-.17,.54-.31,.2-.19,.36-.43,.54-.64l.11-.08v.02l.27-.22h.1l.3-.42-.02-.09c0-.05,.01-.1,.02-.15l.09-.12Zm-9.58-4.1l.08,.05,.48,.89c.13-.88-.42-1.68-1.37-1.79l.74,.7,.06,.09s-.01,.04,.01,.05Zm11.34-11.67s-.14,.17-.19,.32c-.36,1-.34,2.05-.29,3.09,.06,1.58,.19,3.15,.27,4.73,.02,.35-.04,.71-.07,1.07-.2-1.62-.47-3.21-.56-4.81-.07-1.34,.01-2.7,.17-4.03,.08-.63,.49-1.22,.75-1.83-.23,.28-.54,.56-.64,.91-.22,.79-.5,1.61-.48,2.42,.04,1.82,.25,3.63,.39,5.45,.17,2.22,.11,4.41-.61,6.55-.05,.14-.05,.31-.07,.46,.21-.18,.33-.37,.41-.58,.78-2.31,.92-4.69,.78-7.1-.09-1.54-.22-3.09-.23-4.63,0-.69,.25-1.38,.38-2.01Zm.17,7.59v2.7h-.08v-1.73c-.27,1.82-.01,3.7-.75,5.45,.93-2.06,1.03-4.23,.83-6.42Zm-.05-8.56c-1.3,2.19-.89,4.55-.66,6.89-.09-2.33-.59-4.69,.66-6.89Zm-8.42,20.78c-1.63,.3-3.24,.13-4.83-.27,1.58,.54,3.19,.74,4.83,.27Zm-2.4-14.16c.28,.35,.59,.68,.84,1.05,.25,.36,.47,.74,.65,1.14,.18,.39,.3,.81,.48,1.3-.1-1.29-1.28-3.33-1.98-3.49Zm9.97-6.91c-.66,.9-.99,2.61-.75,3.78,.06-1.34,.08-2.62,.75-3.78Zm.48,4.9c.04-1.3,0-2.61,.75-3.77-.92,1.12-.76,2.46-.75,3.77Zm-1.08-.03l.09,.02,.16-3.54h-.11l-.15,3.52Zm-19.4-3.53v-.07c-.39,.04-.77,.07-1.15,.13-.38,.06-.75,.15-1.13,.23v.08l2.28-.36Zm12.68,10.46l.12-.02-.17-1.62h-.1l.15,1.64Zm-12.3-10.96v.03h2.18v-.03h-2.18Z"/><path d="M5.74,15.7c.09-.02,.25-.02,.26-.07,.11-.38,.39-.45,.73-.42,1.06,.1,1.87,.64,2.45,1.51,.28,.42,.5,.87,.75,1.32,.82-.18,1.38,.05,1.72,1.06,.27,.8,.77,.94,1.46,.94,1.05,0,2.1,0,3.15,0v-.15c-.2-.15-.42-.29-.61-.46-.48-.42-.45-.98,.14-1.2,.63-.24,1.31-.38,1.99-.43,.92-.07,1.85-.02,2.71-.02-.05-.33-.22-.7-.1-.88,.16-.24,.54-.46,.84-.48,3.66-.24,6.97-1.58,10.17-3.23,3.5-1.81,6.9-3.81,10.44-5.54,4.63-2.26,9.33-4.37,14.28-5.88C60.27,.49,64.55-.08,68.87,0c4.87,.1,9.64,.93,13.99,3.29,1.47,.79,2.8,1.84,4.19,2.77,.19,.13,.39,.24,.57,.37,.44,.33,.87,.67,1.31,1.01-.14-.07-.29-.13-.42-.21-.37-.23-.72-.52-1.12-.68-.29-.12-.67-.17-.95-.08-.12,.04-.1,.52-.14,.79,0,0-.08-.05-.13-.11-1.62-1.6-3.59-2.49-5.83-2.82-.44-.06-.91-.02-1.35,.06-.44,.08-.53,.39-.26,.76,.16,.22,.33,.42,.42,.52h-2.7v-.12h1.64v-.09h-2.33v-.1h1.04v-.08l-1.1-.05v-.05l.82-.04c-.32-.09-.65-.08-.97-.09-.69,0-1.39,.03-2.08-.03-.84-.07-1.52,.13-2.06,.88l.83,.38c-.69,.24-1.36,.48-2.04,.72-.02,0-.03,0-.05,0h-.44l-.11,.03c.59-.24,1.19-.47,1.78-.7,.07-.03,.15-.02,.25-.14-.17-.02-.33-.07-.5-.06-2.72,.16-5.34,.7-7.75,2.05,.11-.11,.21-.25,.34-.32,.45-.23,.89-.51,1.36-.65,1.43-.44,2.87-.82,4.04-1.15-1.6,.04-3.36,.7-5.12,1.27-1.59,.52-2.93,1.54-4.15,2.7-.09,.08-.19,.15-.29,.23,1.01-1.19,2.24-2.08,3.58-2.81-2.37,1.14-4.42,2.64-5.65,5.06,.77-1.99,2.32-3.29,3.98-4.49-.69,.43-1.37,.87-1.97,1.41-.59,.53-1.09,1.17-1.63,1.76l-.06-.04,1.07-1.42c-1.69,1.42-2.89,3.15-3.49,5.29l.09-.71-.23,.53-.08-.03c.13-.45,.25-.9,.38-1.35,.1-.32,.48-.59,.19-.99l1.19-1.75,1.59-1.63c.32-.28,.63-.57,.95-.84,.23-.19,.48-.36,.73-.54l-.06-.09-.24,.08-.29,.09-1.44,.89-.92,.79c-.24,.16-.48,.33-.72,.48-.22,.13-.5,.2-.68,.37-.36,.32-.67,.69-1,1.05l-.41,.19c-.39,.54-1.03,.91-1.08,1.66l-.07,.41c-.75,1.33-1.35,2.73-1.71,4.22-.19,.77-.26,1.54,0,2.36,.26-.32,.5-.64,.58-1.01,.18-.79,.26-1.6,.42-2.39,.16-.84,.31-1.68,.89-2.37-.69,1.46-.9,3.04-1.1,4.62-.03,.22-.09,.45-.18,.66-.25,.65-.61,.81-1.33,.55,.1,.68,.21,1.31,.3,1.95,.04,.26,.06,.52,.05,.78-.06,.88-.41,1.07-1.23,.73-.07,.84-.06,1.72-.24,2.55-.12,.58-.46,1.13-.79,1.64-.19,.28-.55,.5-.92,.16,.29-.1,.71-.11,.84-.31,.33-.52,.66-1.11,.75-1.7,.19-1.18,.19-2.36-.13-3.57-.26-.99-.23-2.06-.32-3.09l-.06-.02-.41,4.27c0-.79,0-1.59,.08-2.37,.12-1.07,.29-2.13,.45-3.19,.04-.27,.15-.52,.23-.78l-.13-.04c-.24,.86-.51,1.71-.7,2.57-.19,.86-.34,1.73-.41,2.6-.07,.86-.01,1.74-.01,2.64-.21-1.27-.13-2.52,.03-3.77,.12-.9,.2-1.81,.3-2.72l-.2-.04c-.24,.84-.54,1.66-.71,2.51-.18,.87-.32,1.77-.35,2.66-.03,.85,.1,1.7,.17,2.56-.17-.58-.3-1.17-.32-1.76-.11-3.07,.84-5.86,2.3-8.51,2.04-3.69,5.12-6.33,8.61-8.55,.16-.1,.29-.25,.43-.37,.17-.04,.34-.06,.5-.13,.44-.2,.87-.44,1.31-.64,.92-.41,1.85-.81,2.78-1.21-.12-.01-.23,0-.32,.05-1.37,.61-2.75,1.23-4.12,1.84,.14-.12,.27-.27,.43-.36,.52-.29,1.06-.55,1.59-.82l-.05-.1-3.62,1.89-.06-.13,4.21-2.19-.02-.06-2.44,1c1.94-1.07,4.04-1.7,6.14-2.3-2.67,.54-5.24,1.38-7.67,2.64,.96-.53,1.93-1.03,2.94-1.42,1.03-.4,2.09-.71,3.15-1.02,1.03-.29,2.07-.52,3.11-.78-2.67,.36-5.23,1.1-7.71,2.17,2.15-1.16,4.49-1.74,6.83-2.29-.18-.01-.36,0-.53,.04-1.55,.42-3.1,.84-4.65,1.27-.13,.03-.33,.14-.36,.1-.32-.43-.6-.05-.87,.04-.63,.2-1.24,.44-1.86,.67l-.19-.09-.5,.08-.19,.22-.2,.1c-.49,.26-.98,.52-1.46,.78l-.49,.29-.2,.1-.1,.1-.19,.09-.1,.1-.2,.1-.29,.2-.3,.19-.3,.2h.01l-.11,.1h0c-.11,.05-.21,.11-.32,.17l-.05,.06,.09-.02,.31-.11,.28-.12,.16-.09,.1-.1,.1-.1h.17l.33-.19h.11l-.08,.45c.18-.1,.34-.21,.52-.27,.12-.04,.27,0,.4,0-.02,.15-.02,.31-.06,.45-.03,.08-.11,.16-.19,.22-1.32,1.03-2.81,1.7-4.43,2.1,.04-.05,.08-.09,.12-.14,0,0,0-.03-.01-.06l-1.7,.26,.02,.14,1.58-.21-2.22,.42c1.11,.23,2.11-.15,3.12-.43l.03,.21-3.22,.53,.78,.34-2.09,.44v.1l.42,.06c-.17,.08-.35,.07-.51,.08-.16,0-.32,.03-.47,.05l.04,.22,2.58-.4,.02,.14-2.92,.41s.06,.06,.12,.07c1.24,.18,2.34-.37,3.5-.63-1.22,.5-2.45,.93-3.8,.81,1.84,.36,3.44-.46,5.08-1.1-1.6,.88-3.24,1.58-5.13,1.42,1.12,.81,2.34,.61,3.66,.29l-1.27,.98,.06,.09,.81-.46,.05,.1-1.54,.91c.57,.02,.88-.56,1.49-.22l-1.39,.77,.59,.15-1.31,1.19-.33-.22,1.14-.92c-.42-.17-.49-.47-.2-.97l-1.57,1.42-.1-.1,.6-.83,1.25-1.17-.06-.06-.94,.8,.03-.38c-.39,.41-.7,.75-1.02,1.07-.37,.38-.75,.74-1.12,1.12l-.11-.05v-.56l.18-.38s0-.03-.02-.04c0,0-.03-.02-.04-.01-.14,.16-.28,.33-.41,.5h.01l-.11,.1h-.09c-.12,.1-.27,.17-.37,.29-.43,.5-.85,1.02-1.28,1.53l-.11,.12-.1-.18c.05-.14,.11-.28,.15-.42,.05-.15,.08-.31,.11-.46l.11-.3,.1-.1,.1-.1,.43-.31-.17-.14-.26,.46-.1,.1-.1,.1-.4,.37c-.41,.41-.87,.78-1.21,1.24-.88,1.22-1.71,2.49-2.56,3.73-.11,.16-.28,.29-.42,.44l-.03-.15v-.15l.02-.2-.02-.1s.03-.06,.02-.09l.03-.03s-.03-.04-.04-.06l.2-.54s.05,.02,.07,.02h.19l.09-.26h-.02l-.15-.02s-.06,0-.09,0v-.32l.08-.23-.06-.03c-.09,.1-.18,.19-.27,.29h-.15l-.09,.09h.01l-.19,.29-.1,.1-.3,.27c-.18,.11-.39,.2-.52,.35-.52,.57-1.01,1.17-1.51,1.76l-.67,.47h-.15s-.05,0-.08,0c-.05-.02-.13-.08-.15-.06-.13,.12-.26,.24-.38,.37l-.48,.27,.02-.26-.95,.6c-.14,.07-.3,.13-.43,.21-.77,.5-1.52,1.03-2.48,1.12l-.22,.09h0l-.2,.09c-.28-.27,.03-.31,.17-.38,2.72-1.22,5.11-2.93,7.32-4.89,.83-.74,1.47-1.69,2.2-2.55,.14-.17,.26-.36,.39-.54l-.12-.11c-.18,.15-.36,.3-.54,.45-3.26,2.81-6.7,5.3-11.06,6.1l.07,.16h0l-.52-.51c-.17,.01-.46,.11-.69,.03-.21-.08-.35-.35-.53-.55-.57,.42-1.18,.95-1.86,1.35-.62,.36-1.31,.68-2.01,.82-1.04,.21-1.33-.21-.9-1.2-1.33,.53-2.69,.72-4.09,.65-2.56-.12-4.82-.98-6.71-2.74-.24-.22-.44-.32-.8-.32-.45,0-.93-.13-1.36-.31-.6-.24-1.15-.63-1.75-.85-.49-.18-1.03-.21-1.55-.31-.22-.04-.57-.05-.63-.18-.09-.2-.04-.51,.07-.72,.11-.22,.35-.37,.53-.55h0l.33,.11-.89,.82c.69,.14,1.23,.25,1.76,.34,.05,0,.11-.06,.16-.09l.2,.1,.09,.1h.59l.28,.31,.07-.06-.16-.19-.08-.24,.49-.11,.1-.1-.04-.3c-.11-.27-.18-.58-.36-.8-.27-.34-.63-.6-.93-.91-.3-.32-.54-.73-.89-.96-.66-.43-1.4-.77-2.1-1.15-.01,0-.01-.04-.02-.08,.09,.01,.18,.01,.25,.03,1.63,.42,2.91,1.35,3.94,2.65,.74,.95,1.38,1.98,2.15,2.91,2.03,2.48,4.77,3.41,7.88,3.46-.34-.1-.68-.18-1.03-.22-.75-.09-1.32-.56-1.92-.94l-.08-.07,.03-.15h0l-.32-.43-.44-.58-.13-.02h-.12v-.09c-.02-.08-.02-.16-.05-.23-.33-.75-.66-1.5-.95-2.15,.01-.05,0,.03-.04,.18l-.04-.7h-.06l-.07,.54h-.04v-1.16c-.24,.17-.47,.34-.49,.55-.06,.49-.03,1-.03,1.5-.47-.89-.36-1.73,.28-2.63-.31-.15-.59-.37-.89-.4-.12-.01-.29,.36-.37,.47l-1.7-2.7-.21,.41-.13-.11-.27-.24,.3,.73c-.11-.13-.2-.29-.33-.39-.34-.28-.7-.54-1.06-.81l-.09,.12c-.68,.02-.04,.48-.25,.7l-.55-.57,.04-.05Zm25.58,2.44l-.07,.13-.59,.4-.39,.18c-.15,.07-.33,.11-.45,.21-.93,.81-1.84,1.63-2.76,2.45l.07-.29c-.17,.15-.27,.23-.37,.31-.7,.59-1.4,1.19-2.1,1.78l.58-.68-4.62,2.98c.59-.05,1.18-.4,1.78-.76,.45-.27,.9-.55,1.36-.83l-2.28,1.63s.04,0,.13-.03c1.43-.46,2.54-1.4,3.6-2.42,.28-.27,.6-.48,.9-.72l-.76,.81,.09,.09c.57-.55,1.12-1.11,1.7-1.64,.87-.8,1.75-1.59,2.62-2.38-.08,.11-.16,.25-.26,.34-.5,.47-1.01,.92-1.5,1.4-.89,.86-1.77,1.73-2.65,2.6,.18-.06,.33-.17,.47-.29,.73-.7,1.46-1.4,2.19-2.09,.14-.13,.31-.22,.47-.32l-2.23,2.29c.25-.14,.45-.33,.65-.51,.39-.33,.78-.66,1.18-.99l-2.15,2,.16,.17c.17-.14,.34-.27,.5-.43,1.73-1.67,3.46-3.35,5.19-5.03,.1-.1,.12-.27,.17-.41v-.1h-.01l.11-.1h-.01l.11-.1h-.01l.5-.39h-.01l.11-.1h-.01c.17-.12,.33-.25,.5-.38l.08-.12c.17-.13,.33-.25,.5-.38l.5-.31c.57-.39,1.14-.78,1.71-1.18,.48-.34,.94-.7,1.41-1.05l-.13-.18-2.99,2.3-.48,.42c-.17,.13-.33,.25-.5,.38l-.1,.1-.28,.11-.48,.29-.42,.33s-.04,.04-.07,.06c-.17,.13-.34,.27-.5,.4-.04,.02-.08,.05-.12,.07Zm11.18-8.87l-.2,.1-.51,.32-.27,.28-.2,.16c-.2,.03-.44,0-.6,.1-.47,.3-.91,.65-1.37,.99l-1.74,1.11c-.13-.03-.32-.14-.39-.09-.6,.39-1.19,.81-1.77,1.22l-1.38,1.19,.11,.14,2.15-1.62,.72-.37c.2-.08,.42-.13,.61-.24,.61-.34,1.21-.7,1.81-1.05l-1.72,1.22,.04,.06c2.32-1.44,4.64-2.88,6.96-4.31l-.03-.09h-.67l-.1,.1-.2,.1-.2,.1c-.16,.1-.33,.2-.49,.29l-.19,.1-.19,.1-.2,.1Zm-9.31,12.12l.02-.03,.14-.08s.05-.01,.06-.04l.05-.05,.15-.03,.06-.07s.03-.02,.03-.04l.17-.06,.41-.31s.03-.02,.03-.04l.19-.11h.03c.55-.38,1.1-.75,1.64-1.15,3.76-2.75,6.89-6.23,10.55-9.1l4.01-2.98-.07-.11c-.17,.1-.35,.19-.52,.29-.26,.14-.53,.29-.79,.43l-.02-.16v-.03l.13-.2v-.13l.09-.1h.08l-.02-.06-.05,.06-.1,.1-.2,.1h.01l-.11,.1h.01c-.07,.02-.13,.06-.2,.09l-.1,.1-.29,.19-.1,.1-.2,.02c-.18,.05-.38,.06-.52,.16-.76,.55-1.52,1.12-2.26,1.7-.28,.22-.51,.5-.77,.75l-.17,.05v-.18l-.27,.04-.29,.09-.3,.12-.39,.07-.06-.12c.3-.22,.61-.43,.9-.66,.07-.06,.09-.19,.13-.29h-.11c-.22,.19-.44,.4-.68,.58-.25,.19-.53,.33-.79,.51-.92,.64-1.85,1.26-2.75,1.92-.41,.3-.77,.68-1.16,1.03l.15,.16c.45-.41,.89-.83,1.36-1.22,.22-.18,.53-.4,.76-.08,.09,.13-.08,.44-.13,.67,0,.03,0,.06,0,.09l.23,.07-.1,.18h-.15c-.5,.24-1.02,.44-1.49,.73-1.11,.69-2.25,1.26-3.53,1.56-.21,.05-.42,.1-.64,.15,.15,.08,.3,.09,.42,.04,1.18-.45,2.35-.91,3.53-1.37,.16-.06,.33-.09,.5-.14l-.51,.41c-.15,.04-.32,.05-.46,.11-1.2,.58-2.42,1.11-3.77,1.27-.07,0-.13,.09-.2,.14l.05,.14c.68-.19,1.37-.37,2.04-.57,.4-.12,.79-.28,1.18-.42-1.01,.66-2.16,.95-3.34,1.16,.1,.04,.2,.06,.29,.05,1.95-.27,3.62-1.19,5.24-2.24,.08-.05,.08-.22,.12-.33,.03,0,.05,0,.08-.01l.32-.18h.12c-.09,.16-.15,.37-.29,.45-.99,.59-1.97,1.22-3.01,1.69-.94,.43-1.96,.69-3.06,1.06l1.29,.49-4.44,2.03c.23-.06,.43-.08,.59-.16,1.16-.52,2.31-1.05,3.46-1.57,.16-.07,.32-.13,.48-.2-.01,.03-.02,.07-.04,.08-1.47,.87-2.95,1.7-4.66,2.02-.06,.01-.11,.08-.17,.12l.05,.12c.49-.14,.99-.25,1.47-.44,.74-.28,1.46-.61,2.19-.93-1.2,.8-2.53,1.32-3.92,1.7,.49-.03,.97-.11,1.4-.28,2.07-.84,3.99-1.96,5.79-3.3,.23-.17,.49-.31,.73-.46-.12,.12-.23,.26-.37,.37-2.3,1.74-4.7,3.29-7.58,4.1l1.17,.34-1.13,.45,.13-.26-1.84,.59,.03,.08,1.16-.28-2.34,.79,.03,.11,3.22-.98,.04,.13-3.95,1.19,.04,.12c.17-.02,.35-.01,.52-.07,1-.32,2-.65,3-.99,.38-.13,.75-.28,1.13-.42-.03,.04-.05,.09-.09,.11-1.45,.7-2.92,1.33-4.54,1.54-.17,.02-.33,.09-.49,.14,.07,.12,.12,.14,.16,.14,.11,0,.23,0,.34-.03,1.46-.27,2.85-.78,4.16-1.47,.18-.1,.39-.15,.58-.23-1.52,1.02-3.19,1.61-5,1.87-.15,.02-.31,.05-.46,.08l.03,.18c.47-.06,.95-.07,1.4-.19,1.62-.46,3.11-1.2,4.56-2.05,.1-.06,.13-.24,.19-.37l.11-.11,.11-.09s.06,0,.09-.02l.08-.08Zm-.55-5.63c-.17,.01-.37-.03-.5,.05-.34,.2-.65,.45-.97,.69-.67,.48-1.34,.96-2.01,1.44-2.88,2.07-5.81,4.07-9.15,5.36-.25,.1-.5,.19-.75,.28,1.18-.21,2.29-.58,3.34-1.16,.31-.17,.63-.3,.95-.45l-3.08,1.84c.49-.22,.93-.39,1.34-.6,.68-.34,1.34-.7,2.01-1.05,.15-.09,.31-.16,.44-.26,1.81-1.28,3.35-2.93,5.38-3.92,.44-.21,.79-.6,1.19-.9l.22-.09c.16-.05,.35-.07,.49-.17,.59-.41,1.16-.84,1.74-1.26,.1-.07,.24-.08,.36-.12l-.22-.24-.79,.55Zm-10.36,8.2c1.42-1.02,2.85-2.04,4.26-3.07,.24-.17,.44-.38,.67-.57l-.02-.02c-1.65,1.2-3.3,2.4-4.95,3.6l-1.87,.97,.09,.15,1.82-1.07Zm11.4-8.45c-.06,.03-.12,.05-.17,.09-2,1.56-3.99,3.13-5.98,4.7-.09,.07-.16,.16-.24,.25,.23-.09,.4-.23,.58-.37,1.95-1.54,3.9-3.08,5.86-4.63l3.63-2.49-.09-.12-3.58,2.58Zm16.97,8.21l.16-.02c.06-.19,.17-.38,.17-.57,.01-.45,.03-.92-.05-1.36-.22-1.21-.28-2.42-.07-3.64,.43-2.53,1.62-4.71,3.21-6.7,.08-.1,.15-.21,.23-.32l-.12-.08c-.62,.82-1.21,1.65-1.86,2.44-.68,.82-1.3,1.67-1.66,2.68-.74,2.07-1.16,4.17-.52,6.35,.12,.42,.34,.82,.51,1.22Zm-5.57-17.03l-.03-.08c-.16,.07-.31,.13-.46,.21-2.97,1.59-5.95,3.16-8.9,4.79-4.07,2.25-8.12,4.55-12.18,6.83-.03,.02-.08,.02-.11,.03,.2,.03,.34,0,.47-.07,2.34-1.21,4.72-2.35,7.02-3.64,3.56-2,7.05-4.12,10.59-6.16,1.18-.68,2.4-1.28,3.61-1.91Zm-21.4,11.01v.06c.5-.18,1-.32,1.46-.56,2.49-1.32,4.99-2.61,7.43-4.01,3.74-2.15,7.44-4.37,11.32-6.25,.3-.14,.59-.29,.89-.43-.16-.02-.3,.02-.42,.08-1.22,.61-2.47,1.17-3.67,1.83-4.03,2.24-8.02,4.53-12.05,6.76-1.62,.9-3.31,1.68-4.96,2.52Zm1.32,.67l-.02-.02c.12-.04,.24-.08,.35-.13,1.17-.6,2.38-1.15,3.51-1.81,4.44-2.6,8.85-5.23,13.28-7.86,.04-.03,.08-.07,.12-.1l-.07-.11-17.17,10.03Zm3.18-1.15c2.5-1.12,4.74-2.68,6.98-4.24l-6.98,4.24Zm-4.14,5.03l.09,.13,4.83-3.8-.08-.11-4.84,3.77Zm6.46-8.27l-.06-.15-4.26,2.2,.06,.12,4.27-2.17Zm19.57,8.98c-.54-1.64-.52-3.3-.19-4.97-.44,1.68-.54,3.34,.19,4.97Zm-26.15,.25l-3.65,2.12c1.34-.49,2.52-1.27,3.65-2.12Zm-.82-1.49l-.06-.15-3.21,1.31,.04,.11,3.23-1.28Zm4.37-4.04l-.05-.11-3.25,1.57,.05,.1,3.26-1.57Zm23.73,.25l.1,.04,.93-2.77-.13-.04-.91,2.77Zm-.88-13.4l-.06-.13-2.06,.93,.04,.1,2.07-.9Zm.98,12.27h-.1l-.39,3.01h.06l.43-3.01Zm1.71-3.56l-.09-.05-1.18,2.28,.08,.04,1.19-2.27Zm-19.35,5.54l-.07-.16-1.69,.81,.04,.1,1.72-.74Zm-12.52,5.07l.05,.11,1.77-1.09-.06-.1-1.77,1.07Zm19.83-11.96l-.07-.1-1.72,1.17,.07,.1,1.72-1.17Zm-19.02,9.88l-.05-.1-1.7,.61,.03,.08,1.71-.6ZM69.93,5.8l.04-.09-1.9,.23v.09l1.86-.23Z"/><path d="M34.86,26.34l1.01-1.83-.22,.95,.1,.03,.58-.71-.28,1.31c.25-.13,.44-.29,.57-.48,.62-.97,1.24-1.94,1.83-2.92,.26-.43,.45-.9,.72-1.32,.14-.22,.39-.38,.59-.57l.07,.11-.27,.88,.09,.2,.15-.02-.3,1.22c.18-.11,.36-.16,.47-.28,.38-.43,.79-.86,1.1-1.35,.28-.46,.44-.99,.66-1.49-.05,.29-.14,.57-.13,.86,0,.18,.09,.42,.23,.51,.09,.06,.4-.06,.48-.18,.25-.39,.44-.83,.66-1.24,.16-.31,.34-.62,.51-.93-.31,.74-.59,1.5-.95,2.22-.21,.42-.74,.58-1.07,.07-.28,.4-.53,.81-.84,1.18-.22,.26-.48,.49-.77,.66-.55,.31-.95,.06-.98-.58,0-.08,0-.15,0-.37-.26,.49-.43,.87-.65,1.22-.52,.83-1.03,1.66-1.59,2.45-.49,.69-.91,.66-1.4-.04l-.36,.44Z"/><path d="M30.59,26.96l-1.87,1.08c.24,.02,.51,.11,.75,.06,.46-.09,.9-.26,1.34-.4,.15-.05,.3-.1,.45-.15-.72,.58-1.56,.79-2.45,.66-.23-.03-.41-.42-.59-.62-.64,.19-1.34,.45-2.06,.59-.45,.08-.95,.04-1.4-.06-.77-.16-.97-.78-.49-1.4,.61-.79,1.42-1.33,2.34-1.71,.16-.07,.32-.09,.14-.3h1.14l-.26,.27-2.15,.79,.04,.1,1.48-.4,.02,.09-1.94,.62,.03,.09,1.31-.28v.07l-1.59,.44,.27,.08-.9,.63,.38,.07-.34,.21c.11,.1,.21,.19,.31,.26,.6,.43,1.3,.37,1.92,.2,.8-.22,1.56-.61,2.34-.92l.3,.12-.56,.31c.64-.18,1.32-.29,1.75-.88l.52-.3c-.12,.16-.2,.39-.35,.48-.59,.35-1.2,.66-1.81,.99,.29-.06,.58-.14,.85-.26,.37-.16,.72-.36,1.07-.54Z"/><path d="M44.28,21.2v.83l.19,.17,.2-.51,.07,.04-.32,1.03,.06,.02,.74-1.58,.11,.05c-.17,.39-.37,.77-.51,1.16-.14,.4-.23,.82-.32,1.22l1.17-2.64,.13,.05c-.41,1.02-1.12,1.94-1.05,3.25,.09-.44,.13-.76,.22-1.07,.09-.32,.24-.63,.46-.91-.1,.31-.21,.63-.3,.94-.06,.22-.13,.44-.14,.66,0,.18,.08,.37,.13,.55,.18-.06,.35-.11,.53-.17,.06-.02,.11-.06,.17-.08-.25,.16-.49,.41-.76,.44-.17,.02-.5-.24-.55-.43-.17-.61-.23-1.25-.35-1.92-.38-.07-.56-.25-.37-.74,.27-.67,.63-1.31,1.04-1.9,.29-.41,.73-.7,1.11-1.04-.21,.22-.43,.43-.61,.67-.22,.29-.4,.6-.59,.9l-.46,.98Z"/><path d="M57.99,27.26l1.04,.31-.69-.45,2.74,.76,.03-.08-.44-.19,.02-.07c.34,.07,.67,.17,1.01,.21,.31,.03,.71,.12,.94-.03,.44-.29,.84-.03,1.25-.07,.27-.03,.55,0,.82-.06l-1.72-.24c1.13,.16,2.26,.16,3.38-.1-.8,.25-1.58,.57-2.39,.73-1.81,.36-3.61,.26-5.36-.39-.22-.08-.42-.22-.63-.34Z"/><path d="M.99,16.25l-.99-.38c.86-1.46,4.15-1.57,5.74-.17l-.04,.05c-.16-.07-.32-.15-.49-.2-.62-.19-1.24-.5-1.87-.53-.71-.03-1.42,.2-2.14,.31-.01,0-.02,.05-.02,.08l.23,.07v.05H.69v.07l.52,.06v.08H.55l.51,.44-.06,.07Z"/><path d="M53.81,16.21c.44,.07,.62-.13,.72-.57,.15-.69,.35-1.38,.59-2.05,.14-.4,.42-.74,.63-1.11,.29,.4-.09,.66-.19,.99-.06,.1-.14,.18-.17,.29-.28,.76-.55,1.52-.82,2.28-.02,.06-.03,.13-.03,.19-.05,.53,.2,1.14,.56,1.25,.53,.16,.9-.17,1.12-.57,.35-.63,.61-1.3,.92-1.97l.13,.21c-.07,.07-.16,.14-.2,.22-.26,.57-.47,1.16-.78,1.7-.23,.4-.62,.73-1.12,.59-.52-.14-.67-.61-.74-1.09-.01-.08-.01-.16-.02-.2l-.59-.16Z"/><path d="M32.21,26.78c.32-.34,.64-.68,.97-1.01,.07-.07,.2-.08,.3-.12l-.98,1.65,.06,.04,.49-.45-.36,.66c.18-.11,.34-.26,.46-.42,.32-.42,.64-.84,.96-1.26l-1.17,1.91,1.29-.62c-.34,.23-.65,.53-1.02,.67-.53,.21-.84-.07-.89-.66-.01-.14-.06-.27-.1-.4Z"/><path d="M65.97,12.64c-.2,.7-.44,1.38-.6,2.09-.21,.89,0,1.26,.91,1.31,.65,.03,1.32-.2,1.98-.34,.23-.05,.45-.17,.67-.26-.92,.67-1.93,.96-3.06,.7-.55-.13-.88-.52-.74-1.03,.22-.84,.56-1.64,.85-2.47Z"/><path d="M77.11,19.78l-.6,1.6,.11-.04c-.29,.85-.87,1.43-1.69,1.74-.42,.16-.83-.24-.78-.76,.09,.15,.14,.26,.21,.37,.16,.28,.41,.37,.65,.16,.38-.33,.79-.68,1.07-1.1,.4-.62,.7-1.31,1.04-1.97Z"/><path d="M46.29,16.89l-.77,.9,.48,.18-.46,.24,.07,.12c.22-.06,.43-.14,.66-.18,.13-.03,.28-.01,.42-.02l-.6,.37s-.06-.09-.09-.09c-.77,0-.94-.26-.58-.96,.14-.28,.36-.52,.55-.78l.33,.22Z"/><path d="M66.85,8.72c-.11,.15-.22,.3-.33,.46-.28,.41-.57,.81-.82,1.24-.21,.36-.01,.6,.34,.67,.31,.06,.64,.05,1.04,.08l-.44,.48,.06-.3c-.06-.01-.11-.03-.17-.04-1.14-.07-1.4-.54-.74-1.48,.29-.42,.7-.74,1.06-1.11Z"/><path d="M71.17,22.61l.27-.24s.03,.11,.01,.14c-.83,1.27-1.6,2.6-2.79,3.59-.07,.06-.16,.11-.29,.12,.04-.05,.07-.11,.11-.14,1.1-.92,1.84-2.13,2.64-3.29,.03-.05,.04-.12,.05-.19Z"/><path d="M3.97,19.34c-.66-.13-1.03-.62-1.41-1.11-.52-.66-1.04-1.32-1.57-1.98l.06-.07c.39,.42,.85,.79,1.17,1.26,.5,.72,.97,1.44,1.73,1.91h0Z"/><path d="M73.77,20.44l.54-.2c-.56,.64-1.12,1.27-1.69,1.91l1.14-1.71Z"/><path d="M57.25,15.13c.36,.17,.6,0,.75-.3,.3-.63,.57-1.27,.87-1.89,.13-.27,.3-.53,.45-.79-.42,.96-.81,1.94-1.27,2.88-.21,.42-.47,.41-.79,.1Z"/><path d="M73.77,20.44l-1.14,1.71-.52,.73-.23-.21,1.77-2.27,.13,.04Z"/><path d="M45.81,24.24s0-.1,.03-.14c.08-.12,.17-.23,.21-.27l.7,2.95c-.09-.12-.24-.22-.27-.35-.15-.61-.26-1.23-.4-1.85-.03-.15,.08-.44-.27-.34Z"/><path d="M69.05,26.07l1.96-2.49,.11,.09-1.96,2.49-.11-.09Z"/><path d="M58.19,25.21c-.27-.05-.53-.13-.8-.14-.22,0-.52,.02-.65,.16-.09,.1,.01,.41,.06,.62,.04,.15,.13,.29,.19,.44-.02,0-.04,0-.05-.01-.29-.31-.62-.66-.38-1.1,.24-.43,.7-.29,1.1-.19,.18,.05,.35,.15,.53,.22Z"/><path d="M72.75,25.15c-.75,.94-1.79,1.45-2.34,1.16,.97,0,1.6-.65,2.26-1.23l.07,.07Z"/><path d="M78.18,19.3c.43-.49,.85-.98,1.28-1.47-.04,.11-.06,.25-.13,.33-.37,.39-.76,.77-1.15,1.15Z"/><path d="M53.44,14.45l.25-.42v1.9c-.07-.32-.16-.64-.22-.97-.03-.16-.02-.33-.03-.5Z"/><path d="M60.33,10.64l1.56-1.48-1.56,1.48Z"/><path d="M72.67,25.08l1.07-1.59,.12,.08-1.12,1.58-.07-.07Z"/><path d="M69.29,7.4l-.39,.11v-.15h-.01c.07-.05,.14-.1,.21-.15h0c.06-.03,.13-.06,.19-.09h0l.22-.1,.19,.11h-.01v.1c-.07,.02-.14,.05-.21,.07-.06,.04-.12,.08-.18,.12h0Z"/><path d="M82.2,25.7l.28-.08c.07,.12,.14,.25,.22,.37h-.46s-.02-.07-.04-.09v-.2h0Z"/><path d="M44.83,16.71l.4-.5-.4,.5Z"/><path d="M44.64,17.1l.1-.31-.1,.31Z"/><path d="M77.22,18.56l-.03,.19s-.05-.01-.07-.03v-.18l.06,.02h.05Z"/><path d="M44.74,16.8l.11-.11-.11,.11Z"/><path d="M81.42,25.31h0Z"/><path d="M81.51,25.3l.11,.11-.11-.11Z"/><path d="M81.6,25.4l.11,.11-.11-.11Z"/><path d="M81.7,25.5h.11v.11h0l-.11-.11Z"/><path d="M81.9,25.59l-.09,.08s0-.05,0-.08h.09Z"/><path d="M82.49,25.99l.06,.11-.15-.11h.1Z"/><path d="M45.23,16.22v-.1l.1,.1h-.1Z"/><path d="M71.53,20.99l.63-.94,.65-.6h.28l-.1,.44-.02,.02c-.48,.53-.96,1.06-1.45,1.59-.11,.12-.26,.21-.39,.32l.39-.82Z"/><path d="M82.96,10.44l.5,.21v.09s.01,.06,0,.08v.11s0,.06,.02,.08l-1.6-.46-2.51-.29c.94-.11,2-.02,3.05,.21,.16,.04,.35-.02,.52-.03Z"/><path d="M73.11,7.63c-.49,.12-.99,.24-1.47,.37-.31,.08-.6,.19-.91,.28l-.05-.13,2.29-.75,.14,.24Z"/><path d="M93.05,9.16l-.59-.48-.09-.11h0l-.11-.1h0v-.1h.2l.1,.1,.1,.1,.1,.1,.1,.1,.1,.1,.09,.1h.01v.19Z"/><path d="M85.04,11.81c-.17-.09-.34-.18-.5-.27,.07-.01,.14-.02,.21-.03h0s-.01-.05,0-.09h.2l.11,.11h0v.19s.02,.06,.02,.1Z"/><path d="M91.88,13.66l-.39-.1-.08-.22,.19,.04h-.01l.11,.1h-.01l.11,.1h-.01l.11,.1h-.01Z"/><path d="M82.09,18.53l-.17,.22-.11-.1h0l-.11-.1v-.1l.1-.1h.19l.09,.17Z"/><path d="M85.45,8l-.12-.2h0l.1-.1h.2l.1,.1v.09l-.27,.1Z"/><path d="M85.63,12.2l-.31-.19s.02-.03,.02-.04c0-.02-.02-.05-.02-.07h0v-.1h.19l.09,.07v.15s0,.06,.02,.09v.08Z"/><path d="M91.79,12.99l-.24-.29,.43,.29-.03,.02-.18-.03h.01Z"/><path d="M91.47,13.2l-.22-.09-.06-.1h.2v-.02l.11,.18-.03,.03Z"/><path d="M85.8,21l.05-.18,.17-.12v.21l-.11,.09h-.12Z"/><path d="M74.85,8.97l-.25,.04,.25-.04Z"/><path d="M82.98,19.53l.18-.04v.17l-.19-.02v-.11h0Z"/><path d="M86.13,20.73l.07,.19s-.06,0-.1,0l-.02-.21,.06,.02Z"/><path d="M95.01,22.48h.1v.2h0l-.11-.05v-.15Z"/><path d="M91.79,8.39s0,.06,0,.09v-.09Z"/><path d="M82.78,24.72l.21,.03s0,.03,0,.05h-.2s0-.05-.02-.08Z"/><path d="M83.17,24.82v.11h-.19v-.11h.19Z"/><path d="M89.63,9.07v-.2h.09l.04,.18-.13,.02Z"/><path d="M89.78,9.06l.04-.19,.09,.21-.13-.02Z"/><path d="M81.8,18.17l.19-.02v.12h-.2v-.11h0Z"/><path d="M86.2,7.83l-.09-.13h.1v.13Z"/><path d="M86,7.99v-.1l.14,.09h-.14Z"/><path d="M89.53,8.36l-.1,.04-.03-.09,.14,.06Z"/><path d="M89.61,8.38h0Z"/><path d="M91.78,8.48l.1,.11h-.1v-.11Z"/><path d="M93.05,8.87h.1s.02,.06,.01,.09l-.1,.03h-.01v-.11Z"/><path d="M93.15,8.95l.1,.03h0s.03,.05,.03,.08l-.12-.11Z"/><path d="M85.62,20.61l.08-.13,.02,.14s0,.05,0,.07l-.11-.08h0Z"/><path d="M85.61,21.2l.1-.12v.12h-.1Z"/><path d="M94.81,23.26l.09-.13,.02,.09-.11,.03Z"/><path d="M85.91,16.82s-.05,0-.08,0v-.12h.09v.13Z"/><path d="M92.17,13.08s0,.06,0,.09l-.03,.03-.1-.09,.03-.03h.1Z"/><path d="M94.52,23.65h0Z"/><path d="M91.98,12.99l.1,.09-.03,.03-.09-.1,.03-.02Z"/><path d="M92.53,25.4l.09-.03s-.06,.02-.09,.03Z"/><path d="M85.61,11.85s-.06-.02-.09-.04h0s-.03-.04-.03-.07l.05-.05s.05,0,.07,.01v.15Z"/><path d="M36.33,13.18l-.88,.29c.59-.41,1.17-.83,1.77-1.22,.08-.05,.26,.06,.39,.09l-.56,.47-.72,.37Z"/><path d="M58.17,8.69c-.02,.13,.02,.3-.05,.37-.51,.51-1.03,1-1.55,1.5l-.1-.08,.79-.99,.92-.79Z"/><path d="M32.63,15.76l-1.58,1.23-.22,.09,.33-.58c.32-.23,.63-.49,.97-.69,.13-.08,.33-.04,.5-.05Z"/><path d="M31.22,26c.45-.46,.9-.92,1.35-1.39l.48-.27-.16,.3-.15,.15c-.32,.3-.63,.6-.97,.88-.16,.14-.37,.21-.56,.32Z"/><path d="M56.93,10.72c.53-.54,1.06-1.08,1.59-1.63-.53,.54-1.06,1.08-1.59,1.63Z"/><path d="M54.84,11.37c-.52,.75-1.05,1.51-1.57,2.27l.07-.41,1.08-1.66,.41-.19Z"/><path d="M43.36,16.53l.02-.18,.09-.14h-.01l.11-.1h-.01l.47-.43-.17,.38-.5,.47Z"/><path d="M43.24,16.96l.05-.12,.56-.57v.24l-.08,.09h0l-.11,.1h0l-.11,.1h0l-.26,.22-.07-.06Z"/><path d="M56.47,5.33l.5-.08-.03,.03s-.05,.02-.08,.03c.03,0,.06,.02,.08,.03l.02,.03-.42,.18-.08-.21Z"/><path d="M32.62,17.38h-.21l.03-.1,.48-.29-.21,.3h.01l-.11,.1h.01Z"/><path d="M41.22,18.27l.21-.3h.09l.1,.19v.02l-.19,.1-.04-.03-.07,.02h-.09Z"/><path d="M31.73,17.98l.22-.3s.05-.04,.07-.06l.21-.03-.11,.2h.01l-.11,.1h.01l-.11,.1h-.2Z"/><path d="M37.85,21.02l-.09,.26-.02-.03-.02,.03h-.15l.02-.19,.09-.09,.15,.02v.02l.02-.02Z"/><path d="M37.32,22.59l-.3,.37h0v-.2h0l.11-.2h0l.11-.1h0s.05-.03,.08-.03l.03,.15Z"/><path d="M41.79,9.69l.22-.04-.49,.32,.27-.28Z"/><path d="M6.39,20.77l-.19-.06-.2-.3,.3,.11,.08,.24Z"/><path d="M41.12,13.58l.27-.14,.06,.06-.23,.26h.01l-.17,.03-.03-.03,.1-.18Z"/><path d="M40.6,14.12l.27-.37h.15l.03,.04-.13,.17h.01l-.11,.1h.01l-.23,.06Z"/><path d="M44.06,10.93h-.22l.13-.19,.29-.09-.02,.1h.01l-.11,.1h.01l-.11,.1h.01Z"/><path d="M41.14,13.99l-.29,.27h-.12l-.03-.04,.13-.17h-.01l.11-.1h.18l.03,.03Z"/><path d="M33.82,24.05l-.36,.39,.04-.21h0l.11-.1h0l.07-.08h.15Z"/><path d="M40.41,14.44l.13-.17,.16-.05,.03,.03-.32,.18Z"/><path d="M53.84,7.18l-.19,.23h-.11l-.02-.03s.01-.06,.03-.08h-.01l.1-.1,.21-.03Z"/><path d="M49.34,7.92l-.27,.11-.05-.05s0-.05,.02-.07l.1-.1,.18-.03,.02,.16Z"/><path d="M41.73,18.03l.07,.24h.01l-.21,.1v-.22l.12-.12Z"/><path d="M49.44,7.54l-.12,.2-.18-.03v-.11h0l.11-.1h-.01l.21,.03Z"/><path d="M37.11,21.01v-.21h0l.09-.09h.15l-.05,.2h.01l-.11,.1h-.1Z"/><path d="M53.54,7.41l-.33,.18s.02-.06,.04-.09h0l.11-.1h-.01l.18-.02,.02,.02Z"/><path d="M52.41,8l-.03-.11h0l.11-.1h.19s.02,.06,.02,.09l-.28,.12Z"/><path d="M57.16,5.34s-.05,.02-.08,.02h-.11l-.02-.02s0-.04,0-.06l.03-.03,.19,.09Z"/><path d="M69.69,7.12l.02-.11h.15l.02,.11h-.19Z"/><path d="M70.07,7.12s.05-.08,.08-.12c.02,0,.04,0,.05,0,.02,.03,.04,.07,.06,.1l-.2,.02Z"/><path d="M37.31,22.09v.2s-.07,0-.1,0l-.04-.2s.03,0,.04-.03l.1,.03Z"/><path d="M13.76,23.79l-.22,.06v-.1l.22,.06h0Z"/><path d="M28.73,26.3l-.22,.09,.22-.09Z"/><path d="M28.51,26.39l-.2,.1,.2-.1Z"/><path d="M8.07,16.41l-.13-.2,.13,.11s0,.06,0,.08Z"/><path d="M5.62,20.71v-.1l.1,.1h-.1Z"/><path d="M5.92,20.71v-.11l.1,.1h-.1Z"/><path d="M37.6,20.81h-.1l.1-.11v.11Z"/><path d="M13,22.78l-.14,.08v-.1l.14,.02Z"/><path d="M44.44,10.74l.09-.14v.18s-.06-.02-.09-.04Z"/><path d="M82.34,9.85l-.13,.22h-.26c-.59-.07-1.17-.16-1.76-.22-.34-.03-.68,0-1.03-.06,.35-.33,2.19-.27,3.18,.05Z"/><path d="M80.55,7.89c-.89,0-1.79-.04-2.68,0-1.02,.05-2.03,.16-3.06,.2,.59-.09,1.17-.23,1.77-.25,1.26-.05,2.53-.03,3.8-.03,.05,0,.11,.06,.16,.09h0Z"/><path d="M79.23,6.11h-2.97v-.07h2.98v.07Z"/><path d="M81.93,10.07c-.09,.02-.19,.07-.28,.07-.93,0-1.87,0-2.8-.07,1.03,0,2.06,0,3.09,0h0Z"/><path d="M84.17,6.02l-2-.91,.05-.1,2.03,.91-.07,.1Z"/><path d="M85.43,7.32l-.17-.26,.05-.06,.34,.28-.04,.05-.19-.02h.01Z"/><path d="M86.02,7.61h-.2l-.22-.28,.04-.05,.37,.33Z"/><path d="M84.55,7.22c-.03-.07-.06-.14-.09-.21h0l.28,.21h-.19Z"/><path d="M85.22,7.31h.2l.11,.2h-.21l-.1-.1v-.1Z"/><path d="M84.84,7.5l-.29-.2h.18l.11,.11h-.01v.1h0Z"/><path d="M84.74,7.22l.3,.09v.1h-.19l-.11-.11h.01v-.1h0Z"/><path d="M84.25,6.92l-.11-.05,.03-.03s.05,.06,.07,.09h0Z"/><path d="M84.24,6.93c.07,.03,.14,.06,.21,.09h0c-.07-.04-.14-.07-.21-.1h0Z"/><path d="M70.06,7.22h.2l-.2,.09h.01v-.1h-.01Z"/><path d="M84.55,7.31l-.12-.03,.12-.06h-.01v.1h.01Z"/><path d="M70.08,7.43l-.21-.03h0s.02-.05,0-.08h.18v.12Z"/><path d="M69.49,7.4l-.2,.1v-.1h.2Z"/><path d="M85.04,7.6l-.2-.1h.19v.11h0Z"/><path d="M69.58,7.62s-.03,.05-.03,.08h-.18l.21-.07h0Z"/><path d="M69.2,7.72l.19-.03-.19,.03Z"/><path d="M85.33,7.8l-.2-.1h.2v.11h0Z"/><path d="M89.44,8.38v0Z"/><path d="M89.53,8.68h.1v.2h0l-.11-.2Z"/><path d="M85.13,7.7l-.1-.1h.09v.11h0Z"/><path d="M86.11,7.71l-.11-.11,.11,.11Z"/><path d="M89.43,8.58l.11,.11-.11-.11Z"/><path d="M56.08,5.64l.2-.1h.28l.42-.18h.11c-.06,.1-.09,.26-.17,.3-.66,.35-1.33,.68-2,1.01-.11,.05-.25,.03-.38,.05v-.13l.09-.15,1.47-.78Z"/><path d="M48.59,20.65l-.19,3.77h-.09l.17-3.77h.11Z"/><path d="M47.51,25.75v-3.4h.07v3.4h-.07Z"/><path d="M50.94,12.32l-1.29,1.33h.01l1.26-1.37,.02,.04Z"/><path d="M47.79,24.71v-2.23h.06v2.21l-.06,.02Z"/><path d="M53.83,6.92l.1-.1h.21l-.3,.21v-.11Z"/><path d="M54.51,6.58v.13h-.19l.19-.13Z"/><path d="M54.12,6.83v-.11h.21l-.21,.11Z"/><path d="M53.63,7.12v-.11h.21v.13l-.21-.03Z"/><path d="M93.05,11.69c.36,.95,.79,1.88,1.07,2.85,.37,1.28,.39,2.6,.24,3.93-.03,.28,.04,.57,.06,.86v.37c.07,.65-.11,1.25-.39,1.84-.14,.3-.22,.63-.36,.94-.07,.15-.21,.27-.32,.41l-.26-.12c.04-.2,.03-.42,.12-.6,1.34-2.76,1.35-5.61,.52-8.5-.19-.67-.45-1.31-.68-1.97Z"/><path d="M82.59,24.82c.12,.13,.22,.3,.37,.38,1.69,.84,3.42,.95,5.19,.26,.19-.07,.4-.1,.6-.14l-1.08,.53c-.63,.11-1.25,.32-1.88,.3-1.48-.02-2.85-.48-3.99-1.48-.19-.16-.33-.38-.49-.58l.09-.09c.16,.15,.31,.34,.49,.46,.18,.12,.39,.17,.59,.25l.1,.11Z"/><path d="M89.44,25.99c-.57,.52-1.31,.54-2,.63-1.33,.17-2.63-.04-3.88-.5-.14-.05-.26-.18-.38-.27,1.44,.59,2.93,.8,4.47,.52,.6-.11,1.2-.25,1.8-.37Z"/><path d="M87.67,25.85l1.08-.53,1.67-1.06v.08l-.1,.11v.1s0,.04,0,.07c-.09,.14-.15,.35-.29,.41-.63,.31-1.28,.59-1.94,.85-.12,.05-.28-.01-.42-.02Z"/><path d="M92.64,23.84c-.84,1.07-1.91,1.79-3.21,2.16,.43-.25,.86-.5,1.29-.75,.49-.41,.99-.82,1.48-1.22,.12-.1,.25-.17,.37-.26l.07,.07Z"/><path d="M93.12,15.38l-.67-1.33h.19l.13-.1c.31,.43,.47,.89,.37,1.42h-.01Z"/><path d="M93.12,15.38h.01c.07-.02,.2-.03,.2-.02,.05,.32,.08,.64,.12,.97l-.2,.03-.13-.98Z"/><path d="M93.63,17.13l-.1,1.61v-1.62h.1Z"/><path d="M91.59,13.38s-.02-.06-.02-.09l.04-.05,.17,.04h-.01l.11,.1h-.01l.11,.1h-.01l.11,.1h-.01l.11,.1h-.01l.04,.21-.33-.22h.01l-.11-.1h.01l-.11-.1h.01l-.11-.1h.01Z"/><path d="M92.85,23.26l.08-.31h.11l.11,.11h0l-.19,.28h0l-.11-.09Z"/><path d="M93.09,22.76l.26,.12-.2,.18h0l-.11-.1h0l.04-.2Z"/><path d="M92.18,13.18l.29,.4h-.09l-.11-.11h.01l-.11-.1h.01l-.03-.16,.03-.03Z"/><path d="M82.1,25.8l-.2-.21h0l-.02-.09,.31,.2h0l-.1,.1Z"/><path d="M92.46,13.57l.2,.29h-.09l-.11-.11h0v-.19h0Z"/><path d="M80.43,19.44h.11v.2l-.11-.2Z"/><path d="M80.63,19.64v-.2h.11l-.11,.2Z"/><path d="M91.22,23.56l.09,.09-.12,.09h0l.02-.18Z"/><path d="M82.3,24.34l-.19-.03s0-.04,0-.06l.19-.02v.11Z"/><path d="M92.77,13.95l-.13,.1,.03-.19h0l.11,.09Z"/><path d="M80.97,19.35l.05-.21h.09l-.14,.21Z"/><path d="M80.72,19.44h0Z"/><path d="M81.22,19.05l-.1,.1h.01v-.1h.09Z"/><path d="M81.31,18.95l-.1,.1h0l.1-.09h0Z"/><path d="M81.61,18.85l-.13,.11,.03-.11h.1Z"/><path d="M81.42,18.85l.04,.11h-.14l.1-.11Z"/><path d="M81.7,18.75l-.1,.1h.01v-.1h.09Z"/><path d="M91.19,23.74l-.1,.1h0l.1-.09h0Z"/><path d="M91.09,23.84l-.1,.1h0l.1-.09h0Z"/><path d="M91,23.93l-.1,.1h0v-.1h.09Z"/><path d="M90.9,24.03l-.1,.1h0v-.1h.09Z"/><path d="M90.8,24.13l-.1,.1h0v-.1h.09Z"/><path d="M90.7,24.23l-.1,.1h0v-.1h.09Z"/><path d="M90.61,24.33l-.1,.1h0v-.1h.09Z"/><path d="M90.51,24.42l-.1,.1h0v-.1h.09Z"/><path d="M90.31,24.6s0-.04,0-.07h.1l-.1,.07Z"/><path d="M81.8,18.65v.1h-.09v-.1h.09Z"/><path d="M81.76,15.66l2.54,.37-.02,.13-2.51-.43v-.07Z"/><path d="M85.43,16.31h-.2l-.07-.24,.28,.24Z"/><path d="M85.71,16.71v-.11l.11,.11h-.11Z"/><path d="M85.72,16.61h-.1v-.11l.1,.11Z"/><path d="M85.63,16.51h-.1v-.11l.1,.11Z"/><path d="M85.53,16.41l-.11-.11,.11,.11Z"/><path d="M43.76,16.61h.1l.1,.04-.28,.45-.03-.02-.08-.09v-.2h0l.11-.1h0l.11-.1h0Z"/><path d="M43.68,17.1l-.34,.39h-.15l-.02-.02c0-.06,.01-.13,.02-.19h-.01l.11-.1h-.01c.07-.02,.14-.05,.2-.08l.05-.07,.04,.07,.04-.03h.05l.03,.02Z"/><path d="M42.88,17.9v-.22h0l.2-.09h0l-.2,.31Z"/><path d="M43.19,17.49l-.11,.08h0l.08-.1,.02,.02Z"/><path d="M37.51,20.8v.21l-.11,.09-.26,.14,.08-.24h-.01l.11-.1h-.01l.2-.1Z"/><path d="M36.54,21.6l.19-.11-.2,.3h0v-.19h0Z"/><path d="M36.81,21.2l.1-.1h.11l.02,.2-.23,.1v-.21Z"/><path d="M36.33,22.18l-.09-.16,.19-.12h0l-.1,.29Z"/><path d="M37.11,22.27h.1v.2h-.1v-.2Z"/><path d="M36.92,22.75s0-.06-.03-.08l.12-.09h0v.2h0s-.06-.02-.1-.02Z"/><path d="M36.72,21.5l.11-.11-.11,.11Z"/><path d="M36.53,21.79l-.1,.1h0l.1-.09h0Z"/><path d="M37.02,22.57l.1-.1h-.01v.1h-.09Z"/><path d="M32.71,25.07l.04-.26,.15-.15,.5-.43v.21l-.69,.63Z"/><path d="M39.85,20.71v.19l-.08-.11s-.02-.06-.02-.09h.1Z"/><path d="M39.66,21.98v-.2l.14,.1s0,.06,0,.08l-.15,.02Z"/><path d="M27.89,24.7l1.42-.46,.07,.21c-.55,.26-1.11,.52-1.75,.53l.26-.28Z"/><path d="M82.2,25.79v.11l-.11-.11h.11Z"/><path d="M77.2,18.46h.11l-.11,.11v-.11Z"/><path d="M82.86,18.94c.52-.39,1.41-.37,1.79,.11,.13,.17,.07,.49,.11,.86-.23-.29-.32-.46-.46-.58-.32-.27-.69-.22-1.05-.09l.02-.12-.28-.1-.13-.09Z"/><path d="M91.79,21.68l-.89,1.72,.89-1.72Z"/><path d="M82.1,19.92l-.26,.37-.09-.03,.42-.74,.04,.04-.02,.18-.11,.2h.01Z"/><path d="M90.41,24.33v-.08l.12-.17,.39-.34-.02,.21h.01l-.11,.1h.01l-.11,.1h0l-.11,.1h0l-.11,.1h-.1Z"/><path d="M82.48,19.24l.3-.18h0v.1h0l-.11,.1h-.2Z"/><path d="M83.36,25.01l.29,.02-.29-.02Z"/><path d="M82.22,20.23h-.12v-.31h.1l.02,.31Z"/><path d="M82.79,22.57v.21l-.12-.1,.12-.1Z"/><path d="M89.73,22.56v.2l-.11-.02h0l.1-.18Z"/><path d="M83.1,22.95l-.03-.19,.11-.03-.08,.22Z"/><path d="M89.24,23.26h-.21l.2-.09h0v.09Z"/><path d="M88.85,23.54h-.21l.21-.09h0v.1h.01Z"/><path d="M88.36,23.74v0Z"/><path d="M88.37,23.85h0Z"/><path d="M83.17,24.91l.21,.11-.21-.11Z"/><path d="M82.86,18.94l.13,.09h-.21v.02l.08-.11Z"/><path d="M82.18,19.52l.11-.08h0l-.07,.12-.04-.04Z"/><path d="M82.3,19.44l.1-.1h0v.1h-.1Z"/><path d="M89.9,22.38l-.08,.1v-.1s.05,0,.08,0Z"/><path d="M89.83,22.47l-.11,.11,.11-.11Z"/><path d="M89.92,22.67l.1-.1-.1,.1Z"/><path d="M82.78,22.76l.11,.11-.11-.11Z"/><path d="M89.62,22.74s-.07,.06-.1,.1h0s.07-.05,.1-.08h0Z"/><path d="M82.88,22.86l.09,.1-.09-.1Z"/><path d="M89.44,22.96s.05-.07,.08-.11h0s-.05,.06-.08,.1h0Z"/><path d="M89.32,23.04l.12-.08h0l-.12,.07h0Z"/><path d="M89.31,23.03l.02,.11h-.1v.02s.06-.08,.09-.12h0Z"/><path d="M89.05,23.25l-.11,.11,.11-.11Z"/><path d="M89.23,23.25h.1l-.1,.11v-.11Z"/><path d="M88.95,23.35v.1h-.1l.1-.1Z"/><path d="M89.24,23.45s-.02-.05-.02-.07c0-.01,.01-.02,.02-.03v.1Z"/><path d="M88.66,23.54h0Z"/><path d="M88.95,23.55v.1h-.11v-.11h.11Z"/><path d="M88.36,23.63s.02,.05,.03,.08c0,.01-.02,.03-.03,.04,0-.04,0-.08,0-.12Z"/><path d="M88.85,23.74v0Z"/><path d="M82.39,19.34l.09-.11,.02,.02s0,.06-.02,.09h-.09Z"/><path d="M88.55,23.84h0Z"/><path d="M94.41,19.69v-.37c.07-.1,.18-.2,.2-.31,.23-1.13,.27-2.27,.01-3.42v.82l-.6-3.55c.08,.09,.17,.18,.25,.28,.09,.11,.16,.23,.24,.35,.46,1.43,.56,2.9,.5,4.4,0,.16-.02,.31-.03,.55l-.1-.21c-.03,.38-.05,.81-.08,1.24-.02,.26-.14,.35-.39,.23Z"/><path d="M92.65,23.57l.09-.22h.09v-.02l.12,.02h0l-.19,.29h0l-.11-.07Z"/><path d="M92.07,8.48h.2l.11,.11h0v.09h-.19l-.11-.1h.01v-.1Z"/><path d="M91.87,8.58h.2v.11h0l-.2-.11Z"/><path d="M92.18,8.68h0Z"/><path d="M92.66,23.75v-.12l.11,.02h0l-.1,.1Z"/><path d="M92.57,23.77l.1-.03-.03,.1-.07-.07Z"/><path d="M84.45,11.03l.49,.29h-.19l-.21-.11h.01l-.1-.19h0Z"/><path d="M83.96,10.84l.49,.19h-.29l-.21-.11h0v-.1h0Z"/><path d="M84.93,11.32l.32,.17-.03,.04-.19-.02h0l-.11-.1h0v-.09h0Z"/><path d="M85.25,11.49l.29,.2-.05,.05-.18-.03h0l-.11-.1h0s-.02-.05-.01-.08l.03-.04Z"/><path d="M83.47,10.74v-.09l.29,.09h-.29Z"/><path d="M83.76,10.74l.2,.1h-.19v-.11h0Z"/><path d="M82.26,20.23l.14-.21v.2h-.14Z"/><path d="M82.89,22.58h-.11v-.22h.11v.22Z"/><path d="M83.66,11.03l-.19-.1v-.11l.3,.02h-.01l.21,.1h0v.1h-.29Z"/><path d="M85.43,20.72l.09-.11h.1v.2h0l-.11,.1h-.19l.1-.19Z"/><path d="M85.22,21.08h.21v.12h-.21v-.12Z"/><path d="M80.83,19.14h-.1v-.18s.08,0,.11,0h0v.2h0Z"/><path d="M81.03,18.76l.1-.1h0v.1h-.09Z"/><path d="M81.13,18.66l.1-.1h0v.1h-.09Z"/><path d="M81.22,18.57l.1-.1h0v.1h-.09Z"/><path d="M80.83,18.96l.1-.1h0l-.1,.09h0Z"/><path d="M81.32,18.47l.1-.1h0v.1h-.09Z"/><path d="M81.42,18.37l.1-.1h0v.1h-.09Z"/><path d="M81.51,18.16h.1l-.1,.1h0v-.1Z"/><path d="M80.93,18.86l.1-.1h0v.1h-.09Z"/><path d="M92.47,8.3l-.11-.11,.11,.11Z"/><path d="M92.57,8.39h-.11v-.11l.11,.11Z"/><path d="M92.67,8.49h-.11v-.11l.11,.11Z"/><path d="M92.77,8.59h-.11v-.11l.11,.11Z"/><path d="M92.86,8.69h-.11v-.11l.11,.11Z"/><path d="M92.96,8.78h-.11v-.11l.11,.11Z"/><path d="M93.06,8.88h-.11v-.11l.11,.11Z"/><path d="M89.83,8.88h-.1v-.21h0l.1,.21Z"/><path d="M89.63,8.69h0Z"/><path d="M94.71,23.36v-.11h.11l-.11,.11Z"/><path d="M94.61,23.35h0Z"/><path d="M95.19,22.19h0Z"/><path d="M95.21,22.48h0Z"/><path d="M82.01,17.97v.11h-.21v-.11h.21Z"/><path d="M82.11,17.98h-.11l.04-.06,.07,.06Z"/><path d="M92.37,13.77l-.2-.1h.01l-.11-.1h.01l-.11-.1h.01l-.11-.1h.01l-.11-.1h.01l-.22-.26,.04-.05,.18,.03h-.01l.4,.39h-.01l.11,.1h-.01l.11,.1h-.01v.19h0Z"/><path d="M91.4,12.99l-.11-.21,.32,.18-.04,.05-.18-.03h.01Z"/><path d="M91.3,12.79l-.21-.11,.21,.11Z"/><path d="M82.88,19.74l.11-.11-.11,.11Z"/><path d="M82.78,19.84l.11-.11-.11,.11Z"/><path d="M82.68,19.93l.11-.11-.11,.11Z"/><path d="M85.71,7.81l-.1-.1v-.11h.19l.11,.2h-.21Z"/><path d="M86.02,7.9l-.11-.11,.11,.11Z"/><path d="M85.63,21.2v.11h-.21v-.11h.21Z"/><path d="M85.62,20.81h.1l-.1,.09h0v-.1h0Z"/><path d="M85.52,21.01v-.11h.1l-.1,.11Z"/><path d="M85.42,21.11l.11-.11-.11,.11Z"/><path d="M91.58,13.29l-.1-.09,.03-.03,.11,.08-.04,.05Z"/><path d="M91.97,8.38l.11,.11-.11-.11Z"/><path d="M82.69,24.63l-.19-.02s0-.06-.02-.09h.21v.11Z"/><path d="M82.4,24.43l-.11-.11h.11v.11Z"/><path d="M82.5,24.53l-.11-.11,.11,.11Z"/><path d="M82.79,24.73l-.11-.11,.11,.11Z"/><path d="M80.64,19.44h-.11l.02-.19s.06,0,.09-.02v.21Z"/><path d="M80.74,19.14l-.11,.11,.11-.11Z"/><path d="M92.17,8.28l.11,.11-.11-.11Z"/><path d="M84.16,11.12h-.2v-.1h.2v.1h0Z"/><path d="M86.01,20.9h.11v.11h-.11v-.11Z"/><path d="M82.98,22.67l-.11-.11h.11v.11Z"/><path d="M84.35,11.22h-.2v-.1h0l.2,.1h0Z"/><path d="M84.55,11.32h-.2v-.1h.19v.1h0Z"/><path d="M84.74,11.32v.11h-.2v-.1h0c.07,0,.14,0,.21,0h-.01Z"/><path d="M85.03,11.72v-.11h.2v.11h-.2Z"/><path d="M85.32,11.71v.11h-.1v-.11h.1Z"/><path d="M81.61,18.17v-.1h.2v.11h-.2Z"/><path d="M81.7,18.37l.11-.11v.11h-.11Z"/><path d="M83.08,22.77l-.11-.11h.11v.11Z"/><path d="M7.87,17.06c.29,.61,.58,1.23,.88,1.84,.08,.17,.18,.33,.27,.49l.18,.24s.06,0,.09,0l.06,.2,.05,.11s0,.04,.02,.06l.4,1.46-.05,.03c-.14-.24-.31-.47-.41-.73-.5-1.23-.98-2.46-1.47-3.69Z"/><path d="M9.2,19.63l-.18-.24-.4-1.42c.07,.04,.2,.07,.22,.13,.13,.51,.25,1.03,.36,1.54Z"/><path d="M7.97,16.7l.2,.11h0l.11,.2h0l.11,.2h0l.04,.07,.07-.08h0l.2,.54c-.05-.01-.1-.02-.16-.03v0l-.54-1Z"/><path d="M6.54,19.73l-.03,.21h-.1l-.36-.43,.03-.04,.46,.27Z"/><path d="M5.53,20.52h-.21l.18-.09s.02,.06,.03,.09Z"/><path d="M8.36,17l.1,.2h-.09v-.2h0Z"/><path d="M8.26,16.8l.1,.19h-.09v-.2h0Z"/><path d="M8.17,16.8v-.21l.09,.21h-.09Z"/><path d="M8.17,16.61l-.11-.21,.11,.21Z"/><path d="M43.75,11.85c.36-.3,.73-.59,1.09-.9,.13-.11,.22-.27,.32-.4l.65-.41,.1,.11v.13l-.78,.84-.49,.4c-.16,.08-.32,.16-.49,.24-.16,.08-.33,.16-.49,.24l.09-.26Z"/><path d="M43.21,12.63l-.59,.48-.06-.07v-.03l.05-.05s.04-.03,.06-.06l.04-.04s.05-.03,.06-.06l.04-.04,.09-.08-.06-.02,.06-.06,.19-.3h-.01l.11-.1h.17l.04,.03s0,.04,0,.05l-.02,.03-.09,.08h-.01l-.08,.1-.02,.03s0,.03-.01,.05l.06,.07Z"/><path d="M42.13,13.51l-.55,.36,.12-.21s.07-.06,.1-.09v-.1l.21-.29h-.01l.11-.1h-.01l.18-.02,.05,.05v.05l-.04,.04s-.05,.03-.06,.06l-.03,.04-.07,.07-.03,.04v.04l.05,.07Z"/><path d="M42.62,13.11l-.49,.4-.06-.07v-.04l.04-.04s.05-.04,.07-.07l.03-.04s.05-.03,.06-.06l.04-.04,.02-.02-.02-.03-.05-.05,.22-.27h-.01l.11-.1h.19s.04,.05,.02,.08l-.04,.04s-.05,.03-.06,.06l-.04,.04s-.05,.03-.06,.06l-.05,.05v.03l.06,.07Z"/><path d="M43.75,11.85l-.09,.26s0,.04,0,.06l-.02-.02h.02l-.47,.48-.06-.07s0-.03,.01-.05l.02-.03,.08-.08h.01l.09-.1,.02-.03s0-.03,0-.05l-.04-.05,.22-.28h-.01l.19-.05Z"/><path d="M41.42,13.87l-.28,.12-.03-.04,.11-.19h.2v.1Z"/><path d="M40.15,20.22l-.3,.49h.01l-.1-.09,.09-.2h0c.05-.06,.1-.13,.15-.2v0h.16Z"/><path d="M40.83,18.85l.09-.19h.09s.06-.02,.09-.03l.05,.04-.02,.18-.2,.1h0l-.09-.1Z"/><path d="M40.44,19.93l-.19,.1h0l-.09-.1,.13-.21v0l.16,.02h0v.19Z"/><path d="M40.64,19.14l.08-.18h.1v-.02h.11v.21l-.2,.09h0l-.1-.1Z"/><path d="M41.2,18.54l.02-.17,.1-.11h0s.04-.03,.07-.02l.04,.03v.19l-.11,.1s-.07,0-.1,0l-.02-.03Z"/><path d="M40.44,19.74l.09-.2v.2h-.09Z"/><path d="M40.24,20.03l-.1,.2v-.22l.1,.02h0Z"/><path d="M37.01,23.15l-.09-.18h.09v.18Z"/><path d="M40.64,19.44v-.2h.09v.2h-.09Z"/><path d="M41.1,18.63l.1-.1,.02,.03-.08,.12-.05-.04Z"/><path d="M40.54,19.54l.1-.09h0l-.09,.09Z"/><path d="M44.25,10.74h.21c-.16,.17-.33,.36-.49,.54l.11-.35h-.01l.11-.1h-.01l.11-.1h-.01Z"/><path d="M42.27,12.76l.49-.38,.04,.04-.22,.28h.01l-.11,.1h.01l-.18,.02-.05-.06Z"/><path d="M43.76,11.47l-.2,.45h.01l-.18,.02-.04-.04,.4-.43Z"/><path d="M42.87,12.29l.49-.39,.04,.04-.22,.27h.01l-.11,.1h.01l-.18,.02-.04-.04Z"/><path d="M41.79,13.16l.48-.4,.05,.06-.22,.27h.01l-.11,.1h.01l-.18,.02-.04-.05Z"/><path d="M41.39,13.45l.4-.29,.04,.05-.21,.27-.17,.03-.06-.06Z"/><path d="M42.76,12.37l.11-.09,.04,.04-.11,.09-.04-.04Z"/><path d="M13.06,23.35l-.18-.04,.09-.14h-.01l.11,.1h0v.1h0Z"/><path d="M12.44,22.59h0Z"/><path d="M12.56,22.67s-.08-.05-.12-.07h0s.09-.01,.13-.02v.1Z"/><path d="M12.57,22.67s.05,.02,.08,.02c0,.03,0,.05,.01,.07l-.09-.09Z"/><path d="M12.77,22.76v.1l-.09-.09s.06,0,.09-.01Z"/><path d="M12.76,22.86s.06,.01,.1,0v.1l-.1-.1Z"/><path d="M12.85,22.95l.11,.11-.11-.11Z"/><path d="M12.95,23.05l.1,.11h-.09v-.11Z"/><path d="M12.96,23.56s.02,.03,.03,.05c0,0-.02,.02-.03,.02,0-.02,0-.05,0-.07Z"/><path d="M43.95,8.48l.1-.1h.21v.16h.01c-.17,.11-.33,.23-.5,.35l-.03-.04v-.04l.04-.06-.02-.08h0v-.09c.06,0,.12,0,.19,0h0v-.1Z"/><path d="M42.29,9.36l.2-.1,.2-.1h.2l-.7,.4,.1-.21Z"/><path d="M43.28,8.98l.19-.1h0l.08,.07,.05,.05-.34,.18s0-.05,0-.08l.03-.04s0-.06,0-.09h0Z"/><path d="M43.56,8.68h.2s.03,.05,.02,.07l-.04,.06v.04l.03,.04-.18,.11-.05-.05-.08-.08h0l.09-.19Z"/><path d="M42.88,9.18v-.11h.2v.1h-.2Z"/><path d="M42,9.66l.21-.11-.21,.11Z"/><path d="M30.68,18.79l.18-.04-.51,.55-.31,.14,.52-.56,.1-.13v.02h.01Z"/><path d="M31.24,18.26l.11-.08,.08-.11h.21l-.1,.2-.5,.3,.2-.3Z"/><path d="M30.85,18.76l.11-.11-.11,.11Z"/><path d="M30.95,18.66l.11-.11-.11,.11Z"/><path d="M48.45,8.09l.1-.1h.2l.02,.11h0l.1-.11h0l.17-.02,.05,.05-.69,.48-.03-.03s0-.06,.02-.09h0l.11-.1h0v-.1h0v-.09Z"/><path d="M47.99,8.81l-.39,.29-.05-.06,.13-.17h0l.11-.1h.17l.04,.03Z"/><path d="M47.48,9.29l-.32,.08,.12-.2h-.01l.11-.1h0l.17-.03,.05,.06-.12,.19Z"/><path d="M48.27,8.59l-.28,.21-.04-.05s0-.06,.03-.08h0l.1-.1,.17-.03,.04,.05Z"/><path d="M48.38,8.5l-.1,.09-.04-.05,.12-.07,.03,.03Z"/><path d="M46.42,9.98l-.5,.4v-.13l.02-.03v-.03l-.05-.06,.41-.27h0l.09,.08,.04,.04Z"/><path d="M46.9,9.36l-.1,.22h-.04l.04,.05-.38,.35-.04-.04s0-.04,0-.07l.02-.03,.09-.08h0s-.02-.02-.02-.03c0-.03,.01-.05,.02-.08h0l.39-.29Z"/><path d="M47.07,9.16l.31-.18h0v.1h0l-.11,.1h.01l-.18,.02-.03-.04Z"/><path d="M47.78,8.6l.19-.02v.11h-.2s0-.06,0-.08Z"/><path d="M47.48,8.88l.2-.09h0v.1h-.19Z"/><path d="M47.68,8.78l.1-.1h0v.1h-.09Z"/><path d="M47.38,8.98l.1-.1h0l-.1,.09h0Z"/><path d="M46.99,9.27l.08-.11,.03,.04-.12,.07h0Z"/><path d="M45.91,10.25l-.1-.11s.05-.02,.08-.02l.05,.06v.03l-.03,.03Z"/><path d="M46.31,9.86l.09-.11,.02,.02s0,.05,0,.07l-.02,.03s-.06,0-.09-.02h0Z"/><path d="M46.39,9.74l.12-.09h0v.1h0s-.06,.02-.09,0l-.02-.02Z"/><path d="M46.99,9.37h-.1l.11-.1h0v.1Z"/><path d="M42.89,17.67l-.83,.81,.05-.22h-.01l.35-.38,.4-.43,.06,.05-.03,.18h.01Z"/><path d="M42.85,17.46l.39-.49,.07,.06-.04,.17h.01l-.11,.1h.01l-.27,.22-.06-.05Z"/><path d="M41.8,18.27l.32-.21-.02,.21h.01l-.3,.19v-.21h0Z"/><path d="M13.45,23.64h-.2v-.1h.2v.11h0Z"/><path d="M13.05,23.16l.1,.09h-.09v-.1h-.01Z"/><path d="M13.15,23.25s.01,.04,.02,.06c0,0-.01,.02-.02,.03h.01v-.1h0Z"/><path d="M13.16,23.46l-.1-.11h.09v.11Z"/><path d="M13.45,23.34v0Z"/><path d="M13.26,23.55l-.11-.11,.11,.11Z"/><path d="M13.44,23.44l.1,.1h-.09v-.1Z"/><path d="M33.6,24.03v.1h0s-.05,.02-.08,.02l-.04-.04,.12-.08Z"/><path d="M33.5,24.23h-.11l.08-.12,.04,.04s0,.06-.03,.08h0Z"/><path d="M6.61,20.03h-.1v-.11l.1,.11Z"/><path d="M6.7,20.13h-.1v-.11l.1,.11Z"/><path d="M6.8,20.23h-.1v-.11l.1,.11Z"/><path d="M6.8,20.32v-.1l.1,.11h-.1Z"/><path d="M5.92,20.62l-.11-.11,.11,.11Z"/><path d="M5.82,20.52l-.1-.1,.1,.1Z"/><path d="M32.22,17.59l.11-.11-.11,.11Z"/><path d="M32.32,17.49l.11-.11-.11,.11Z"/><path d="M13.54,23.55s0,.06,0,.09h.01v-.1h0Z"/><path d="M13.55,23.75l-.1-.11h.09v.11Z"/><path d="M31.74,17.97l-.11,.11,.11-.11Z"/><path d="M43.26,9.1l-.18-.02v-.1h.2s.01,.06,0,.09l-.03,.04Z"/><path d="M5.63,20.62h-.11v-.11l.11,.11Z"/><path d="M13.44,23.95l.11-.11-.11,.11Z"/><path d="M13.74,23.93v0Z"/><path d="M53.34,7.21h.21v.11h-.2v-.11Z"/><path d="M53.25,7.5h-.2v-.1h.2v.11h0Z"/><path d="M53.25,7.41l.1-.1h0s0,.07,0,.1h-.09Z"/><path d="M49.15,7.8l-.1,.1h-.21v-.11l.1-.1h.2v.11Z"/><path d="M48.85,7.89v.11h-.1l.1-.11Z"/><path d="M48.16,8.39s.02-.06,.02-.09h.18v.09h-.2Z"/><path d="M48.36,8.29l.1-.1h0v.1h-.09Z"/><path d="M37.12,21l-.11,.11,.11-.11Z"/><path d="M52.96,7.71l-.1,.1h-.21l.1-.21h.2v.11Z"/><path d="M53.06,7.61h-.11l.11-.11v.11Z"/><path d="M69.88,7.22v-.11c.06,0,.13,0,.19,0v.11h-.19Z"/><path d="M53.64,7.22h-.11v-.11h.11v.11Z"/><path d="M37.5,21.1v-.1h.1v.11h-.1Z"/><path d="M69.67,7.32v-.11h.2v.11h-.2Z"/><path d="M69.48,7.41s.02-.06,.02-.09h.19l-.21,.09Z"/><path d="M69.87,7.39v0h0Z"/><path d="M69.59,7.63v0h0Z"/><path d="M85.04,7.51v-.11h.19l.1,.1v.11h-.2l-.11-.11h0Z"/><path d="M90.32,24.43l.09-.11h.01v.1h-.1Z"/><path d="M92.56,13.86l.03,.19-.11,.02v-.2h.08Z"/><path d="M81.03,19.14h-.1l.1-.1v.11h0Z"/><path d="M80.92,19.14h0Z"/><path d="M92.47,13.86l-.1-.09h.09v.1h0Z"/><path d="M81.52,18.75v.11h-.11l.11-.11Z"/><path d="M40.68,20.32l.04-.14c.04-.05,.07-.1,.11-.15v0h-.1v-.21h0c.07-.02,.13-.06,.2-.09,.03,0,.07,0,.1,0l.09-.2,.1-.1,.21-.14c-.2,.36-.4,.72-.61,1.08,0,0-.09-.04-.13-.05Z"/><path d="M41.81,18.46l-.05,.19-.23,.23-.05-.04,.02-.18h-.01l.3-.2Z"/><path d="M41.41,19.14s-.06,0-.09,0l-.03-.03,.02-.18,.18-.11,.05,.04-.13,.26Z"/><path d="M40.74,19.83l-.22,.11,.03-.21h-.01l.21-.1v.21h0Z"/><path d="M83.07,19.23l-.19,.1-.17,.03-.03-.03s0-.06,.02-.08h-.01l.11-.1h0l.2-.09h.01l.28,.08-.21,.1Z"/><path d="M82.49,20.03h-.11v-.2h.11v.2Z"/><path d="M82.68,19.64l.11-.11-.11,.11Z"/><path d="M82.58,19.74l.11-.11-.11,.11Z"/><path d="M82.48,19.84l.11-.11-.11,.11Z"/><path d="M82.39,19.64v-.21h0l.11-.1h.17l.03,.02-.31,.28Z"/><path d="M82.19,19.93v-.2l.21-.1v.2l-.21,.1Z"/><path d="M88.95,23.45s-.02,.05-.02,.07c0,0,.01,.02,.02,.03h0v-.11h0Z"/><path d="M81.51,18.47v-.11h.21v.11h-.21Z"/><path d="M81.02,18.85h.11v.21h-.11v-.21Z"/><path d="M81.61,18.65v.11h-.11l.11-.11Z"/><path d="M81.21,18.65h.11l-.11,.11v-.11Z"/><path d="M81.71,18.66h-.11l.11-.11v.11Z"/><path d="M81.31,18.56h.11l-.11,.11v-.11Z"/><path d="M81.41,18.46h.11l-.11,.11v-.11Z"/><path d="M81.12,18.86v-.11h.11l-.11,.11Z"/><path d="M85.52,7.5l.11,.11-.11-.11Z"/><path d="M85.32,7.71v-.11l.11,.11h-.11Z"/><path d="M13.25,23.64v0Z"/><path d="M13.25,23.74s.02,.04,.03,.07c0,0-.01,.02-.02,.03v-.1Z"/><path d="M41.81,13.47v.11l-.1,.1h-.21l.1-.21h.2Z"/><path d="M41.41,13.77l.11-.11-.11,.11Z"/><path d="M48.17,8.38l-.11,.11v-.1h.11Z"/><path d="M48.07,8.59h-.11l.11-.11v.11Z"/><path d="M43.57,17.1h-.11l.11-.11v.11Z"/><path d="M41.31,18.56l.1-.1h.11v.2h0l-.21,.1v-.2Z"/><path d="M41.62,18.36l-.11,.11,.11-.11Z"/><path d="M41.23,19.45h-.1v-.21h.1l.02,.02v.18Z"/><path d="M41.32,19.15l-.08,.11-.02-.02,.07-.12,.03,.03Z"/><path d="M42.89,12.59v.11h-.11l.11-.11Z"/><path d="M41.32,18.95l-.2,.1v-.21l.21-.1v.21Z"/><path d="M41.13,19.04v.21h0l-.2,.09h0v-.2l.2-.1Z"/><path d="M40.93,19.53l-.21,.11v-.21l.2-.09h0v.2h0Z"/><path d="M41.03,19.74h-.11v-.21h.1v.21Z"/><path d="M41.12,19.44v.1h-.1l.09-.1h0Z"/></svg>