<?xml version="1.0" encoding="UTF-8"?><svg id="Layer_2" xmlns="http://www.w3.org/2000/svg" viewBox="0 0 103.85 25.08"><path d="M19.65,1.93V15.11c0,4.68-3.79,8.47-8.47,8.47h0c-4.68,0-8.47-3.79-8.47-8.47V1.93" fill="none" stroke="#231f20" stroke-linecap="round" stroke-miterlimit="10" stroke-width="3"/><path d="M19.65,4.03h2.35c3.15,0,5.71,2.56,5.71,5.71h0c0,3.15-2.56,5.71-5.71,5.71h-2.35V4.03h0Z" fill="none" stroke="#231f20" stroke-linecap="round" stroke-miterlimit="10" stroke-width="3"/><g><path d="M38.36,19.79c-2.67,0-4.96-2.53-4.96-6.93s1.79-7.31,5.23-7.31c2.69,0,4.94,2.39,4.94,6.91s-2.05,7.33-5.21,7.33Zm.04-12.02c-1.47,0-2.61,1.55-2.61,4.68,0,3.76,1.12,5.1,2.83,5.1,1.45,0,2.55-1.47,2.55-4.72,0-3.56-.96-5.06-2.77-5.06Z" fill="#231f20"/><path d="M52.58,19.55c-.94,0-1.57-.58-1.57-1.59v-4.7c0-2.05-.54-2.61-1.71-2.61-.88,0-1.45,.74-1.45,2.51v6.39h-.86c-.95,0-1.53-.6-1.53-1.59v-4.88c0-2.73,1.27-4.62,4.12-4.62,2.17,0,3.8,1.49,3.8,4.6v6.49h-.8Z" fill="#231f20"/><path d="M59.1,15.17l-1.55,.02c.16,1.65,1.11,2.49,2.41,2.49,1.03,0,1.97-.22,2.67-1.02h.1v.84c0,1.27-.8,2.29-3.24,2.29-2.29,0-4.34-2.03-4.34-5.45,0-3.68,1.73-5.89,4.34-5.89,1.89,0,3.6,1.43,3.6,4,0,2.05-1.13,2.67-4,2.71Zm.2-4.66c-1.45,0-1.77,1.75-1.77,2.85l.99-.02c1.95-.04,2.33-.26,2.33-1.07,0-1.12-.58-1.77-1.55-1.77Z" fill="#231f20"/><path d="M72.32,19.79c-2.33,0-3.6-1.08-3.6-2.83v-.94h.1c.66,.92,1.87,1.57,3.24,1.57,1.57,0,2.25-.66,2.25-1.91,0-1.14-.58-1.57-2.61-2.19-1.93-.6-3.3-1.79-3.3-3.62,0-2.25,1.55-4.32,4.5-4.32,2.49,0,3.46,1.19,3.46,2.57v1.17h-.1c-.68-1-1.69-1.53-3.01-1.53-1.53,0-2.41,.7-2.41,1.87,0,.98,.64,1.49,2.45,2.05,2.01,.62,3.46,1.75,3.46,3.8,0,2.59-1.63,4.32-4.42,4.32Z" fill="#231f20"/><path d="M85.6,19.55c-.94,0-1.61-.58-1.61-1.59v-4.76c0-2.01-.62-2.53-1.61-2.53-.76,0-1.51,.6-1.51,2.45v6.43h-.8c-1.02,0-1.57-.64-1.57-1.59V5.08h.54c1.23,0,1.85,.62,1.85,1.69v3.03c.3-.72,1.27-1.35,2.05-1.35,2.11,0,3.46,1.41,3.46,4.62v6.47h-.8Z" fill="#231f20"/><path d="M92.35,19.79c-2.71,0-4.2-2.51-4.2-5.47,0-3.46,1.45-5.87,4.4-5.87,2.69,0,4.18,2.41,4.18,5.49,0,3.36-1.47,5.85-4.38,5.85Zm0-9.16c-1.14,0-1.79,1.21-1.79,3.32,0,2.39,.58,3.66,1.97,3.66,1.17,0,1.79-1.15,1.79-3.24,0-2.63-.64-3.74-1.97-3.74Z" fill="#231f20"/><path d="M101.9,19.77c-2.31,0-3.42-1.29-3.42-3.74v-7.09c0-.84,.22-1.37,.7-1.93,.32-.38,.72-.64,1.12-.64h.54v2.33h2.99v.94c0,.6-.44,1.21-1.35,1.21h-1.65v4.9c0,1.35,.46,1.85,1.37,1.85,.7,0,1.25-.2,1.53-.48h.1v.94c0,1.04-.66,1.71-1.95,1.71Z" fill="#231f20"/></g></svg>