<?xml version="1.0" encoding="utf-8"?>
<!-- Generator: Adobe Illustrator 26.3.1, SVG Export Plug-In . SVG Version: 6.00 Build 0)  -->
<svg version="1.1" id="Layer_1" xmlns="http://www.w3.org/2000/svg" xmlns:xlink="http://www.w3.org/1999/xlink" x="0px" y="0px"
	 viewBox="0 0 215.3 53.6" style="enable-background:new 0 0 215.3 53.6;" xml:space="preserve">
<style type="text/css">
	.st0{display:none;}
	.st1{display:inline;}
	.st2{fill:none;stroke:#231F20;stroke-width:6;stroke-linecap:round;stroke-miterlimit:10;}
</style>
<g class="st0">
	<path class="st1" d="M80.1,27c-2-1.3-2.6-2.4-2.6-4.7c0-2.6,1.2-5.5,3.1-8.2c3.5-4.9,9.1-8.7,12.1-8.7c1.2,0,2.1,0.6,2.7,1.4
		c1.4,0.7,2.3,2.3,2.3,4.8c0,2.1-0.8,5-2.1,7.2c-3.6,6.3-8.8,9.3-12.2,9.3C82.4,28.1,81.2,27.6,80.1,27z M82.3,24.9
		c6.2-1.3,13.2-8.9,13.2-14.4c0-1.1-0.3-2-0.9-2.5c-3.3,1.4-6.5,4-9.8,8.4C83.3,18.5,81.8,22.5,82.3,24.9z"/>
	<path class="st1" d="M102.8,26.4c-0.4-0.7-0.4-1.5-0.2-2.1c1-2.2,2.3-3.7,2.7-4.9c-1.6,1-3.9,2.9-6.5,6.6c-0.6,0.8-1,1.1-1.3,1.1
		c-0.4,0-1.1-0.3-1.9-0.4c-0.6-0.2-1.1-0.6-1.1-1.3c0-1,0.7-2.5,2.3-4.6c3.4-4.5,4.1-5.4,4.7-5.4c0.3,0,1,0.3,1.5,0.7
		c0.9,0.6,1.1,0.8,1.1,1.4c0,0.3-0.2,0.9-0.6,1.8c1.2-1.1,2.2-2,3-2.4c0.7-0.4,1.1-0.6,1.5-0.6s0.9,0.3,1.6,0.8
		c0.6,0.4,0.8,1.3,0.1,2.7c-0.8,1.6-2.3,3.5-3.3,5.7c1.2,0,3.5-1.7,5.7-4.6l0.1-0.1c0.2-0.3,0.3-0.3,0.4-0.2l0.1,0.1
		c0.2,0.2,0.2,0.4,0.1,0.6l-0.1,0.2c-1.2,1.9-4.8,6.4-7.6,6.4C104.1,27.6,103.1,27,102.8,26.4L102.8,26.4z"/>
	<path class="st1" d="M111.4,25.7c-1.1-1.3-1.5-3.3,0.8-6.4c1.6-2.1,4.5-4,6.6-4c0.6,0,1.1,0.2,1.6,0.5c0.5,0.3,0.7,0.5,1,0.9
		c0.6,0.5,1.1,1.2,1.1,1.9c0,0.9-0.6,1.9-2.7,3.2c-1.1,0.7-2.8,1.5-5.1,2.2c-0.1,0.6-0.1,1.1,0.1,1.4c0.3,0.1,0.6,0.1,0.9,0.1
		c1.8,0,3.7-0.5,5.9-2.3c0.1-0.1,0.2-0.1,0.3-0.1s0.2,0.1,0.2,0.3c0,0.3-0.1,0.9-0.4,1.2c-1.8,2-4.4,3.1-6.8,3.1
		C113.8,27.8,112.8,27.4,111.4,25.7z M120.5,17.7c-1.7,0.4-4.1,2.7-5.2,4.9c1.4-0.6,2.7-1.3,3.6-1.9
		C120.1,19.9,120.8,18.8,120.5,17.7z"/>
	<path class="st1" d="M132.1,14.3c0-2.5,1.8-4.3,4.5-6c3.2-2,7-3.4,8.8-3.4c1.2,0,2,0.5,2.8,1.6c0.8,1,0.8,1.5,0.4,1.6
		c-3.3,0.9-6.2,2-8.6,3.1c-4,1.9-5.1,3.3-5.1,4.4c0,0.7,0.5,1.2,1.5,1.9c1.7,1.2,3.3,2.6,3.3,4.7c0,1.7-1.3,3.3-3.3,4.6
		c-2.7,1.7-5.3,2.4-6.7,2.4c-1.1,0-1.8-0.5-2.7-1.3c-1.3-1.3-1.3-2.1-0.7-2.2c6.6-1.1,10.3-3.2,10.3-5.2c0-0.9-0.5-1.4-1.5-2.2
		C133.5,17,132.1,16.1,132.1,14.3z"/>
	<path class="st1" d="M143.2,27.7c-0.3,0-0.6-0.3-1.2-0.7c-0.9-0.6-1.5-1.1-1.5-1.9c0-0.6,0.3-1.2,2.4-4.5
		c5.6-8.6,8.8-13.7,9.5-15.4c0.2-0.4,0.3-0.4,0.6-0.3c0.7,0.4,1.5,0.6,2,1.1c0.7,0.6,0.7,1.8,0,3.2c-1.3,2.6-3.3,5.2-6.7,10.6
		c1.2-1.2,2.1-1.9,2.8-2.5c1.5-1.2,2.2-1.6,2.7-1.6s1.3,0.3,1.6,0.7c0.7,0.6,0.6,1.9,0.2,2.9c-0.8,1.9-2.1,3.1-2.8,5.7
		c1.4-0.4,3.1-1.6,5.1-4.3l0.1-0.1c0.2-0.3,0.3-0.3,0.4-0.2l0.1,0.1c0.2,0.2,0.2,0.4,0.1,0.6l-0.1,0.2c-2.4,4-5.6,5.9-7.1,5.9
		c-0.7,0-1.3-0.4-1.6-0.9c-0.8-0.8-0.9-1.9-0.6-2.8c0.6-2,1.3-3,1.6-3.9c-2,1.5-4.1,3.5-6,6.1C143.9,27.2,143.5,27.7,143.2,27.7z"/>
	<path class="st1" d="M157.7,26c-1.4-1.6-1.6-3.8,0.4-6.5c1.7-2.3,4.9-4.2,6.8-4.2c0.7,0,1.3,0.1,1.9,0.5c0.9,0.6,1.1,0.9,1.1,1.1
		c0,0.1,0,0.2-0.3,0.4c0.4,0.5,0.7,1.3,0.7,2.1c0,3.1-3.4,8-7.5,8C159.4,27.5,158.5,27,157.7,26L157.7,26z M166.8,17.7
		c-3.1,1.6-6.5,4.6-6.2,7.5c3-0.3,6.3-3.8,6.3-6.6C166.9,18.2,166.9,17.9,166.8,17.7z"/>
	<path class="st1" d="M169.6,26.4c-1.4-1.3-1.5-2.6,0.5-5.7c0.8-1.3,1.5-2.4,2.2-3.4c-0.3,0-0.6-0.1-0.8-0.3c-0.4-0.4-0.8-1-0.8-1.3
		c0-0.1,0.1-0.2,0.6-0.3c0.8-0.1,1.6-0.2,2.5-0.3c1.2-1.7,2.2-3.2,3.4-4.8c0.9-1.3,1.3-1.5,1.6-1.5c0.4,0,0.6,0.5,1.2,1
		c1.3,1.1,1,1.8-0.9,4.8c1.8-0.3,3.1-0.5,3.9-0.7c0.3-0.1,0.4,0.1,0.3,0.2c-0.1,0.2-0.5,0.7-0.7,0.9c-0.3,0.3-0.9,0.7-2.4,1
		c-0.5,0.1-1.3,0.3-2.4,0.6c-3.4,5.2-4.8,7.5-5.1,8.6c2.1-0.1,4.3-1.3,5.8-2.7c0.2-0.2,0.3-0.1,0.3,0c0,0.2-0.1,0.4-0.2,0.9
		c-0.1,0.3-0.4,0.8-0.6,1c-1.4,1.4-3.8,3.2-5.9,3.2C171.4,27.5,170.5,27.3,169.6,26.4L169.6,26.4z"/>
</g>
<g>
	<path d="M80.6,27c-2.4-1.3-3.1-2.4-3.1-4.7c0-2.6,1.4-5.5,3.6-8.2c4.1-4.9,10.7-8.7,14.2-8.7c1.4,0,2.5,0.6,3.2,1.4
		c1.6,0.7,2.7,2.3,2.7,4.8c0,2.1-0.9,5-2.5,7.2c-4.2,6.3-10.4,9.3-14.4,9.3C83.3,28.1,81.9,27.6,80.6,27z M83.1,24.9
		c7.3-1.3,15.5-8.9,15.5-14.4c0-1.1-0.4-2-1.1-2.5c-3.9,1.4-7.6,4-11.5,8.4C84.3,18.5,82.6,22.5,83.1,24.9z"/>
	<path d="M107.3,26.4c-0.5-0.7-0.5-1.5-0.2-2.1c1.2-2.2,2.7-3.7,3.2-4.9c-1.9,1-4.6,2.9-7.6,6.6c-0.7,0.8-1.2,1.1-1.5,1.1
		c-0.5,0-1.3-0.3-2.2-0.4c-0.7-0.2-1.3-0.6-1.3-1.3c0-1,0.8-2.5,2.7-4.6c4-4.5,4.8-5.4,5.5-5.4c0.4,0,1.2,0.3,1.8,0.7
		c1.1,0.6,1.3,0.8,1.3,1.4c0,0.3-0.2,0.9-0.7,1.8c1.4-1.1,2.6-2,3.5-2.4c0.8-0.4,1.3-0.6,1.8-0.6c0.5,0,1.1,0.3,1.9,0.8
		c0.7,0.4,0.9,1.3,0.1,2.7c-0.9,1.6-2.7,3.5-3.9,5.7c1.4,0,4.1-1.7,6.7-4.6l0.1-0.1c0.2-0.3,0.4-0.3,0.5-0.2l0.1,0.1
		c0.2,0.2,0.2,0.4,0.1,0.6l-0.1,0.2c-1.4,1.9-5.6,6.4-8.9,6.4C108.8,27.6,107.6,27,107.3,26.4L107.3,26.4z"/>
	<path d="M117.4,25.7c-1.3-1.3-1.8-3.3,0.9-6.4c1.9-2.1,5.3-4,7.8-4c0.7,0,1.3,0.2,1.9,0.5c0.6,0.3,0.8,0.5,1.2,0.9
		c0.7,0.5,1.3,1.2,1.3,1.9c0,0.9-0.7,1.9-3.2,3.2c-1.3,0.7-3.3,1.5-6,2.2c-0.1,0.6-0.1,1.1,0.1,1.4c0.4,0.1,0.7,0.1,1.1,0.1
		c2.1,0,4.4-0.5,6.9-2.3c0.1-0.1,0.2-0.1,0.4-0.1c0.1,0,0.2,0.1,0.2,0.3c0,0.3-0.1,0.9-0.5,1.2c-2.1,2-5.2,3.1-8,3.1
		C120.2,27.8,119,27.4,117.4,25.7z M128.1,17.7c-2,0.4-4.8,2.7-6.1,4.9c1.6-0.6,3.2-1.3,4.2-1.9C127.6,19.9,128.4,18.8,128.1,17.7z"
		/>
	<path d="M141.7,14.3c0-2.5,2.1-4.3,5.3-6c3.8-2,8.2-3.4,10.4-3.4c1.4,0,2.4,0.5,3.3,1.6c0.9,1,0.9,1.5,0.5,1.6
		c-3.9,0.9-7.3,2-10.1,3.1c-4.7,1.9-6,3.3-6,4.4c0,0.7,0.6,1.2,1.8,1.9c2,1.2,3.9,2.6,3.9,4.7c0,1.7-1.5,3.3-3.9,4.6
		c-3.2,1.7-6.2,2.4-7.9,2.4c-1.3,0-2.1-0.5-3.2-1.3c-1.5-1.3-1.5-2.1-0.8-2.2c7.8-1.1,12.1-3.2,12.1-5.2c0-0.9-0.6-1.4-1.8-2.2
		C143.4,17,141.7,16.1,141.7,14.3z"/>
	<path d="M154.8,27.7c-0.4,0-0.7-0.3-1.4-0.7c-1.1-0.6-1.8-1.1-1.8-1.9c0-0.6,0.4-1.2,2.8-4.5C161,12,164.8,6.9,165.6,5.2
		c0.2-0.4,0.4-0.4,0.7-0.3c0.8,0.4,1.8,0.6,2.4,1.1c0.8,0.6,0.8,1.8,0,3.2c-1.5,2.6-3.9,5.2-7.9,10.6c1.4-1.2,2.5-1.9,3.3-2.5
		c1.8-1.2,2.6-1.6,3.2-1.6s1.5,0.3,1.9,0.7c0.8,0.6,0.7,1.9,0.2,2.9c-0.9,1.9-2.5,3.1-3.3,5.7c1.6-0.4,3.6-1.6,6-4.3l0.1-0.1
		c0.2-0.3,0.4-0.3,0.5-0.2l0.1,0.1c0.2,0.2,0.2,0.4,0.1,0.6l-0.1,0.2c-2.8,4-6.6,5.9-8.4,5.9c-0.8,0-1.5-0.4-1.9-0.9
		c-0.9-0.8-1.1-1.9-0.7-2.8c0.7-2,1.5-3,1.9-3.9c-2.4,1.5-4.8,3.5-7.1,6.1C155.6,27.2,155.1,27.7,154.8,27.7z"/>
	<path d="M171.8,26c-1.6-1.6-1.9-3.8,0.5-6.5c2-2.3,5.8-4.2,8-4.2c0.8,0,1.5,0.1,2.2,0.5c1.1,0.6,1.3,0.9,1.3,1.1
		c0,0.1,0,0.2-0.4,0.4c0.5,0.5,0.8,1.3,0.8,2.1c0,3.1-4,8-8.8,8C173.8,27.5,172.8,27,171.8,26L171.8,26z M182.5,17.7
		c-3.6,1.6-7.6,4.6-7.3,7.5c3.5-0.3,7.4-3.8,7.4-6.6C182.7,18.2,182.7,17.9,182.5,17.7z"/>
	<path d="M185.8,26.4c-1.6-1.3-1.8-2.6,0.6-5.7c0.9-1.3,1.8-2.4,2.6-3.4c-0.4,0-0.7-0.1-0.9-0.3c-0.5-0.4-0.9-1-0.9-1.3
		c0-0.1,0.1-0.2,0.7-0.3c0.9-0.1,1.9-0.2,2.9-0.3c1.4-1.7,2.6-3.2,4-4.8c1.1-1.3,1.5-1.5,1.9-1.5c0.5,0,0.7,0.5,1.4,1
		c1.5,1.1,1.2,1.8-1.1,4.8c2.1-0.3,3.6-0.5,4.6-0.7c0.4-0.1,0.5,0.1,0.4,0.2c-0.1,0.2-0.6,0.7-0.8,0.9c-0.4,0.3-1.1,0.7-2.8,1
		c-0.6,0.1-1.5,0.3-2.8,0.6c-4,5.2-5.6,7.5-6,8.6c2.5-0.1,5.1-1.3,6.8-2.7c0.2-0.2,0.4-0.1,0.4,0c0,0.2-0.1,0.4-0.2,0.9
		c-0.1,0.3-0.5,0.8-0.7,1c-1.6,1.4-4.5,3.2-6.9,3.2C187.9,27.5,186.9,27.3,185.8,26.4L185.8,26.4z"/>
</g>
<rect x="77.3" y="31" width="120.8" height="2"/>
<g>
	<path d="M80.5,44.4c-0.8,2.4-2.8,4.1-5.7,4.1c-3.6,0-6.1-2.5-6.1-7s2.6-7,6.2-7c3,0,4.8,1.7,5.5,3.8L77.9,39c-0.5-1.1-1.5-2-3.1-2
		c-2.2,0-3.5,1.6-3.5,4.5c0,3.1,1.4,4.6,3.5,4.6c1.7,0,2.7-0.9,3.3-2.3C78.1,43.8,80.5,44.4,80.5,44.4z"/>
	<path d="M86.7,37.3c3,0,5.2,2,5.2,5.6s-2.1,5.6-5.2,5.6s-5.1-2.1-5.1-5.6S83.7,37.3,86.7,37.3z M86.7,46.3c1.6,0,2.7-1.2,2.7-3.4
		s-1.1-3.4-2.7-3.4S84,40.7,84,42.9S85.1,46.3,86.7,46.3z"/>
	<path d="M95.9,39.8v2.5h3.4v2.3h-3.4v3.7h-2.4V37.5h7.1v2.3H95.9z"/>
	<path d="M104.7,39.8v2.5h3.4v2.3h-3.4v3.7h-2.4V37.5h7.1v2.3H104.7z"/>
	<path d="M111.1,37.5h7.4v2.3h-5v1.9h3.7v2.2h-3.7V46h5.1v2.3h-7.5V37.5z"/>
	<path d="M120.5,37.5h7.4v2.3h-5v1.9h3.7v2.2h-3.7V46h5.1v2.3h-7.5V37.5z"/>
	<path d="M139.1,34.8c3.8,0,6.3,2.6,6.3,6.8s-2.5,6.7-6.3,6.7h-4.9V34.8H139.1z M138.9,45.9c2.2,0,3.9-1.3,3.9-4.2
		c0-3.1-1.7-4.4-3.9-4.4h-2.1V46L138.9,45.9L138.9,45.9z"/>
	<path d="M147.1,37.5h7.4v2.3h-5v1.9h3.7v2.2h-3.7V46h5.1v2.3h-7.5V37.5z"/>
	<path d="M156.4,37.5h2.4V46h4.5v2.3h-6.9V37.5z"/>
	<path d="M165,37.5h2.4v10.8H165V37.5z"/>
	<path d="M172.4,48.3l-3.6-10.8h2.7l1.5,4.8c0.7,2.3,1.1,3.5,1.1,3.5h0.1c0,0,0.4-1.2,1.1-3.5l1.5-4.8h2.5l-3.6,10.8H172.4z"/>
	<path d="M180.5,37.5h7.4v2.3h-5v1.9h3.7v2.2h-3.7V46h5.1v2.3h-7.5V37.5z"/>
	<path d="M193.7,44.5h-1.5v3.8h-2.4V37.5h3.9c2.6,0,4.1,1.4,4.1,3.5c0,1.6-0.8,2.6-1.9,3l2.3,4.3h-2.6L193.7,44.5L193.7,44.5z
		 M193.8,42.6c1.1,0,1.6-0.5,1.6-1.5s-0.5-1.5-1.6-1.5h-1.5v2.9L193.8,42.6L193.8,42.6z"/>
	<path d="M202,48.3v-3.9l-3.6-6.9h2.7l1.2,2.3c0.6,1.2,1,2.2,1,2.2h0.1l1.1-2.2l1.2-2.3h2.4l-3.6,6.9v3.9H202L202,48.3z"/>
</g>
<g>
	<path class="st2" d="M56.1,8.2v22.6c0,8.1-6.5,14.6-14.6,14.6l0,0c-8.1,0-14.6-6.5-14.6-14.6V8.2"/>
	<path class="st2" d="M56.1,11.8h4.1c5.3,0,9.8,4.5,9.8,9.8l0,0c0,5.3-4.5,9.8-9.8,9.8h-4.1L56.1,11.8
		C56.1,11.8,56.1,11.8,56.1,11.8z"/>
</g>
</svg>
