<?xml version="1.0" encoding="utf-8"?>
<!-- Generator: Adobe Illustrator 26.3.1, SVG Export Plug-In . SVG Version: 6.00 Build 0)  -->
<svg version="1.1" xmlns="http://www.w3.org/2000/svg" xmlns:xlink="http://www.w3.org/1999/xlink" x="0px" y="0px"
	 viewBox="0 0 198.1 53.6" style="enable-background:new 0 0 198.1 53.6;" xml:space="preserve">
<style type="text/css">
	.st0{display:none;}
	.st1{display:inline;fill:#F7F1EB;}
	.st2{display:inline;}
</style>
<g id="Layer_2" class="st0">
	<rect class="st1" width="198.1" height="53.6"/>
</g>
<g id="main">
	<g>
		<path d="M62.9,27c-2-1.3-2.6-2.4-2.6-4.7c0-2.6,1.2-5.5,3.1-8.2c3.5-4.9,9.1-8.7,12.1-8.7c1.2,0,2.1,0.6,2.7,1.4
			c1.4,0.7,2.3,2.3,2.3,4.8c0,2.1-0.8,5-2.1,7.2c-3.6,6.3-8.8,9.3-12.2,9.3C65.2,28.1,64,27.6,62.9,27z M65.1,24.9
			c6.2-1.3,13.2-8.9,13.2-14.4c0-1.1-0.3-2-0.9-2.5c-3.3,1.4-6.5,4-9.8,8.4C66.1,18.5,64.6,22.5,65.1,24.9z"/>
		<path d="M85.6,26.4c-0.4-0.7-0.4-1.5-0.2-2.1c1-2.2,2.3-3.7,2.7-4.9c-1.6,1-3.9,2.9-6.5,6.6c-0.6,0.8-1,1.1-1.3,1.1
			c-0.4,0-1.1-0.3-1.9-0.4c-0.6-0.2-1.1-0.6-1.1-1.3c0-1,0.7-2.5,2.3-4.6c3.4-4.5,4.1-5.4,4.7-5.4c0.3,0,1,0.3,1.5,0.7
			c0.9,0.6,1.1,0.8,1.1,1.4c0,0.3-0.2,0.9-0.6,1.8c1.2-1.1,2.2-2,3-2.4c0.7-0.4,1.1-0.6,1.5-0.6c0.4,0,0.9,0.3,1.6,0.8
			c0.6,0.4,0.8,1.3,0.1,2.7c-0.8,1.6-2.3,3.5-3.3,5.7c1.2,0,3.5-1.7,5.7-4.6l0.1-0.1c0.2-0.3,0.3-0.3,0.4-0.2l0.1,0.1
			c0.2,0.2,0.2,0.4,0.1,0.6l-0.1,0.2c-1.2,1.9-4.8,6.4-7.6,6.4C86.9,27.6,86,27,85.6,26.4z"/>
		<path d="M94.2,25.7c-1.1-1.3-1.5-3.3,0.8-6.4c1.6-2.1,4.5-4,6.6-4c0.6,0,1.1,0.2,1.6,0.5c0.5,0.3,0.7,0.5,1,0.9
			c0.6,0.5,1.1,1.2,1.1,1.9c0,0.9-0.6,1.9-2.7,3.2c-1.1,0.7-2.8,1.5-5.1,2.2c-0.1,0.6-0.1,1.1,0.1,1.4c0.3,0.1,0.6,0.1,0.9,0.1
			c1.8,0,3.7-0.5,5.9-2.3c0.1-0.1,0.2-0.1,0.3-0.1c0.1,0,0.2,0.1,0.2,0.3c0,0.3-0.1,0.9-0.4,1.2c-1.8,2-4.4,3.1-6.8,3.1
			C96.6,27.8,95.6,27.4,94.2,25.7z M103.3,17.7c-1.7,0.4-4.1,2.7-5.2,4.9c1.4-0.6,2.7-1.3,3.6-1.9C102.9,19.9,103.7,18.8,103.3,17.7
			z"/>
		<path d="M114.9,14.3c0-2.5,1.8-4.3,4.5-6c3.2-2,7-3.4,8.8-3.4c1.2,0,2,0.5,2.8,1.6c0.8,1,0.8,1.5,0.4,1.6c-3.3,0.9-6.2,2-8.6,3.1
			c-4,1.9-5.1,3.3-5.1,4.4c0,0.7,0.5,1.2,1.5,1.9c1.7,1.2,3.3,2.6,3.3,4.7c0,1.7-1.3,3.3-3.3,4.6c-2.7,1.7-5.3,2.4-6.7,2.4
			c-1.1,0-1.8-0.5-2.7-1.3c-1.3-1.3-1.3-2.1-0.7-2.2c6.6-1.1,10.3-3.2,10.3-5.2c0-0.9-0.5-1.4-1.5-2.2
			C116.4,17,114.9,16.1,114.9,14.3z"/>
		<path d="M126,27.7c-0.3,0-0.6-0.3-1.2-0.7c-0.9-0.6-1.5-1.1-1.5-1.9c0-0.6,0.3-1.2,2.4-4.5c5.6-8.6,8.8-13.7,9.5-15.4
			c0.2-0.4,0.3-0.4,0.6-0.3c0.7,0.4,1.5,0.6,2,1.1c0.7,0.6,0.7,1.8,0,3.2c-1.3,2.6-3.3,5.2-6.7,10.6c1.2-1.2,2.1-1.9,2.8-2.5
			c1.5-1.2,2.2-1.6,2.7-1.6c0.5,0,1.3,0.3,1.6,0.7c0.7,0.6,0.6,1.9,0.2,2.9c-0.8,1.9-2.1,3.1-2.8,5.7c1.4-0.4,3.1-1.6,5.1-4.3
			l0.1-0.1c0.2-0.3,0.3-0.3,0.4-0.2l0.1,0.1c0.2,0.2,0.2,0.4,0.1,0.6l-0.1,0.2c-2.4,4-5.6,5.9-7.1,5.9c-0.7,0-1.3-0.4-1.6-0.9
			c-0.8-0.8-0.9-1.9-0.6-2.8c0.6-2,1.3-3,1.6-3.9c-2,1.5-4.1,3.5-6,6.1C126.7,27.2,126.3,27.7,126,27.7z"/>
		<path d="M140.5,26c-1.4-1.6-1.6-3.8,0.4-6.5c1.7-2.3,4.9-4.2,6.8-4.2c0.7,0,1.3,0.1,1.9,0.5c0.9,0.6,1.1,0.9,1.1,1.1
			c0,0.1,0,0.2-0.3,0.4c0.4,0.5,0.7,1.3,0.7,2.1c0,3.1-3.4,8-7.5,8C142.2,27.5,141.3,27,140.5,26z M149.6,17.7
			c-3.1,1.6-6.5,4.6-6.2,7.5c3-0.3,6.3-3.8,6.3-6.6C149.8,18.2,149.7,17.9,149.6,17.7z"/>
		<path d="M152.4,26.4c-1.4-1.3-1.5-2.6,0.5-5.7c0.8-1.3,1.5-2.4,2.2-3.4c-0.3,0-0.6-0.1-0.8-0.3c-0.4-0.4-0.8-1-0.8-1.3
			c0-0.1,0.1-0.2,0.6-0.3c0.8-0.1,1.6-0.2,2.5-0.3c1.2-1.7,2.2-3.2,3.4-4.8c0.9-1.3,1.3-1.5,1.6-1.5c0.4,0,0.6,0.5,1.2,1
			c1.3,1.1,1,1.8-0.9,4.8c1.8-0.3,3.1-0.5,3.9-0.7c0.3-0.1,0.4,0.1,0.3,0.2c-0.1,0.2-0.5,0.7-0.7,0.9c-0.3,0.3-0.9,0.7-2.4,1
			c-0.5,0.1-1.3,0.3-2.4,0.6c-3.4,5.2-4.8,7.5-5.1,8.6c2.1-0.1,4.3-1.3,5.8-2.7c0.2-0.2,0.3-0.1,0.3,0c0,0.2-0.1,0.4-0.2,0.9
			c-0.1,0.3-0.4,0.8-0.6,1c-1.4,1.4-3.8,3.2-5.9,3.2C154.2,27.5,153.3,27.3,152.4,26.4z"/>
	</g>
	<g>
		<rect x="60.1" y="31" width="120.8" height="2"/>
	</g>
	<g>
		<path d="M63.4,44.4c-0.8,2.4-2.8,4.1-5.7,4.1c-3.6,0-6.1-2.5-6.1-7c0-4.5,2.6-7,6.2-7c3,0,4.8,1.7,5.5,3.8L60.8,39
			c-0.5-1.1-1.5-2-3.1-2c-2.2,0-3.5,1.6-3.5,4.5c0,3.1,1.4,4.6,3.5,4.6c1.7,0,2.7-0.9,3.3-2.3L63.4,44.4z"/>
		<path d="M69.5,37.3c3,0,5.2,2,5.2,5.6c0,3.5-2.1,5.6-5.2,5.6s-5.1-2.1-5.1-5.6C64.4,39.3,66.5,37.3,69.5,37.3z M69.5,46.3
			c1.6,0,2.7-1.2,2.7-3.4c0-2.2-1.1-3.4-2.7-3.4c-1.6,0-2.7,1.2-2.7,3.4C66.9,45.1,67.9,46.3,69.5,46.3z"/>
		<path d="M78.8,39.8v2.5h3.4v2.3h-3.4v3.7h-2.4V37.5h7.1v2.3H78.8z"/>
		<path d="M87.6,39.8v2.5H91v2.3h-3.4v3.7h-2.4V37.5h7.1v2.3H87.6z"/>
		<path d="M94,37.5h7.4v2.3h-5v1.9h3.7v2.2h-3.7V46h5.1v2.3H94V37.5z"/>
		<path d="M103.3,37.5h7.4v2.3h-5v1.9h3.7v2.2h-3.7V46h5.1v2.3h-7.5V37.5z"/>
		<path d="M121.9,34.8c3.8,0,6.3,2.6,6.3,6.8s-2.5,6.7-6.3,6.7h-4.9V34.8H121.9z M121.8,45.9c2.2,0,3.9-1.3,3.9-4.2
			c0-3.1-1.7-4.4-3.9-4.4h-2.1v8.7H121.8z"/>
		<path d="M129.9,37.5h7.4v2.3h-5v1.9h3.7v2.2h-3.7V46h5.1v2.3h-7.5V37.5z"/>
		<path d="M139.2,37.5h2.4V46h4.5v2.3h-6.9V37.5z"/>
		<path d="M147.8,37.5h2.4v10.8h-2.4V37.5z"/>
		<path d="M155.2,48.3l-3.6-10.8h2.7l1.5,4.8c0.7,2.3,1.1,3.5,1.1,3.5h0.1c0,0,0.4-1.2,1.1-3.5l1.5-4.8h2.5l-3.6,10.8H155.2z"/>
		<path d="M163.3,37.5h7.4v2.3h-5v1.9h3.7v2.2h-3.7V46h5.1v2.3h-7.5V37.5z"/>
		<path d="M176.5,44.5c-0.2,0-0.7,0-0.9,0h-0.6v3.8h-2.4V37.5h3.9c2.6,0,4.1,1.4,4.1,3.5c0,1.6-0.8,2.6-1.9,3l2.3,4.3h-2.6
			L176.5,44.5z M176.6,42.6c1.1,0,1.6-0.5,1.6-1.5c0-1-0.5-1.5-1.6-1.5h-1.5v2.9H176.6z"/>
		<path d="M184.8,48.3v-3.9l-3.6-6.9h2.7l1.2,2.3c0.6,1.2,1,2.2,1,2.2h0.1c0,0,0.5-1,1.1-2.2l1.2-2.3h2.4l-3.6,6.9v3.9H184.8z"/>
	</g>
	<path class="st0" d="M51,26.5c0-3.7-6.9-6-15.1-6.8c0-0.3-0.1-0.7-0.2-1c-1.3-5.6-6.5-10.5-6.5-10.5s-5.1,4.9-6.5,10.5
		c-0.1,0.3-0.1,0.7-0.2,1c-8.2,0.8-15.1,3.1-15.1,6.8c0,0,0,0,0,0h0v1c0,12,9.8,21.7,21.7,21.7S51,39.5,51,27.5V26.5L51,26.5
		C51,26.5,51,26.5,51,26.5z M22.6,21.8c0.4,4.2,3.8,7.5,6.7,7.5s6.3-3.2,6.7-7.5c8.2,0.8,13.1,3,13.1,4.7c0,2.1-7.5,5.1-19.7,5.1
		s-19.7-3-19.7-5.1C9.5,24.8,14.4,22.6,22.6,21.8z M29.3,47.3c-10.1,0-18.5-7.7-19.6-17.5c3.7,2.5,11.7,3.8,19.6,3.8
		s15.9-1.3,19.6-3.8C47.8,39.6,39.4,47.3,29.3,47.3z"/>
	<path d="M32.8,11.7c-10.9,0-22,2.5-22,7.3c0,12.5,9.9,22.7,22,22.7s22-10.2,22-22.7C54.8,14.2,43.7,11.7,32.8,11.7z M32.8,13.7
		c12.4,0,20,3.1,20,5.3c0,1.2-2.3,2.7-6.3,3.7c-2.5-1.9-7.7-3.3-13.7-3.3c-6,0-11.2,1.3-13.7,3.2c-4-1.1-6.3-2.5-6.3-3.7
		C12.8,16.8,20.4,13.7,32.8,13.7z M32.8,39.7c-9.9,0-18.1-7.5-19.7-17.3c3.8,2.5,11.8,3.9,19.7,3.9s15.9-1.3,19.7-3.9
		C50.9,32.2,42.7,39.7,32.8,39.7z"/>
	<path d="M17.2,34.7C9.5,37.4,1.8,28.1,5.3,20.8c1.1-2.5,4.2-3.8,6.8-3.1c0,0-0.4,2-0.4,2C9.8,19.3,8,20,7.1,21.7
		c-1.7,3.6,0.1,8.5,3.7,10.3c1.8,1,3.9,1.5,5.6,0.8L17.2,34.7L17.2,34.7z"/>
</g>
<g id="addon" class="st0">
	<path class="st2" d="M12,24.4c2.8,2,6.2,3.2,9.7,3.7c-3.2-0.2-6.4-0.9-9.3-2.3c-0.3-0.2-0.1-0.5-0.4-0.7C12.1,25.1,12,24.4,12,24.4
		L12,24.4z"/>
	<path class="st2" d="M14,27.4c2.9,1.9,6.3,2.9,9.8,3.3c-3.6-0.1-7.1-0.8-10.3-2.5C13.5,28.2,14,27.4,14,27.4L14,27.4z"/>
	<path class="st2" d="M16,30.3c2.9,1.8,6.4,2.7,9.9,3c-3.6,0-7.2-0.5-10.4-2.1C15.5,31.2,16,30.3,16,30.3L16,30.3z"/>
	<path class="st2" d="M17.9,33.2c3,1.7,6.5,2.5,10,2.6c-3.5,0.2-7.2-0.3-10.5-1.8C17.5,34.1,17.9,33.2,17.9,33.2L17.9,33.2z"/>
	<path class="st2" d="M19.2,35.4c3,1.7,6.5,2.5,10,2.6c-3.5,0.2-7.2-0.3-10.5-1.8C18.8,36.3,19.2,35.4,19.2,35.4L19.2,35.4z"/>
</g>
</svg>
