<?xml version="1.0" encoding="utf-8"?>
<!-- Generator: Adobe Illustrator 26.3.1, SVG Export Plug-In . SVG Version: 6.00 Build 0)  -->
<svg version="1.1" id="Layer_1" xmlns="http://www.w3.org/2000/svg" xmlns:xlink="http://www.w3.org/1999/xlink" x="0px" y="0px"
	 viewBox="0 0 100 100" style="enable-background:new 0 0 100 100;" xml:space="preserve">
<style type="text/css">
	.st0{display:none;fill:#72736B;}
	.st1{fill:#72736B;}
</style>
<g>
	<g>
		<g>
			<path class="st0" d="M66.4,36.5C66.4,36.5,66.4,36.5,66.4,36.5l0-2.9c0-0.9-0.7-1.7-1.7-1.7H42.6c-0.9,0-1.7,0.7-1.7,1.7V60
				c0,0.9,0.7,1.7,1.7,1.7h22.1c0.9,0,1.7-0.7,1.7-1.7v-2.9c0,0,0,0,0,0c5.7,0,10.3-4.6,10.3-10.3S72.1,36.5,66.4,36.5z M66.4,53.2
				C66.4,53.2,66.4,53.2,66.4,53.2l0-12.7c0,0,0,0,0,0c3.5,0,6.4,2.9,6.4,6.4C72.8,50.3,69.9,53.2,66.4,53.2z"/>
		</g>
		<g>
			<path class="st1" d="M65.6,28.2H49c-0.3,0-0.5-0.2-0.5-0.5s0.2-0.5,0.5-0.5h16.6c1,0,1.9-0.9,1.9-1.9s-0.9-1.9-1.9-1.9H44.6
				c-0.3,0-0.5-0.2-0.5-0.5s0.2-0.5,0.5-0.5h20.9c1.6,0,2.9,1.3,2.9,2.9S67.2,28.2,65.6,28.2z"/>
		</g>
		<g>
			<path class="st1" d="M44.1,32.5C44,32.5,44,32.5,44.1,32.5c-0.3,0-0.5-0.3-0.5-0.5c0,0,0.4-4.8,5.4-4.8c0.3,0,0.5,0.2,0.5,0.5
				s-0.2,0.5-0.5,0.5c-4.1,0-4.4,3.7-4.4,3.8C44.5,32.3,44.3,32.5,44.1,32.5z"/>
		</g>
		<g>
			<path class="st1" d="M49,32.5C49,32.5,49,32.5,49,32.5c-0.3,0-0.5-0.3-0.5-0.5c0,0,0.4-4.8,5.4-4.8c0.3,0,0.5,0.2,0.5,0.5
				s-0.2,0.5-0.5,0.5c-4.1,0-4.4,3.7-4.4,3.8C49.5,32.3,49.2,32.5,49,32.5z"/>
		</g>
		<g>
			<path class="st1" d="M44.6,23.4c-1.8,0-3.2-0.6-4.2-1.8c-1.4-1.7-1.4-4.3,0-6c1-1.2,2.4-1.8,4.2-1.8h8.7c0.3,0,0.5,0.2,0.5,0.5
				s-0.2,0.5-0.5,0.5h-8.7c-1.5,0-2.6,0.5-3.4,1.4c-1.1,1.3-1.1,3.4,0,4.7c0.8,1,1.9,1.4,3.4,1.4c0.3,0,0.5,0.2,0.5,0.5
				S44.9,23.4,44.6,23.4z"/>
		</g>
		<g>
			<path class="st1" d="M53.3,14.8c-0.3,0-0.5-0.2-0.5-0.5c0-0.3,0.2-0.5,0.5-0.5c0.2,0,2.2-0.3,2.2-2.6c0-0.3,0.2-0.5,0.5-0.5
				s0.5,0.2,0.5,0.5C56.5,13.9,54.4,14.7,53.3,14.8C53.3,14.8,53.3,14.8,53.3,14.8z"/>
		</g>
		<g>
			<path class="st1" d="M49.4,23.4c-1.1,0-2.1-0.4-2.7-1.1c-1-1.2-1-3,0-4.1c0.7-0.7,1.6-1.1,2.7-1.1c0.3,0,0.5,0.2,0.5,0.5
				S49.7,18,49.4,18c-0.8,0-1.5,0.3-2,0.8c-0.7,0.8-0.7,2,0,2.8c0.5,0.5,1.1,0.8,2,0.8c0.3,0,0.5,0.2,0.5,0.5S49.7,23.4,49.4,23.4z"
				/>
		</g>
		<g>
			<path class="st1" d="M61.7,36.2h-1.5V35c0-0.8-0.6-1.4-1.4-1.4c-0.8,0-1.4,0.6-1.4,1.4v1.2v15c0,5-4.1,9.1-9.1,9.1
				s-9.1-4.1-9.1-9.1V35c0-0.8-0.6-1.4-1.4-1.4c-0.8,0-1.4,0.6-1.4,1.4v16.2c0,6.6,5.3,11.9,11.9,11.9c5.9,0,10.8-4.4,11.7-10h1.7
				c4.6,0,8.5-3.9,8.5-8.4S66.3,36.2,61.7,36.2z M61.7,50.2h-1.5V39h1.5c3,0,5.6,2.6,5.6,5.6S64.8,50.2,61.7,50.2z"/>
		</g>
	</g>
	<g>
		<g>
			<g>
				<path class="st1" d="M2.4,80.7c-1.2-0.6-1.5-1.2-1.5-2.3c0-1.3,0.7-2.7,1.7-4c2-2.4,5.2-4.2,6.8-4.2c0.7,0,1.2,0.3,1.5,0.7
					c0.8,0.3,1.3,1.1,1.3,2.3c0,1-0.4,2.4-1.2,3.5c-2,3-5,4.5-6.9,4.5C3.7,81.2,3,81,2.4,80.7z M3.6,79.7c3.5-0.6,7.5-4.3,7.5-6.9
					c0-0.5-0.2-1-0.5-1.2c-1.9,0.7-3.7,1.9-5.5,4C4.2,76.6,3.4,78.5,3.6,79.7z"/>
			</g>
			<g>
				<path class="st1" d="M15.3,80.4c-0.2-0.3-0.2-0.7-0.1-1c0.6-1.1,1.3-1.8,1.5-2.4c-0.9,0.5-2.2,1.4-3.7,3.2
					c-0.3,0.4-0.6,0.5-0.7,0.5c-0.2,0-0.6-0.1-1.1-0.2c-0.3-0.1-0.6-0.3-0.6-0.6c0-0.5,0.4-1.2,1.3-2.2c1.9-2.2,2.3-2.6,2.7-2.6
					c0.2,0,0.6,0.1,0.9,0.3c0.5,0.3,0.6,0.4,0.6,0.7c0,0.1-0.1,0.4-0.3,0.9c0.7-0.5,1.3-1,1.7-1.2c0.4-0.2,0.6-0.3,0.9-0.3
					s0.5,0.1,0.9,0.4c0.3,0.2,0.4,0.6,0,1.3C18.8,78,18,78.9,17.4,80c0.7,0,2-0.8,3.2-2.2l0,0c0.1-0.1,0.2-0.1,0.2-0.1l0,0
					c0.1,0.1,0.1,0.2,0,0.3l0,0.1c-0.7,0.9-2.7,3.1-4.3,3.1C16,81,15.4,80.7,15.3,80.4L15.3,80.4z"/>
			</g>
			<g>
				<path class="st1" d="M20.1,80.1c-0.6-0.6-0.9-1.6,0.4-3.1c0.9-1,2.6-1.9,3.8-1.9c0.3,0,0.6,0.1,0.9,0.2c0.3,0.1,0.4,0.2,0.6,0.4
					c0.3,0.2,0.6,0.6,0.6,0.9c0,0.4-0.3,0.9-1.5,1.5c-0.6,0.3-1.6,0.7-2.9,1.1c0,0.3,0,0.5,0,0.7c0.2,0,0.3,0,0.5,0
					c1,0,2.1-0.2,3.3-1.1c0,0,0.1,0,0.2,0c0,0,0.1,0,0.1,0.1c0,0.1,0,0.4-0.2,0.6c-1,1-2.5,1.5-3.9,1.5
					C21.5,81.1,20.9,80.9,20.1,80.1z M25.3,76.2c-1,0.2-2.3,1.3-2.9,2.4c0.8-0.3,1.5-0.6,2-0.9C25,77.3,25.4,76.7,25.3,76.2z"/>
			</g>
			<g>
				<path class="st1" d="M31.8,74.6c0-1.2,1-2.1,2.6-2.9c1.8-1,4-1.6,5-1.6c0.7,0,1.2,0.2,1.6,0.8c0.4,0.5,0.4,0.7,0.2,0.8
					c-1.9,0.4-3.5,1-4.9,1.5c-2.3,0.9-2.9,1.6-2.9,2.1c0,0.3,0.3,0.6,0.9,0.9c1,0.6,1.9,1.3,1.9,2.3c0,0.8-0.7,1.6-1.9,2.2
					c-1.5,0.8-3,1.2-3.8,1.2c-0.6,0-1-0.2-1.5-0.6c-0.7-0.6-0.7-1-0.4-1.1c3.8-0.5,5.8-1.5,5.8-2.5c0-0.4-0.3-0.7-0.9-1.1
					C32.7,75.9,31.8,75.4,31.8,74.6z"/>
			</g>
			<g>
				<path class="st1" d="M38.2,81c-0.2,0-0.3-0.1-0.7-0.3c-0.5-0.3-0.9-0.5-0.9-0.9c0-0.3,0.2-0.6,1.3-2.2c3.2-4.1,5-6.6,5.4-7.4
					c0.1-0.2,0.2-0.2,0.3-0.1c0.4,0.2,0.9,0.3,1.2,0.5c0.4,0.3,0.4,0.9,0,1.5c-0.7,1.3-1.9,2.5-3.8,5.1c0.7-0.6,1.2-0.9,1.6-1.2
					c0.9-0.6,1.3-0.8,1.5-0.8s0.7,0.1,0.9,0.3c0.4,0.3,0.3,0.9,0.1,1.4c-0.4,0.9-1.2,1.5-1.6,2.7c0.8-0.2,1.7-0.8,2.9-2.1l0,0
					c0.1-0.1,0.2-0.1,0.2-0.1l0,0c0.1,0.1,0.1,0.2,0,0.3l0,0.1c-1.3,1.9-3.2,2.8-4,2.8c-0.4,0-0.7-0.2-0.9-0.4
					c-0.4-0.4-0.5-0.9-0.3-1.3c0.3-1,0.7-1.4,0.9-1.9c-1.2,0.7-2.3,1.7-3.4,2.9C38.5,80.8,38.3,81,38.2,81z"/>
			</g>
			<g>
				<path class="st1" d="M46.3,80.2c-0.8-0.8-0.9-1.8,0.2-3.1c1-1.1,2.8-2,3.9-2c0.4,0,0.7,0,1.1,0.2c0.5,0.3,0.6,0.4,0.6,0.5
					c0,0,0,0.1-0.2,0.2c0.2,0.2,0.4,0.6,0.4,1c0,1.5-1.9,3.9-4.2,3.9C47.3,80.9,46.8,80.7,46.3,80.2L46.3,80.2z M51.5,76.2
					c-1.7,0.8-3.7,2.2-3.5,3.6c1.7-0.1,3.6-1.8,3.6-3.2C51.6,76.5,51.6,76.3,51.5,76.2z"/>
			</g>
			<g>
				<path class="st1" d="M53.1,80.4c-0.8-0.6-0.9-1.3,0.3-2.7c0.4-0.6,0.9-1.2,1.3-1.6c-0.2,0-0.3,0-0.4-0.1
					c-0.2-0.2-0.4-0.5-0.4-0.6c0,0,0-0.1,0.3-0.1c0.4,0,0.9-0.1,1.4-0.1c0.7-0.8,1.3-1.5,1.9-2.3c0.5-0.6,0.7-0.7,0.9-0.7
					c0.2,0,0.3,0.2,0.7,0.5c0.7,0.5,0.6,0.9-0.5,2.3c1-0.1,1.7-0.2,2.2-0.3c0.2,0,0.2,0,0.2,0.1c0,0.1-0.3,0.3-0.4,0.4
					c-0.2,0.1-0.5,0.3-1.3,0.5c-0.3,0-0.7,0.1-1.3,0.3c-1.9,2.5-2.7,3.6-2.9,4.1c1.2,0,2.5-0.6,3.3-1.3c0.1-0.1,0.2,0,0.2,0
					c0,0.1,0,0.2-0.1,0.4c0,0.1-0.2,0.4-0.3,0.5c-0.8,0.7-2.2,1.5-3.3,1.5C54.1,80.9,53.6,80.8,53.1,80.4L53.1,80.4z"/>
			</g>
		</g>
		<g>
			<path class="st1" d="M63.9,76c0-0.8,0-1.4-0.1-2H65l0.1,1.2h0c0.4-0.7,1.1-1.4,2.4-1.4c1,0,1.8,0.6,2.1,1.5h0
				c0.2-0.4,0.5-0.7,0.8-1c0.5-0.3,0.9-0.5,1.7-0.5c1,0,2.5,0.7,2.5,3.3v4.4h-1.3v-4.3c0-1.4-0.5-2.3-1.6-2.3
				c-0.8,0-1.4,0.6-1.6,1.2c-0.1,0.2-0.1,0.4-0.1,0.7v4.6h-1.3V77c0-1.2-0.5-2.1-1.6-2.1c-0.9,0-1.5,0.7-1.7,1.4
				c-0.1,0.2-0.1,0.4-0.1,0.7v4.5h-1.3V76z"/>
			<path class="st1" d="M83.1,79.4c0,0.8,0,1.5,0.1,2.1H82l-0.1-1.2h0c-0.4,0.6-1.1,1.4-2.5,1.4c-1.2,0-2.6-0.7-2.6-3.3V74h1.4v4.2
				c0,1.4,0.4,2.4,1.7,2.4c0.9,0,1.6-0.6,1.8-1.2c0.1-0.2,0.1-0.5,0.1-0.7V74h1.4V79.4z"/>
			<path class="st1" d="M91.9,74c0,0.5-0.1,1.1-0.1,2.1v4.4c0,1.7-0.3,2.8-1.1,3.4C90,84.5,89,84.7,88,84.7c-0.9,0-1.9-0.2-2.5-0.6
				l0.3-1c0.5,0.3,1.3,0.6,2.2,0.6c1.4,0,2.4-0.7,2.4-2.6v-0.8h0c-0.4,0.7-1.2,1.3-2.4,1.3c-1.9,0-3.2-1.6-3.2-3.7
				c0-2.5,1.7-4,3.4-4c1.3,0,2,0.7,2.3,1.3h0l0.1-1.1H91.9z M90.5,76.9c0-0.2,0-0.4-0.1-0.6c-0.2-0.8-0.9-1.4-1.9-1.4
				c-1.3,0-2.2,1.1-2.2,2.8c0,1.5,0.7,2.7,2.2,2.7c0.8,0,1.6-0.5,1.9-1.4c0.1-0.2,0.1-0.5,0.1-0.7V76.9z"/>
			<path class="st1" d="M93.9,80.1c0.4,0.3,1.1,0.5,1.8,0.5c1,0,1.5-0.5,1.5-1.1c0-0.7-0.4-1-1.4-1.4c-1.4-0.5-2-1.2-2-2.1
				c0-1.2,1-2.2,2.6-2.2c0.8,0,1.4,0.2,1.8,0.5l-0.3,1c-0.3-0.2-0.8-0.4-1.5-0.4c-0.8,0-1.3,0.5-1.3,1c0,0.6,0.5,0.9,1.4,1.3
				c1.3,0.5,2,1.1,2,2.3c0,1.3-1,2.3-2.8,2.3c-0.8,0-1.6-0.2-2.1-0.5L93.9,80.1z"/>
		</g>
	</g>
</g>
</svg>
